<svg xmlns="http://www.w3.org/2000/svg" xmlns:xlink="http://www.w3.org/1999/xlink" viewBox="0 0 804.89 704.75"><defs><style>.cls-1,.cls-2,.cls-3,.cls-4,.cls-5,.cls-6,.cls-7{fill-rule:evenodd;}.cls-1{fill:url(#linear-gradient);}.cls-2{fill:url(#linear-gradient-2);}.cls-3{fill:url(#linear-gradient-3);}.cls-4{fill:url(#linear-gradient-4);}.cls-5{fill:url(#linear-gradient-5);}.cls-6{fill:url(#linear-gradient-6);}.cls-7{fill:url(#linear-gradient-7);}</style><linearGradient id="linear-gradient" x1="89.41" y1="560.92" x2="403.63" y2="214.38" gradientUnits="userSpaceOnUse"><stop offset="0" stop-color="#ff7900"/><stop offset="0.5" stop-color="#eb0029"/><stop offset="1" stop-color="#820022"/></linearGradient><linearGradient id="linear-gradient-2" x1="80.68" y1="312.58" x2="523.94" y2="-9.55" xlink:href="#linear-gradient"/><linearGradient id="linear-gradient-3" x1="58.77" y1="714.84" x2="652.09" y2="228.66" gradientUnits="userSpaceOnUse"><stop offset="0" stop-color="#820022"/><stop offset="0.5" stop-color="#eb0029"/><stop offset="1" stop-color="#ff7900"/></linearGradient><linearGradient id="linear-gradient-4" x1="293.44" y1="796.17" x2="765.87" y2="529.57" xlink:href="#linear-gradient-3"/><linearGradient id="linear-gradient-5" x1="40.58" y1="433.29" x2="500.73" y2="45.43" xlink:href="#linear-gradient"/><linearGradient id="linear-gradient-6" x1="148.14" y1="621.82" x2="689.9" y2="121.63" xlink:href="#linear-gradient-3"/><linearGradient id="linear-gradient-7" x1="334.63" y1="720.37" x2="821.38" y2="480.88" xlink:href="#linear-gradient-3"/></defs><g id="Layer_2" data-name="Layer 2"><g id="Layer_1-2" data-name="Layer 1"><path class="cls-1" d="M277.49,547.19c-79,15.23-84.29-67.67-33.29-118.65C303.7,368.67,392.25,327.94,451,268.79c49.94-50,37.54-136-49.59-153.72,11,16.29,20.55,35.42,18.07,54.54C388.35,121.09,317.16,111.88,280,157.22c46-42.51,118.29-5.67,41.08,73.31-40,40.73-125.38,96-164,168.6-40,75.8-15.59,193,120.42,148.06Z"/><path class="cls-2" d="M295.9,53.08C435.81,16.6,513.38,136,495.67,206.45c35.06-76.15,11-161.51-70.84-194.81C254.11-57.42-97.6,199,25.66,301c45.7-92.09,186-198,317.35-222.79-6.37-4.6-20.9-13.1-47.11-25.15Z"/><path class="cls-3" d="M548.8,412.94C353.29,727.1,30.26,654.5,107.48,426.05,8.66,597.12,172.64,709.41,356.12,658.4c136.71-38.26,281.93-147.69,346-265.64,37.2-68.72,27.63-115.12-.35-135-23.74,28.34-56,105.2-145.57,213.59Z"/><path class="cls-4" d="M650.09,580.48c-69.41,63.74-179.57,102-329.4,123.61,186,6,327.28-29.75,421.14-84.29C803.82,584,816.92,519.54,795,487c-13.11,6.37-77.22,78.63-145.58,127.88Z"/><path class="cls-5" d="M280,157.22c42.14-39.67,110.16-31.17,141.32,17.71a82,82,0,0,0-12.75-55.26c67.29,15.94,90,98.82,42.5,149.12,18.42-18.77,34-39,44.63-62.34C525.42,128.53,429.44,9.88,285.29,52c25.85,12,41.79,20.19,48.16,24.8C202.39,101.26,70.28,208.22,25,300.31,50.81,322.62,95.08,324,147.5,282.6c23.38-18.42,107.32-100.23,130-123.26.71-.71,1.77-1.41,2.48-2.12Z"/><path class="cls-6" d="M575,301C484.7,421.8,408.9,573.4,239.94,592.51c-79.69,9.23-160.44-46.76-132.46-166.46-87.13,234.82,243.33,313.45,438.83-.71l6.74,56Q688,318.73,701.81,257.8c-31.88-22-87.48-9.55-126.8,43.22Z"/><path class="cls-7" d="M671.7,510.34c-133.52,121.49-223.14,164-351,193.75q223.16-22.33,327.28-118l-2.12,35.41C714.2,572.33,763.79,527.69,795,487c-18.77-27.26-62.69-31.87-123.26,23.38Z"/></g></g></svg>