<svg xmlns="http://www.w3.org/2000/svg" viewBox="0 0 64 64"><defs><style>.cls-1{fill:none;}.cls-2{fill:#333;}</style></defs><g id="Layer_2" data-name="Layer 2"><g id="Capa_1" data-name="Capa 1"><rect class="cls-1" width="64" height="64"/><path class="cls-2" d="M19.82,34.53A12.23,12.23,0,0,1,24.3,23.86a1.82,1.82,0,0,1,3,1.39h0a1.84,1.84,0,0,1-.7,1.42,8.63,8.63,0,1,0,10.86,0,1.84,1.84,0,0,1-.69-1.42h0a1.8,1.8,0,0,1,2.92-1.42,12.23,12.23,0,1,1-19.84,10.7ZM32,18.41a1.81,1.81,0,0,0-1.81,1.81v8.3a1.81,1.81,0,0,0,3.61,0v-8.3A1.8,1.8,0,0,0,32,18.41Z"/></g></g></svg>