<svg xmlns="http://www.w3.org/2000/svg" viewBox="0 0 666.94 402.17"><defs><style>.cls-1{fill:#f5f5f5;}.cls-2{fill:#ebebeb;}.cls-3{fill:#e0e0e0;}.cls-4{fill:#fff;}.cls-5{opacity:0.5;}.cls-6{fill:#e8505b;}.cls-7{opacity:0.2;}.cls-8{fill:#263238;}.cls-9{opacity:0.3;}.cls-10{fill:#fafafa;}.cls-11{fill:#ffbe9d;}.cls-12{fill:#eb996e;}.cls-13{opacity:0.78;}.cls-14{fill:#455a64;}.cls-15{opacity:0.6;}</style></defs><g id="Layer_2" data-name="Layer 2"><g id="Background_Complete" data-name="Background Complete"><path class="cls-1" d="M403,44.3A42,42,0,1,1,355.46,8.89,41.95,41.95,0,0,1,403,44.3Z"/><path class="cls-2" d="M393.14,45.74a32,32,0,1,1-36.25-27A32,32,0,0,1,393.14,45.74Z"/><path class="cls-3" d="M393,44.75c-.19,0-.53-1.34-1.39-3.69a34.08,34.08,0,0,0-5.06-9.17,32.78,32.78,0,0,0-5-5.15,32.16,32.16,0,0,0-7-4.32,31.34,31.34,0,0,0-8.7-2.5,31.48,31.48,0,0,0-4.78-.28,31.59,31.59,0,0,0-9.7,1.72A30.31,30.31,0,0,0,347,23.27,30.62,30.62,0,0,0,343,25.73a31.65,31.65,0,0,0-8.45,9.35,32.56,32.56,0,0,0-2.95,6.56A33.63,33.63,0,0,0,330,52c0,2.51.15,3.91,0,3.94s-.62-1.32-.92-3.89A29.64,29.64,0,0,1,330,41.15,32.24,32.24,0,0,1,338,27a31.31,31.31,0,0,1,3.58-3.16,31,31,0,0,1,4.19-2.7,32.5,32.5,0,0,1,4.73-2.1,35.08,35.08,0,0,1,5.15-1.35,34.3,34.3,0,0,1,5.31-.5,31.44,31.44,0,0,1,5.16.34,32.05,32.05,0,0,1,9.32,2.83,32.51,32.51,0,0,1,7.34,4.82,31.85,31.85,0,0,1,5.11,5.66,29.35,29.35,0,0,1,4.58,9.92C393.12,43.29,393.13,44.72,393,44.75Z"/><path class="cls-3" d="M367.81,68.7l.88,5.51-4.91.78-.86-5.35c-4.91.48-9.82-.29-12.86-2l1.74-6.43a20.18,20.18,0,0,0,10.09,2L360.57,55c-5.66-.45-12-1.29-13.17-8.32-.83-5.2,2.23-10.28,9.85-12.41l-.87-5.45,4.91-.79.86,5.36a22.38,22.38,0,0,1,10.45,1.4l-1.48,6.43a20.63,20.63,0,0,0-7.93-1.35l1.34,8.36c5.65.4,11.94,1.26,13.05,8.18C378.4,61.51,375.37,66.53,367.81,68.7Zm-8.39-20.93-1.12-7c-2.51,1-3.31,2.59-3.05,4.22S357.15,47.43,359.42,47.77Zm10.34,10.49c-.27-1.72-1.84-2.42-4.08-2.82l1.09,6.78C369.14,61.28,370,59.83,369.76,58.26Z"/><path class="cls-2" d="M622.16,225.08s-9.31-5.38-18.93,16.69-13,34.66-13,34.66-2.61,4.66-5.87,1.91-8-10.81-13.13-9c-5.34,1.87-6.76,8-5.19,16.89s4.3,28.36,4.54,30.12-.6,4.36-3.12,2.84-17.37-16.18-23.91-8.71,1.9,31.38,2.77,34,.41,3.8-.82,4.54-5.76-4.66-10.15-8.65-10.19-7.87-13.6-3.24-3.49,22.95,15.68,51.58l9.75,12.68,16-1.85c33.91-6.05,47.07-18.82,48-24.48s-5.84-7.16-11.76-7.55-13,.09-13.28-1.31.21-2.54,2.71-3.74,25.58-11.72,26.42-21.61-20-10.41-22.85-11.17-1.54-3.19-.13-4.23,17.39-12.61,24.85-17.61,10.92-10.31,8.57-15.46c-2.26-5-11.34-2.77-15.58-3.22s-2.7-5.55-2.7-5.55,6.72-11.18,16-33.42S622,225,622,225"/><path class="cls-3" d="M547.77,398.11c6.83-16.31,16.46-38.76,27.18-63.52s20.41-47.17,27.33-63.44l8.18-19.27,2.23-5.24.6-1.36a4.25,4.25,0,0,1,.22-.45s0,.16-.17.47l-.54,1.38L610.66,252c-1.86,4.58-4.6,11.19-8,19.34-6.83,16.31-16.47,38.76-27.18,63.51S555.05,382,548.12,398.26"/><path class="cls-3" d="M577.36,280.89a4.45,4.45,0,0,1,.48,1.06c.28.69.64,1.7,1.09,2.95.88,2.51,2,6,3.17,9.89s2.16,7.27,2.95,9.95l.91,3a4.09,4.09,0,0,1,.28,1.13,5.73,5.73,0,0,1-.48-1.06c-.28-.69-.65-1.7-1.08-3-.85-2.51-1.93-6-3.1-9.9l-3-9.93-.92-3A5.44,5.44,0,0,1,577.36,280.89Z"/><path class="cls-3" d="M587.73,309.06c-.05-.14,7-2.78,15.86-5.9s16-5.53,16-5.39-7,2.79-15.87,5.91S587.78,309.2,587.73,309.06Z"/><path class="cls-3" d="M569.55,346.34a5.19,5.19,0,0,1,1.17-.14l3.21-.18c2.7-.17,6.44-.4,10.55-.81s7.82-.89,10.51-1.26l3.18-.43a4.67,4.67,0,0,1,1.17-.1,5,5,0,0,1-1.14.31c-.74.16-1.82.37-3.15.6-2.68.48-6.39,1-10.52,1.43s-7.87.58-10.59.64c-1.35,0-2.45,0-3.21,0A5,5,0,0,1,569.55,346.34Z"/><path class="cls-3" d="M554.57,322.92a4.68,4.68,0,0,1,.68.85c.42.57,1,1.4,1.71,2.43,1.42,2.07,3.34,4.94,5.45,8.14s4,6.1,5.31,8.22c.67,1.06,1.2,1.92,1.56,2.53a3.93,3.93,0,0,1,.51,1,4.42,4.42,0,0,1-.69-.85c-.41-.57-1-1.4-1.7-2.44-1.42-2.06-3.35-4.94-5.45-8.13s-4-6.1-5.32-8.22c-.66-1.06-1.2-1.93-1.56-2.53A3.81,3.81,0,0,1,554.57,322.92Z"/><path class="cls-3" d="M534.34,353.79a7.23,7.23,0,0,1,.86,1.1c.58.83,1.32,1.87,2.2,3.11,1.83,2.64,4.33,6.3,7.06,10.37s5.18,7.77,6.93,10.46l2.05,3.21a7.37,7.37,0,0,1,.69,1.21,6.47,6.47,0,0,1-.87-1.09l-2.19-3.11c-1.83-2.64-4.33-6.31-7.06-10.37s-5.19-7.77-6.93-10.46L535,355A6,6,0,0,1,534.34,353.79Z"/><path class="cls-3" d="M553.85,382.42a7.83,7.83,0,0,1,1.49-.21l4-.38c3.43-.33,8.15-.8,13.35-1.45s9.9-1.36,13.3-1.9l4-.63a9.54,9.54,0,0,1,1.49-.17,7.56,7.56,0,0,1-1.45.38c-.94.21-2.3.49-4,.8-3.39.64-8.08,1.41-13.3,2.06s-9.95,1.06-13.39,1.29c-1.71.11-3.11.19-4.07.21A8.32,8.32,0,0,1,553.85,382.42Z"/><path class="cls-3" d="M266.87,292.77,76.28,233.45a9.29,9.29,0,0,1-6.11-11.63l36.65-117.74A9.28,9.28,0,0,1,118.45,98L309,157.31a9.27,9.27,0,0,1,6.1,11.62L278.5,286.67A9.29,9.29,0,0,1,266.87,292.77Z"/><path class="cls-4" d="M277.4,182a15.06,15.06,0,1,1-9.9-18.85A15.05,15.05,0,0,1,277.4,182Z"/><path class="cls-4" d="M278.42,198.5a15.48,15.48,0,0,1-2.73-.59,15.68,15.68,0,1,1,11.95-1.09A15.52,15.52,0,0,1,278.42,198.5Zm3.73-29.89a14.45,14.45,0,1,0,12,18.63h0a14.46,14.46,0,0,0-9.5-18.09A13.68,13.68,0,0,0,282.15,168.61Z"/><path class="cls-4" d="M101.05,187.64l-3.6,11.56-1.19-.37,3.27-10.51-2.72-.84.33-1.06Z"/><path class="cls-4" d="M109.67,201.85l-.32,1.05-8.11-2.52.26-.84,6.27-3.22c1.71-.88,2.2-1.58,2.44-2.37.42-1.34-.27-2.46-2-3a4.12,4.12,0,0,0-3.56.31l-.62-1a5.46,5.46,0,0,1,4.62-.38c2.34.73,3.46,2.38,2.86,4.32-.35,1.1-1,2-3,3l-5.14,2.65Z"/><path class="cls-4" d="M122.47,203.65l-2.32-.72-.94,3L118,205.6l.94-3-6.52-2,.27-.86,8.51-5.76,1.32.42L114.31,200l5,1.57.83-2.68,1.16.36-.84,2.67,2.32.73Z"/><path class="cls-4" d="M140.19,209.17l-2.31-.72-.95,3-1.19-.37.95-3-6.53-2,.27-.86,8.52-5.76,1.32.41L132,205.47l5,1.56.83-2.67,1.16.36-.83,2.67,2.31.72Z"/><path class="cls-4" d="M150.41,212c-.61,2-2.46,3.08-5.29,2.2a6.23,6.23,0,0,1-3.68-2.78l.87-.76a5.22,5.22,0,0,0,3.14,2.44c2,.61,3.3,0,3.74-1.42s-.18-2.7-3.12-3.62l-2.46-.77,2.4-5.61,6.33,2-.33,1.06L146.72,203l-1.54,3.56,1.49.47C150.15,208.12,151.05,209.9,150.41,212Z"/><path class="cls-4" d="M161.86,215.46c-.68,2.16-2.81,3-5.06,2.32-3.07-.95-4.08-3.6-2.94-7.26,1.23-3.93,4-5.31,7.15-4.33a5.57,5.57,0,0,1,2.55,1.48l-.78.81a4.2,4.2,0,0,0-2.08-1.24c-2.49-.78-4.59.32-5.57,3.46-.08.27-.17.6-.24,1a3.86,3.86,0,0,1,4.15-.88C161.33,211.49,162.51,213.35,161.86,215.46Zm-1.19-.33c.48-1.52-.34-2.85-2.13-3.4s-3.31.16-3.76,1.6c-.4,1.27.29,2.81,2.29,3.43A2.64,2.64,0,0,0,160.67,215.13Z"/><path class="cls-4" d="M177.64,220.52c-.6,1.93-2.47,3-5.26,2.11a6.28,6.28,0,0,1-3.7-2.78l.87-.76a5.28,5.28,0,0,0,3.17,2.45c1.91.6,3.25,0,3.7-1.4s-.26-2.6-2.41-3.27l-.83-.26.27-.87,4.46-3L172,210.88l.33-1.06,7.43,2.32-.26.84-4.56,3.09C177.38,217,178.21,218.67,177.64,220.52Z"/><path class="cls-4" d="M189.27,224c-.67,2.16-2.8,3-5.05,2.32-3.07-1-4.08-3.61-2.94-7.26,1.22-3.93,4-5.31,7.15-4.33a5.39,5.39,0,0,1,2.54,1.48l-.77.81a4.21,4.21,0,0,0-2.08-1.25c-2.49-.77-4.59.33-5.57,3.47-.08.26-.17.6-.25.95a3.88,3.88,0,0,1,4.16-.88C188.75,220,189.93,221.88,189.27,224Zm-1.18-.34c.47-1.52-.35-2.84-2.13-3.4s-3.31.17-3.76,1.61c-.4,1.27.29,2.8,2.28,3.42A2.65,2.65,0,0,0,188.09,223.66Z"/><path class="cls-4" d="M202.44,219.19l-.27.85L194,229.25l-1.29-.4,8-9-6-1.86-.68,2.17-1.17-.37,1-3.22Z"/><path class="cls-4" d="M219,224.34l-.26.84-8.18,9.22-1.29-.4,8-9-6-1.85-.67,2.16-1.17-.36,1-3.22Z"/><path class="cls-4" d="M227.75,236.23c-.63,2-2.76,2.78-5.52,1.92s-4.07-2.66-3.43-4.71a3,3,0,0,1,3.11-2.15,2.74,2.74,0,0,1-1-3.11c.59-1.88,2.55-2.56,5-1.79s3.71,2.44,3.13,4.32a2.74,2.74,0,0,1-2.64,2A3.05,3.05,0,0,1,227.75,236.23Zm-1.21-.4c.44-1.42-.51-2.69-2.56-3.33s-3.53-.12-4,1.3.48,2.7,2.53,3.34S226.09,237.27,226.54,235.83Zm-2.26-4.27c1.8.56,3.12.08,3.52-1.17s-.49-2.46-2.23-3-3.1-.09-3.5,1.2S222.48,231,224.28,231.56Z"/><path class="cls-4" d="M239.81,237.06c-1.22,3.93-4,5.31-7.14,4.34a5.6,5.6,0,0,1-2.55-1.48l.77-.81a4.32,4.32,0,0,0,2.08,1.24c2.5.78,4.6-.33,5.57-3.47a9.12,9.12,0,0,0,.25-.95,3.87,3.87,0,0,1-4.15.88c-2.3-.71-3.48-2.57-2.82-4.68s2.8-3,5.05-2.33C239.94,230.76,241,233.41,239.81,237.06Zm-.92-2.8c.4-1.28-.28-2.81-2.28-3.43a2.65,2.65,0,0,0-3.61,1.63c-.47,1.52.35,2.84,2.13,3.4S238.44,235.69,238.89,234.26Z"/><path class="cls-4" d="M253.31,235l-3.6,11.56-1.19-.37,3.27-10.5-2.73-.85.33-1.06Z"/><path class="cls-4" d="M261.93,249.24l-.33,1.06-8.11-2.53.26-.84,6.28-3.21c1.7-.89,2.19-1.58,2.44-2.38.42-1.34-.27-2.46-2-3a4.1,4.1,0,0,0-3.55.31l-.62-1a5.44,5.44,0,0,1,4.61-.38c2.35.73,3.46,2.39,2.86,4.32-.34,1.11-1,2-3,3l-5.14,2.64Z"/><path class="cls-4" d="M273,250.2c-.6,1.94-2.47,3-5.26,2.12a6.29,6.29,0,0,1-3.7-2.79l.87-.76a5.29,5.29,0,0,0,3.17,2.46c1.91.59,3.25,0,3.69-1.41s-.26-2.6-2.4-3.26l-.83-.26.28-.88,4.45-3-5.92-1.84.33-1.06,7.44,2.31-.26.84-4.56,3.1C272.75,246.66,273.58,248.35,273,250.2Z"/><rect class="cls-4" x="223.4" y="202.86" width="5.26" height="97.01" transform="translate(-81.14 392.49) rotate(-72.71)"/><rect class="cls-4" x="242.84" y="243.54" width="5.26" height="49.76" transform="translate(-83.76 423.04) rotate(-72.71)"/><g class="cls-5"><rect class="cls-2" x="100.7" y="151.8" width="40.71" height="30.41" rx="4.96" transform="translate(55.11 -28.43) rotate(17.29)"/></g><path class="cls-3" d="M99.6,167.43l.59-1.86,20,6.23a4.39,4.39,0,0,0,2.6-8.38l-20-6.23.58-1.86,20,6.23a6.34,6.34,0,0,1-3.76,12.1Z"/><rect class="cls-3" x="132.51" y="164.15" width="1.95" height="14.39" transform="matrix(0.3, -0.95, 0.95, 0.3, -69.86, 247.68)"/><rect class="cls-4" x="114.47" y="139.33" width="104.69" height="8.98" transform="translate(50.29 -43.08) rotate(17.29)"/><path class="cls-1" d="M149.2,348.6a26.55,26.55,0,1,1-30.09-22.4A26.52,26.52,0,0,1,149.2,348.6Z"/><path class="cls-2" d="M143,349.51A20.24,20.24,0,1,1,120,332.44,20.2,20.2,0,0,1,143,349.51Z"/><path class="cls-3" d="M142.85,348.88a12.3,12.3,0,0,1-.88-2.33,21.5,21.5,0,0,0-3.2-5.8,20,20,0,0,0-7.6-6,18.38,18.38,0,0,0-2.64-1,17.7,17.7,0,0,0-2.86-.61,19,19,0,0,0-3-.18,22.1,22.1,0,0,0-3.11.3,21.59,21.59,0,0,0-3,.79,19.78,19.78,0,0,0-2.78,1.21,18.84,18.84,0,0,0-2.48,1.55,19.22,19.22,0,0,0-2.14,1.83,20.37,20.37,0,0,0-3.21,4.09,21,21,0,0,0-1.86,4.14,21.49,21.49,0,0,0-1,6.55,12.14,12.14,0,0,1,0,2.49,5.89,5.89,0,0,1-.58-2.46,18.72,18.72,0,0,1,.55-6.88,20.59,20.59,0,0,1,7.38-10.94A19.38,19.38,0,0,1,113,334a21.17,21.17,0,0,1,3-1.32,22,22,0,0,1,3.26-.86,22.72,22.72,0,0,1,3.36-.32,20.6,20.6,0,0,1,3.26.22,19.16,19.16,0,0,1,3.08.69,20,20,0,0,1,2.81,1.1,20.56,20.56,0,0,1,4.65,3,20,20,0,0,1,3.23,3.58,18.68,18.68,0,0,1,2.9,6.27A5.94,5.94,0,0,1,142.85,348.88Z"/><path class="cls-3" d="M126.92,364l.56,3.48-3.11.5-.54-3.39a14.89,14.89,0,0,1-8.13-1.24l1.1-4.07a12.74,12.74,0,0,0,6.38,1.24l-.83-5.19c-3.58-.28-7.62-.82-8.33-5.26-.53-3.29,1.41-6.51,6.23-7.85l-.55-3.45,3.11-.5.54,3.39a14.1,14.1,0,0,1,6.61.89l-.94,4.07a12.9,12.9,0,0,0-5-.86l.85,5.28c3.58.26,7.55.8,8.26,5.18C133.62,359.49,131.71,362.66,126.92,364Zm-5.3-13.24-.71-4.41c-1.59.64-2.09,1.64-1.93,2.67S120.18,350.58,121.62,350.79Zm6.54,6.64c-.17-1.09-1.17-1.54-2.58-1.79l.69,4.29C127.77,359.34,128.32,358.42,128.16,357.43Z"/></g><g id="Plant"><path class="cls-6" d="M545.9,359.65c-1.94,2.77-5.7,1.85-7.45.16s-2.49-4.13-3.16-6.47c-1.53-5.34-3.08-10.94-1.94-16.37a9.05,9.05,0,0,1,2.09-4.45,4.75,4.75,0,0,1,4.5-1.5c1.9.5,3.08,2.36,3.94,4.13a39,39,0,0,1,3.85,16.75c0,2.7-.31,5.53-1.83,7.75"/><g class="cls-7"><path d="M545.9,359.65c-1.94,2.77-5.7,1.85-7.45.16s-2.49-4.13-3.16-6.47c-1.53-5.34-3.08-10.94-1.94-16.37a9.05,9.05,0,0,1,2.09-4.45,4.75,4.75,0,0,1,4.5-1.5c1.9.5,3.08,2.36,3.94,4.13a39,39,0,0,1,3.85,16.75c0,2.7-.31,5.53-1.83,7.75"/></g><path class="cls-6" d="M538.64,373.67a16.84,16.84,0,0,0-10.42-1.26,8.64,8.64,0,0,0-5.15,2.3c-1.29,1.42-1.53,3.92-.06,5.14a5,5,0,0,0,3.25.82c2.76,0,5.81-.52,8,1.14,1.26.95,2.1,2.52,3.6,3a3.54,3.54,0,0,0,3.9-1.73,6.09,6.09,0,0,0,.45-4.48A6.87,6.87,0,0,0,538.64,373.67Z"/><path class="cls-6" d="M551.23,363.63a10.07,10.07,0,0,1-1.57-9.28,17.77,17.77,0,0,1,5.49-8,29.55,29.55,0,0,1,9.83-5.8,10.36,10.36,0,0,1,4.42-.75,4.66,4.66,0,0,1,3.72,2.24c1,2,0,4.37-1,6.32a77.21,77.21,0,0,1-6.46,9.84c-1.94,2.49-4.16,4.95-7.11,6.08s-6,1-7.57-1.05"/><path class="cls-8" d="M546,401.42a7.1,7.1,0,0,1-.17-1.26c-.09-.92-.2-2.06-.34-3.43a49.66,49.66,0,0,0-.77-5,38,38,0,0,0-1.83-5.94,22,22,0,0,0-3-5.38,11.32,11.32,0,0,0-3.84-3.19,10.85,10.85,0,0,0-3.23-1,5.6,5.6,0,0,1-1.26-.18,5.74,5.74,0,0,1,1.28,0,9.8,9.8,0,0,1,3.37.88,11.32,11.32,0,0,1,4,3.22,21.35,21.35,0,0,1,3.14,5.48,36.22,36.22,0,0,1,1.82,6,42.27,42.27,0,0,1,.67,5.1c.11,1.46.15,2.64.17,3.46A5.27,5.27,0,0,1,546,401.42Z"/><path class="cls-8" d="M545.8,398.78a2.52,2.52,0,0,1,0-.59c0-.44,0-1,0-1.67,0-1.45,0-3.54-.08-6.13-.12-5.18-.57-12.33-1.43-20.18s-2-14.93-3.07-20c-.24-1.27-.49-2.42-.73-3.42s-.41-1.87-.6-2.57l-.39-1.62a2.41,2.41,0,0,1-.1-.58,2.32,2.32,0,0,1,.2.55l.49,1.6c.21.69.43,1.55.68,2.55s.54,2.14.81,3.41a185.75,185.75,0,0,1,3.22,20c.87,7.87,1.26,15,1.29,20.23,0,2.6,0,4.7-.09,6.15,0,.68-.08,1.23-.1,1.67A2.45,2.45,0,0,1,545.8,398.78Z"/><path class="cls-8" d="M545.76,385a12.19,12.19,0,0,1,0-1.74c.07-1.12.22-2.74.54-4.73a66.31,66.31,0,0,1,4.41-15,43.53,43.53,0,0,1,8.46-13.16,21.64,21.64,0,0,1,2-1.85c.3-.26.57-.51.85-.72l.77-.53a11.86,11.86,0,0,1,1.47-.94,50.78,50.78,0,0,0-4.82,4.29,45.9,45.9,0,0,0-8.24,13.12,63.37,63.37,0,0,0-2.89,8.07,69.15,69.15,0,0,0-1.64,6.82c-.36,2-.57,3.56-.69,4.67A10.86,10.86,0,0,1,545.76,385Z"/></g><g id="Credit_Card" data-name="Credit Card"><path class="cls-6" d="M328.48,305.63,173.7,141.9a4.28,4.28,0,0,1,.17-6.07l101.58-96a4.3,4.3,0,0,1,6.08.17L436.32,203.68a4.31,4.31,0,0,1-.17,6.08l-101.59,96A4.3,4.3,0,0,1,328.48,305.63Z"/><g class="cls-9"><path d="M328.48,305.63,173.7,141.9a4.28,4.28,0,0,1,.17-6.07l101.58-96a4.3,4.3,0,0,1,6.08.17L436.32,203.68a4.31,4.31,0,0,1-.17,6.08l-101.59,96A4.3,4.3,0,0,1,328.48,305.63Z"/></g><path class="cls-6" d="M435.19,202.49,282.66,41.15a5.94,5.94,0,0,0-8.4-.23L245.39,68.21a2.36,2.36,0,0,0-.71,2.12c2.88,16.14,14.43,30.57,28.18,40.13,16.63,11.55,36.32,17.63,55.05,25.35s37.5,17.87,48.73,34.72c10.59,15.91,13.1,35.63,18.48,54a105.73,105.73,0,0,0,5.44,14.58,2.39,2.39,0,0,0,3.8.73L435,210.89A5.94,5.94,0,0,0,435.19,202.49Z"/><path class="cls-4" d="M280.41,88.11c-1.38,1.31-3.21,1-5.2-1.13l-3.9-4.13,8-7.54,3.69,3.9c1.88,2,2,3.8.78,5a2.66,2.66,0,0,1-2.76.6A2.7,2.7,0,0,1,280.41,88.11Zm-.77-9.65-1.89,1.78,1.74,1.83c.85.9,1.63,1.09,2.26.5s.47-1.38-.38-2.28Zm-.8,7.61c.68-.64.51-1.45-.39-2.41l-2-2.15-2,1.86,2,2.16C277.38,86.48,278.16,86.72,278.84,86.07Z"/><path class="cls-4" d="M286.23,95.2l-3.51-3.7-2.37.91-1.79-1.89,11.34-4,1.72,1.82L287,99.47l-1.83-1.94Zm.85-1.9,1.86-4.16-4.25,1.63Z"/><path class="cls-4" d="M302.7,100.07l-8,7.54-1.44-1.52,1.09-8.56-4.85,4.58-1.72-1.82,8-7.54,1.44,1.52-1.09,8.55L301,98.24Z"/><path class="cls-4" d="M302.38,109.44l-2.13,0-2,1.91-1.73-1.84,8-7.54,1.73,1.84-3.72,3.52h7.06l1.94,2.05-6.68.06-1.11,7.68-2-2.16Z"/><path class="cls-4" d="M245.82,118l-1.39-1.46-1.92,1.82-.72-.75,1.93-1.82-3.91-4.14.55-.51,8.52-.71.79.84-8.27.72,3,3.18,1.69-1.6.7.73-1.7,1.61,1.39,1.46Z"/><path class="cls-4" d="M251.08,123.19c-1.23,1.16-3,1.16-4.68-.61a5.21,5.21,0,0,1-1.55-3.52l.94-.2a4.39,4.39,0,0,0,1.3,3.07c1.15,1.22,2.35,1.35,3.26.49s.87-2-.42-3.35l-.49-.53L250,118l4.46-.37-3.54-3.75.67-.63L256,118l-.53.5-4.57.39C252.33,120.52,252.25,122.09,251.08,123.19Z"/><path class="cls-4" d="M256.73,129.07c-1.25,1.17-3,1.23-4.73-.56a5.22,5.22,0,0,1-1.54-3.52l.94-.2a4.34,4.34,0,0,0,1.28,3c1.18,1.25,2.41,1.33,3.3.49s1-2-.79-3.89l-1.48-1.56,4-3.09,3.79,4-.67.64-3.16-3.35-2.57,2,.89.94C258.1,126.18,258,127.84,256.73,129.07Z"/><path class="cls-4" d="M262.86,135.49a3.13,3.13,0,0,1-4.61-.37c-1.84-2-1.49-4.28.82-6.47,2.49-2.35,5.08-2.22,7-.23a4.65,4.65,0,0,1,1.24,2.11l-.89.27a3.65,3.65,0,0,0-1-1.75c-1.5-1.58-3.47-1.63-5.46.25-.17.16-.37.36-.57.59a3.23,3.23,0,0,1,3.38,1.06C264.1,132.4,264.2,134.23,262.86,135.49Zm-.72-.72c1-.91.91-2.21-.16-3.34a2.33,2.33,0,0,0-3.38-.37c-.81.77-.94,2.16.26,3.42A2.2,2.2,0,0,0,262.14,134.77Z"/><path class="cls-4" d="M275.64,153.39l.65-3.93-4,.42-.8-.84,4.89-.49.72-4.6.79.83-.59,3.69,3.71-.38.78.82-4.64.46-.75,4.87Z"/><path class="cls-4" d="M280.92,159l.65-3.92-4,.42-.79-.84,4.88-.49.72-4.61.79.84-.59,3.69,3.72-.38.77.81-4.64.46-.75,4.87Z"/><path class="cls-4" d="M286.2,164.56l.65-3.92-4,.42-.79-.84,4.88-.5.72-4.6.79.84-.59,3.69,3.72-.39.77.82-4.64.46-.75,4.87Z"/><path class="cls-4" d="M291.49,170.15l.65-3.93-4,.42-.79-.83,4.88-.5.72-4.6.79.84-.59,3.69,3.72-.39.77.82-4.64.46-.74,4.87Z"/><path class="cls-4" d="M309.72,189.44l.65-3.92-4,.42-.79-.84,4.88-.5.72-4.6.79.84-.59,3.69,3.72-.39.77.82-4.64.46-.74,4.87Z"/><path class="cls-4" d="M315,195l.65-3.93-4,.42-.79-.84,4.88-.49.72-4.6.79.83-.59,3.69,3.72-.38.77.82-4.64.46-.74,4.86Z"/><path class="cls-4" d="M320.29,200.61l.65-3.92-4,.42-.79-.84,4.88-.49.72-4.61.8.84-.6,3.69,3.72-.38.77.81-4.63.46-.75,4.87Z"/><path class="cls-4" d="M325.57,206.2l.65-3.92-4,.41-.79-.83,4.89-.5.72-4.6.79.84-.6,3.69,3.72-.39.77.82-4.63.46-.75,4.87Z"/><path class="cls-4" d="M349.27,216.6,342,223.53l-.71-.76,6.65-6.29-1.63-1.73.67-.63Z"/><path class="cls-4" d="M350.28,228.13c-1.22,1.15-3,1.16-4.68-.61a5.25,5.25,0,0,1-1.55-3.53l.95-.2a4.37,4.37,0,0,0,1.29,3.07c1.15,1.22,2.35,1.35,3.26.49s.87-2-.42-3.35l-.49-.52.55-.53,4.47-.37-3.55-3.75.67-.63,4.46,4.71-.54.5-4.56.39C351.54,225.45,351.45,227,350.28,228.13Z"/><path class="cls-4" d="M357,235.58l-1.39-1.47-1.92,1.82-.71-.75,1.92-1.82L351,229.23l.55-.52,8.52-.71.79.84-8.27.73,3,3.18,1.7-1.61.69.74-1.7,1.6,1.39,1.46Z"/><path class="cls-4" d="M361.07,242.41l-.67.64-4.85-5.14.53-.5,5.86.22c1.6.06,2.24-.25,2.74-.73.85-.8.81-1.89-.25-3a3.43,3.43,0,0,0-2.71-1.23l0-1a4.52,4.52,0,0,1,3.5,1.6c1.4,1.49,1.54,3.14.32,4.3-.7.66-1.54,1-3.43,1l-4.81-.17Z"/><path class="cls-4" d="M219.12,124.06a2.66,2.66,0,0,1,4.35,2.21l-1-.07a1.54,1.54,0,0,0-.42-1.26,1.54,1.54,0,1,0-2.23,2.11,1.51,1.51,0,0,0,1.24.49v1a2.43,2.43,0,0,1-2-.85A2.47,2.47,0,0,1,219.12,124.06Z"/><path class="cls-4" d="M223.91,131.12l-1.54-1.62-1,.4-.78-.83,5-1.75.75.8-2,4.87-.8-.85Zm.37-.84.82-1.81-1.87.71Z"/><path class="cls-4" d="M226.71,135.58,227,134l0,0-.67-.7-1,.92-.77-.81,3.5-3.31,1.43,1.51c.88.94.95,2,.17,2.72a1.57,1.57,0,0,1-1.79.33l-.38,1.84Zm2.12-3.44-.63-.66L227,132.64l.62.65c.47.5.93.53,1.31.17S229.3,132.64,228.83,132.14Z"/><path class="cls-4" d="M228.16,136.43l.87-.3a2.86,2.86,0,0,0,.73,1.5c.45.48.8.52,1,.32.65-.62-1.72-2.23-.42-3.45.6-.57,1.54-.55,2.48.44a3.18,3.18,0,0,1,.84,1.51l-.85.33a2.73,2.73,0,0,0-.64-1.23c-.45-.48-.81-.5-1-.29-.64.61,1.72,2.22.44,3.44-.58.55-1.54.54-2.49-.46A3.53,3.53,0,0,1,228.16,136.43Z"/><path class="cls-4" d="M239,141.54l-3.5,3.3-.76-.81,1.43-1.35-1.5-1.59-1.43,1.36-.77-.81,3.5-3.31.76.81-1.38,1.3,1.51,1.59,1.37-1.3Z"/><path class="cls-4" d="M237.79,143.81a2.64,2.64,0,1,1,0,3.62A2.49,2.49,0,0,1,237.79,143.81Zm2.84,3a1.5,1.5,0,1,0-2.15,0A1.46,1.46,0,0,0,240.63,146.81Z"/><path class="cls-4" d="M243.74,146.6l.76.8-2.83,2.68,1.65,1.76-.66.62-2.42-2.56Z"/><path class="cls-4" d="M246.59,149.62l1.5,1.58a2.42,2.42,0,1,1-3.49,3.31l-1.5-1.59Zm-1.36,4.22a1.49,1.49,0,1,0,2.16-2.05l-.7-.74-2.16,2Z"/><path class="cls-4" d="M250.21,159.14l-.65.62L247,157.05l3.5-3.3,2.5,2.64-.65.61-1.74-1.84-.76.72,1.53,1.62-.62.6-1.54-1.62-.81.76Z"/><path class="cls-4" d="M252.28,162.63l.34-1.59,0,0-.67-.71-1,.92-.76-.8,3.49-3.31,1.43,1.51c.88.94,1,2,.17,2.72a1.58,1.58,0,0,1-1.79.32l-.38,1.85Zm2.12-3.44-.62-.66-1.22,1.15.62.66c.47.5.93.53,1.31.17S254.87,159.69,254.4,159.19Z"/><path class="cls-4" d="M205.14,136.62l1.85-.11a2.15,2.15,0,0,0,.44,2c.59.62,1.28.6,2-.1l3.2-3L210.42,133l1.25-1.18,3.7,3.91L211,139.82c-1.66,1.58-3.27,1.51-4.77-.08A3.68,3.68,0,0,1,205.14,136.62Z"/><path class="cls-4" d="M210.44,142.24a1.28,1.28,0,0,1,1.77,1.86,1.28,1.28,0,1,1-1.77-1.86Z"/><path class="cls-4" d="M228.41,149.49l-8.82,4.16L218,152l3.16-5.79-6,2.78-1.58-1.67,4.64-8.57,1.53,1.61-3.29,6,6.23-2.89,1.36,1.44-3.31,6.05L227,148Z"/><path class="cls-4" d="M229,150.15a1.19,1.19,0,0,1,1.72.14,1.17,1.17,0,0,1,.07,1.7,1.2,1.2,0,0,1-1.75-.11A1.19,1.19,0,0,1,229,150.15Zm-1.39,1.66,1.42,1.5-5.17,4.89-1.42-1.5Z"/><path class="cls-4" d="M232.35,152.85l1.42,1.5-7.14,6.74-1.42-1.5Z"/><path class="cls-4" d="M235.08,155.74l1.42,1.5L229.36,164l-1.41-1.5Z"/><path class="cls-4" d="M237.24,158.83A1.18,1.18,0,0,1,239,159a1.15,1.15,0,0,1,.07,1.7,1.29,1.29,0,0,1-1.79-1.84Zm-1.38,1.66,1.41,1.5-5.17,4.89-1.42-1.5Z"/><path class="cls-4" d="M240.7,170.06l-3,2.79-1.33-1.41.65-.6a2.34,2.34,0,0,1-2.21-.9c-1.15-1.21-1.16-2.57-.26-3.42s2.16-.81,3.65.76l1.12,1.2c.65-.61.66-1.35-.1-2.16a3.41,3.41,0,0,0-1.89-1l.53-1.53a5.52,5.52,0,0,1,2.74,1.64C242.13,167,242.26,168.58,240.7,170.06ZM238,169.8l.53-.5-1-1c-.66-.7-1.13-.68-1.47-.35s-.33.91.17,1.44A1.51,1.51,0,0,0,238,169.8Z"/><path class="cls-4" d="M250.25,180.14l-3,2.8-1.42-1.5,2.73-2.58c.84-.79.87-1.53.29-2.14s-1.51-.73-2.44.14l-2.59,2.46-1.42-1.5,2.73-2.59c.84-.79.89-1.51.29-2.13s-1.5-.73-2.42.14l-2.6,2.46L239,174.2l5.17-4.89,1.36,1.43-.6.56a2.89,2.89,0,0,1,2.21,1,2.68,2.68,0,0,1,.77,2.51,3.19,3.19,0,0,1,2.61,1.06C251.7,177.09,251.83,178.65,250.25,180.14Z"/><path class="cls-4" d="M248.56,183.33l1.55-.52a4.93,4.93,0,0,0,1.2,2.27c.65.69,1.08.78,1.37.5.85-.8-3-3.1-.91-5.06,1-.93,2.51-.7,3.94.81a5.91,5.91,0,0,1,1.43,2.42l-1.54.51a4.09,4.09,0,0,0-1-1.85c-.64-.68-1.12-.76-1.39-.51-.89.84,2.92,3.15.88,5.08-1,.91-2.49.66-3.95-.89A6,6,0,0,1,248.56,183.33Z"/><path class="cls-4" d="M308.31,241.16c2.22-2.11,4.64-2.07,6.21-.41s1.47,4.08-.75,6.18-4.64,2.07-6.21.4S306.09,243.26,308.31,241.16Zm4,4.2c1.53-1.45,1.66-2.59.92-3.36s-1.87-.71-3.4.73-1.65,2.59-.93,3.36S310.75,246.8,312.28,245.36Z"/><path class="cls-4" d="M318.49,254.41c-1.37,1.3-3.3,1-4.65-.43-1.75-1.85-1.68-4.11.49-6.16,2.33-2.2,5-2,6.88,0a5,5,0,0,1,1.31,2.31l-1.69.51a3.08,3.08,0,0,0-.86-1.58,2.46,2.46,0,0,0-3.74-.05,3.12,3.12,0,0,1,2.17,1.1A2.94,2.94,0,0,1,318.49,254.41ZM317,253a1.41,1.41,0,0,0-.07-2.1,1.4,1.4,0,1,0-2,1.92A1.4,1.4,0,0,0,317,253Z"/><path class="cls-4" d="M327.43,251.91l1.27,1.33-12.06,5.39-1.27-1.33Z"/><path class="cls-4" d="M326.58,264.68l-1.27,1.2-4.81-5.09,1-1,4.9.27c1.14.06,1.58-.16,1.91-.47.53-.5.49-1.15-.18-1.87a2.28,2.28,0,0,0-2-.75l-.35-1.83a4.3,4.3,0,0,1,3.78,1.49c1.42,1.5,1.6,3.23.37,4.39a3.73,3.73,0,0,1-3.19.88l-2.92-.17Z"/><path class="cls-4" d="M333.06,271.25l-1-1.1-1.42,1.34L329.18,270l1.41-1.34L327.16,265l1-1,7.27-.87,1.55,1.64-6.84.88,1.71,1.81,1.26-1.19,1.4,1.47L333.3,269l1,1.1Z"/><path class="cls-6" d="M364.65,188c3.8-5.84,2.31-13.6-2.79-18.34a18,18,0,0,0-5.31-3.48c-4.87-2-11.32-.55-13.88,4.07-2.09,3.77-1.24,8.47.22,12.53,1.53,4.25,4,8.59,8.21,10.24,4,1.59,8.92.13,11.94-3A13.54,13.54,0,0,0,364.65,188Z"/></g><g id="Wallet"><rect class="cls-6" x="184.23" y="190.37" width="290.61" height="210.91" rx="17.44"/><path class="cls-8" d="M474.84,207.81s0-.22,0-.63a12.59,12.59,0,0,0-.18-1.87,17.17,17.17,0,0,0-2.55-6.83,18.25,18.25,0,0,0-3.57-4,17.64,17.64,0,0,0-5.69-3.12c-.56-.19-1.15-.31-1.74-.47s-1.22-.19-1.85-.29l-1.93-.1H446.55l-104.27.08-72,0-40.11,0H203.85a27.61,27.61,0,0,0-5.31.3,18.43,18.43,0,0,0-5,1.75,18.84,18.84,0,0,0-4.25,3.24,16.83,16.83,0,0,0-3.06,4.41,16.12,16.12,0,0,0-1.57,5.18,43.53,43.53,0,0,0-.17,5.5v28.17q0,22.86,0,46.62v98a17.34,17.34,0,0,0,4.27,11.33,17,17,0,0,0,10.59,5.7,52.49,52.49,0,0,0,6.16.18h66.82l91.34,0,82.65,0h9.62a24.34,24.34,0,0,0,4.69-.31,17.21,17.21,0,0,0,4.39-1.48,20.66,20.66,0,0,0,2-1.14,19.27,19.27,0,0,0,1.81-1.43,17.06,17.06,0,0,0,5.76-11.87c.11-12,0-23.54.07-34.54,0-44,.06-79.64.08-104.26,0-12.31,0-21.86.05-28.35,0-3.24,0-5.71,0-7.37s0-2.51,0-2.51,0,.85,0,2.51,0,4.13,0,7.37c0,6.49,0,16,.05,28.35,0,24.62.05,60.24.08,104.26,0,11,.07,22.53,0,34.56A17.42,17.42,0,0,1,469.1,397a19.63,19.63,0,0,1-1.84,1.46,19.87,19.87,0,0,1-2.06,1.17,17.24,17.24,0,0,1-4.49,1.52,24.64,24.64,0,0,1-4.77.32h-9.62l-82.65,0H205.51a54.28,54.28,0,0,1-6.23-.18,17.51,17.51,0,0,1-10.91-5.87,17.85,17.85,0,0,1-4.4-11.68c0-33.58,0-66.37,0-98V239.15q0-11.42,0-22.6V211a43.26,43.26,0,0,1,.18-5.57,17.65,17.65,0,0,1,4.77-9.85,18.87,18.87,0,0,1,4.37-3.33,18.56,18.56,0,0,1,5.15-1.8l1.35-.2,1.36-.08c.9-.05,1.79,0,2.68,0h66.43l72,0,104.27.08,8.71,0h2l2,.1c.63.1,1.26.18,1.86.3s1.19.29,1.76.48a17.33,17.33,0,0,1,9.29,7.26,17.23,17.23,0,0,1,2.53,6.88,13.15,13.15,0,0,1,.15,1.87C474.84,207.59,474.84,207.81,474.84,207.81Z"/><path class="cls-8" d="M464.66,203.37a17.44,17.44,0,0,1,6,0,17.44,17.44,0,0,1-6,0Z"/><path class="cls-8" d="M440.18,203.37a72.16,72.16,0,0,1,12.24,0,72.16,72.16,0,0,1-12.24,0Z"/><path class="cls-8" d="M415.71,203.37a72.16,72.16,0,0,1,12.24,0,72.16,72.16,0,0,1-12.24,0Z"/><path class="cls-8" d="M391.23,203.37a72.16,72.16,0,0,1,12.24,0,72.16,72.16,0,0,1-12.24,0Z"/><path class="cls-8" d="M366.76,203.37a72.16,72.16,0,0,1,12.24,0,72.16,72.16,0,0,1-12.24,0Z"/><path class="cls-8" d="M342.28,203.37a72.16,72.16,0,0,1,12.24,0,72.16,72.16,0,0,1-12.24,0Z"/><path class="cls-8" d="M317.81,203.37a72,72,0,0,1,12.23,0,72,72,0,0,1-12.23,0Z"/><path class="cls-8" d="M293.33,203.37a36.7,36.7,0,0,1,6.12-.26,36.7,36.7,0,0,1,6.12.26,36.7,36.7,0,0,1-6.12.26A36.7,36.7,0,0,1,293.33,203.37Z"/><path class="cls-8" d="M268.86,203.37a36.7,36.7,0,0,1,6.12-.26,36.52,36.52,0,0,1,6.11.26,36.52,36.52,0,0,1-6.11.26A36.7,36.7,0,0,1,268.86,203.37Z"/><path class="cls-8" d="M244.38,203.37a36.7,36.7,0,0,1,6.12-.26,36.7,36.7,0,0,1,6.12.26,36.7,36.7,0,0,1-6.12.26A36.7,36.7,0,0,1,244.38,203.37Z"/><path class="cls-8" d="M219.91,203.37a36.62,36.62,0,0,1,6.11-.26,36.7,36.7,0,0,1,6.12.26,36.7,36.7,0,0,1-6.12.26A36.62,36.62,0,0,1,219.91,203.37Z"/><path class="cls-8" d="M201.67,209.37a34.12,34.12,0,0,1-.26-6l.26-.26H204l1.91.06a5.9,5.9,0,0,1,1.76.18,5.9,5.9,0,0,1-1.76.18l-1.91.06-1.12,0h-1.21l.26-.26A35.32,35.32,0,0,1,201.67,209.37Z"/><path class="cls-8" d="M201.67,231.8a29.81,29.81,0,0,1-.26-5.61,29.81,29.81,0,0,1,.26-5.61,30.86,30.86,0,0,1,.26,5.61A30.86,30.86,0,0,1,201.67,231.8Z"/><path class="cls-8" d="M201.67,254.23a29.81,29.81,0,0,1-.26-5.61,29.81,29.81,0,0,1,.26-5.61,30.86,30.86,0,0,1,.26,5.61A30.86,30.86,0,0,1,201.67,254.23Z"/><path class="cls-8" d="M201.67,276.66a29.9,29.9,0,0,1-.26-5.61,29.81,29.81,0,0,1,.26-5.61,30.86,30.86,0,0,1,.26,5.61A31,31,0,0,1,201.67,276.66Z"/><path class="cls-8" d="M201.67,299.08a60.55,60.55,0,0,1,0-11.21,60.55,60.55,0,0,1,0,11.21Z"/><path class="cls-8" d="M201.67,321.51a60.55,60.55,0,0,1,0-11.21,60.55,60.55,0,0,1,0,11.21Z"/><path class="cls-8" d="M201.67,343.94a60.55,60.55,0,0,1,0-11.21,60.55,60.55,0,0,1,0,11.21Z"/><path class="cls-8" d="M201.67,366.37a60.65,60.65,0,0,1,0-11.22,60.65,60.65,0,0,1,0,11.22Z"/><path class="cls-8" d="M207.67,383.58a34.12,34.12,0,0,1-6,.26l-.26-.26h0v-1.19c0-.38,0-.75,0-1.12,0-.66,0-1.29,0-1.91a6.07,6.07,0,0,1,.19-1.76,5.9,5.9,0,0,1,.18,1.76c0,.62,0,1.25.06,1.91,0,.37,0,.74,0,1.12,0,.2,0,.4,0,.6v.59h0c-.12-.11.26.26-.26-.26A35.32,35.32,0,0,1,207.67,383.58Z"/><path class="cls-8" d="M231.79,383.58a34.43,34.43,0,0,1-6,.26,34.43,34.43,0,0,1-6-.26,35.64,35.64,0,0,1,6-.26A35.64,35.64,0,0,1,231.79,383.58Z"/><path class="cls-8" d="M255.91,383.58a34.43,34.43,0,0,1-6,.26,34.43,34.43,0,0,1-6-.26,35.64,35.64,0,0,1,6-.26A35.64,35.64,0,0,1,255.91,383.58Z"/><path class="cls-8" d="M280,383.58a34.43,34.43,0,0,1-6,.26,34.43,34.43,0,0,1-6-.26,35.64,35.64,0,0,1,6-.26A35.64,35.64,0,0,1,280,383.58Z"/><path class="cls-8" d="M304.15,383.58a34.43,34.43,0,0,1-6,.26,34.43,34.43,0,0,1-6-.26,70.05,70.05,0,0,1,12.06,0Z"/><path class="cls-8" d="M328.27,383.58a70.05,70.05,0,0,1-12.06,0,70.05,70.05,0,0,1,12.06,0Z"/><path class="cls-8" d="M352.39,383.58a70.05,70.05,0,0,1-12.06,0,70.05,70.05,0,0,1,12.06,0Z"/><path class="cls-8" d="M376.51,383.58a70.05,70.05,0,0,1-12.06,0,70.05,70.05,0,0,1,12.06,0Z"/><path class="cls-8" d="M400.64,383.58a70.05,70.05,0,0,1-12.06,0,70.05,70.05,0,0,1,12.06,0Z"/><path class="cls-8" d="M424.76,383.58a70.05,70.05,0,0,1-12.06,0,70.05,70.05,0,0,1,12.06,0Z"/><path class="cls-8" d="M448.88,383.58a70.05,70.05,0,0,1-12.06,0,70.05,70.05,0,0,1,12.06,0Z"/><path class="cls-8" d="M466.94,383.58a17.44,17.44,0,0,1-6,0,17.44,17.44,0,0,1,6,0Z"/><g class="cls-9"><path d="M284.51,307.34s.06,10-3,16.05-4,8.38-10.39,10.7-86.93,11.17-86.93,11.17V318Z"/></g><g class="cls-9"><path d="M283.07,269.64s.92-10.2-24.7-14c-29.29-4.33-74.14-9.66-74.14-9.66V265.3Z"/></g><rect class="cls-6" x="172.58" y="260.38" width="111.93" height="65.92" rx="14.31"/><path class="cls-8" d="M186.89,326.3l-.85,0a12,12,0,0,1-2.49-.33,14.54,14.54,0,0,1-3.8-1.48,14.35,14.35,0,0,1-7.06-10,21.66,21.66,0,0,1-.25-4c0-1.39,0-2.82,0-4.31,0-5.95,0-12.73,0-20.21,0-3.75,0-7.67,0-11.77a14.44,14.44,0,0,1,5.75-11.09,14.1,14.1,0,0,1,6.18-2.72,18.25,18.25,0,0,1,3.46-.24h18l64.43,0a14.59,14.59,0,0,1,11.32,5.4,14.6,14.6,0,0,1,3.19,7.76c.1,1.41.06,2.77.07,4.15v8.15q0,8.09,0,15.87,0,3.89,0,7.69c0,1.27.05,2.51-.05,3.8a15,15,0,0,1-.23,1.89,16.33,16.33,0,0,1-.5,1.82,14.54,14.54,0,0,1-10.42,9.47,13.09,13.09,0,0,1-1.75.31c-.59.05-1.18.08-1.76.1H259.88l-24.5,0-35.48-.08-9.64,0-2.51,0-.86,0,.86,0,2.51,0,9.64-.05,35.48-.08,24.5,0h6.72c2.27-.06,4.61.19,6.85-.4a14.11,14.11,0,0,0,10.07-9.18c.86-2.31.74-4.82.75-7.36s0-5.1,0-7.69V285.58q0-4,0-8.15c0-1.37,0-2.76-.07-4.1a14.07,14.07,0,0,0-3.07-7.48,15.22,15.22,0,0,0-3-2.79,15.61,15.61,0,0,0-3.75-1.8,16,16,0,0,0-4.13-.62l-64.43,0h-18a18,18,0,0,0-3.38.23,13.71,13.71,0,0,0-6,2.62,14.06,14.06,0,0,0-5.61,10.77c-.05,4.07,0,8,0,11.75,0,7.48,0,14.26,0,20.21,0,1.49,0,2.92,0,4.31a21.17,21.17,0,0,0,.22,3.95,14.24,14.24,0,0,0,10.64,11.39,12.91,12.91,0,0,0,2.47.39Z"/><circle class="cls-8" cx="250.79" cy="295.82" r="23.96"/><path class="cls-10" d="M256.94,315.4a25.24,25.24,0,0,0,5.71-3,20.46,20.46,0,0,0,4.84-5,18.79,18.79,0,0,0,2.59-16.3,20.81,20.81,0,0,0-3.05-6.25,25.08,25.08,0,0,0-4.51-4.61s.15.06.4.22a12.11,12.11,0,0,1,1.06.75,17.94,17.94,0,0,1,3.34,3.43,20,20,0,0,1,3.22,6.33,19.62,19.62,0,0,1-7.68,21.72,17.84,17.84,0,0,1-4.24,2.22,13,13,0,0,1-1.24.39A2.49,2.49,0,0,1,256.94,315.4Z"/></g><g id="Money"><path class="cls-6" d="M625.89,142.24a44.26,44.26,0,1,1-48-40A44.22,44.22,0,0,1,625.89,142.24Z"/><g class="cls-9"><path d="M615.3,142.13c-.21,0-.48-1.44-1.25-4a35.59,35.59,0,0,0-4.8-9.95,34.8,34.8,0,0,0-5-5.71,34,34,0,0,0-7.11-5,32.61,32.61,0,0,0-9-3.14,31.87,31.87,0,0,0-5-.58,36.32,36.32,0,0,0-5.2.22,35.56,35.56,0,0,0-5.11,1,33,33,0,0,0-12.74,7,33.41,33.41,0,0,0-9.2,13.24,35.92,35.92,0,0,0-2.28,10.81c-.14,2.64-.06,4.12-.27,4.14s-.57-1.42-.74-4.14a31.51,31.51,0,0,1,1.56-11.41,33.79,33.79,0,0,1,9.34-14.41,33.28,33.28,0,0,1,3.95-3.12,34.48,34.48,0,0,1,9.67-4.53,34.41,34.41,0,0,1,11.12-1.35,34.4,34.4,0,0,1,10.47,2.1,32.4,32.4,0,0,1,4.58,2.08,33.82,33.82,0,0,1,12.51,11.76A31.17,31.17,0,0,1,615,137.93C615.51,140.61,615.45,142.11,615.3,142.13Z"/></g><g class="cls-9"><path d="M587.39,165.89l.61,5.84-5.21.54-.6-5.68c-5.19.22-10.32-.88-13.42-2.83l2.2-6.66a21.17,21.17,0,0,0,10.51,2.65l-.9-8.71c-5.94-.81-12.61-2.07-13.39-9.53-.57-5.53,2.95-10.7,11.1-12.49l-.61-5.79,5.22-.55.59,5.69a23.77,23.77,0,0,1,10.93,2.08l-1.94,6.69a21.58,21.58,0,0,0-8.27-1.88l.92,8.87c5.93.75,12.5,2,13.27,9.38C599,158.94,595.48,164,587.39,165.89Zm-7.61-22.52L579,136c-2.7.91-3.64,2.54-3.46,4.26S577.41,142.88,579.78,143.37ZM590.06,155c-.19-1.83-1.8-2.66-4.13-3.21l.75,7.2C589.23,158.15,590.24,156.68,590.06,155Z"/></g><path class="cls-8" d="M548.21,149.28a1.23,1.23,0,0,1,.07.27c0,.2.08.46.14.79s.13.78.21,1.28a12.58,12.58,0,0,0,.34,1.74,34.13,34.13,0,0,0,4.29,10.38,35.9,35.9,0,0,0,4.83,6.08l1.58,1.43c.27.24.53.5.81.73l.89.66c.61.44,1.19.92,1.83,1.34s1.32.8,2,1.21a34.3,34.3,0,0,0,9.15,3.55,33.42,33.42,0,0,0,20.73-1.91,34.14,34.14,0,0,0,8.35-5.16l1.74-1.55c.56-.53,1-1.11,1.55-1.65l.76-.81c.24-.28.44-.58.67-.87l1.29-1.69a34.9,34.9,0,0,0,3.63-6.86,34,34,0,0,0,2.33-11,13.31,13.31,0,0,0,0-1.77c0-.51,0-.94,0-1.3v-.81a1.1,1.1,0,0,1,0-.27,1.14,1.14,0,0,1,0,.27c0,.21,0,.47.06.8s0,.8.08,1.3a13,13,0,0,1,0,1.79,33.11,33.11,0,0,1-2.18,11.11,34.81,34.81,0,0,1-3.63,7l-1.29,1.73c-.23.29-.43.6-.68.88l-.76.83c-.51.54-1,1.14-1.56,1.67L603.73,172a34.29,34.29,0,0,1-8.46,5.27,33.72,33.72,0,0,1-21,1.94A34.73,34.73,0,0,1,565,175.6l-2-1.23c-.65-.42-1.24-.92-1.85-1.37l-.89-.67c-.29-.23-.55-.5-.83-.74-.53-.5-1.06-1-1.59-1.46a35.53,35.53,0,0,1-4.83-6.2,33,33,0,0,1-4.18-10.53,12.36,12.36,0,0,1-.3-1.75c-.06-.51-.11-.94-.16-1.3s-.06-.59-.09-.8A1.37,1.37,0,0,1,548.21,149.28Z"/><path class="cls-6" d="M563.51,272.76a25.72,25.72,0,1,1-12-34.28A25.7,25.7,0,0,1,563.51,272.76Z"/><g class="cls-9"><path d="M558.26,269.55a11.43,11.43,0,0,1,.56-2.35,20.17,20.17,0,0,0-.22-10.73,19.79,19.79,0,0,0-2.07-4.59,18.36,18.36,0,0,0-1.59-2.21,19,19,0,0,0-4.31-3.82,19.82,19.82,0,0,0-2.65-1.44,20.73,20.73,0,0,0-2.86-1,19.57,19.57,0,0,0-2.89-.54,19.21,19.21,0,0,0-2.83-.09,18.42,18.42,0,0,0-2.71.31,19.49,19.49,0,0,0-4.79,1.54,20,20,0,0,0-3.74,2.32,20.53,20.53,0,0,0-4.36,4.72c-.86,1.27-1.26,2-1.37,2a5.82,5.82,0,0,1,.87-2.29,18.05,18.05,0,0,1,4.18-5.22,19.39,19.39,0,0,1,3.87-2.62,19.78,19.78,0,0,1,5.08-1.79,19.3,19.3,0,0,1,2.9-.38,19.51,19.51,0,0,1,3,.06,20,20,0,0,1,3.12.56,22.1,22.1,0,0,1,3.08,1.08,20.29,20.29,0,0,1,2.87,1.56,20.32,20.32,0,0,1,4.6,4.16,19.55,19.55,0,0,1,1.66,2.41,20.16,20.16,0,0,1,2.09,5,19.82,19.82,0,0,1,.65,4.63,18.14,18.14,0,0,1-1.07,6.61A6,6,0,0,1,558.26,269.55Z"/></g><g class="cls-9"><path d="M537.27,273.09l-1.44,3.09-2.77-1.28,1.4-3a14.43,14.43,0,0,1-5.85-5.41l3.08-2.67a12.24,12.24,0,0,0,4.45,4.45l2.15-4.61c-2.72-2.17-5.68-4.79-3.84-8.74,1.36-2.93,4.66-4.46,9.25-2.93l1.43-3.07,2.76,1.28-1.39,3a13.84,13.84,0,0,1,4.82,4.29l-3,2.76a12.15,12.15,0,0,0-3.56-3.4l-2.18,4.7c2.73,2.14,5.63,4.73,3.82,8.63C545.11,273.06,541.85,274.58,537.27,273.09Zm2.91-13.51,1.82-3.92c-1.62-.35-2.57.18-3,1.09S539.14,258.63,540.18,259.58Zm1.66,8.87c.45-1-.11-1.86-1.11-2.83L539,269.44C540.48,269.77,541.43,269.34,541.84,268.45Z"/></g><path class="cls-8" d="M522.67,253.13c.05,0-.31.81-.8,2.27a20.07,20.07,0,0,0-.91,6.44,20.48,20.48,0,0,0,.6,4.46,20.7,20.7,0,0,0,2,4.76,19.69,19.69,0,0,0,3.49,4.47,19.43,19.43,0,0,0,10.85,5.2,20.22,20.22,0,0,0,5.67-.08,20.82,20.82,0,0,0,4.94-1.48,20.1,20.1,0,0,0,8.29-7.07c.83-1.3,1.22-2.07,1.27-2a2.8,2.8,0,0,1-.25.57,16.1,16.1,0,0,1-.85,1.58,18.91,18.91,0,0,1-4.39,4.93,20.2,20.2,0,0,1-3.89,2.43,21.08,21.08,0,0,1-5,1.55,20.15,20.15,0,0,1-5.82.11,19.71,19.71,0,0,1-11.13-5.33,20.11,20.11,0,0,1-3.56-4.6,20.94,20.94,0,0,1-2-4.9,20.43,20.43,0,0,1-.55-4.55,18.75,18.75,0,0,1,1.09-6.51,15.09,15.09,0,0,1,.7-1.66A2.21,2.21,0,0,1,522.67,253.13Z"/><path class="cls-6" d="M138.91,269.08a42,42,0,1,1-47.57-35.41A41.93,41.93,0,0,1,138.91,269.08Z"/><g class="cls-9"><path d="M128.87,269.53c-.19,0-.52-1.34-1.39-3.69a33.8,33.8,0,0,0-5.06-9.17,32.3,32.3,0,0,0-5-5.14,31.77,31.77,0,0,0-7-4.32,30.73,30.73,0,0,0-4.16-1.55,31.37,31.37,0,0,0-9.32-1.24,34.29,34.29,0,0,0-4.91.48,33.83,33.83,0,0,0-4.78,1.24,32.1,32.1,0,0,0-4.4,1.91,29.83,29.83,0,0,0-3.92,2.46,28.85,28.85,0,0,0-3.38,2.89,32,32,0,0,0-5.08,6.46,33.13,33.13,0,0,0-3,6.56,34,34,0,0,0-1.59,10.35c0,2.51.16,3.91,0,3.94s-.61-1.32-.91-3.89a29.59,29.59,0,0,1,.88-10.88,31.93,31.93,0,0,1,8.08-14.13,32.58,32.58,0,0,1,7.78-5.87,32,32,0,0,1,4.73-2.1,36,36,0,0,1,5.15-1.35,35.44,35.44,0,0,1,5.3-.5,31.37,31.37,0,0,1,5.16.34,30.54,30.54,0,0,1,4.87,1.1,30,30,0,0,1,4.45,1.73,32.15,32.15,0,0,1,12.46,10.48,29.84,29.84,0,0,1,4.58,9.92C129,268.07,129,269.51,128.87,269.53Z"/></g><g class="cls-9"><path d="M103.69,293.48l.88,5.51-4.91.78-.86-5.35c-4.91.48-9.82-.29-12.86-2L87.68,286a20.09,20.09,0,0,0,10.09,2l-1.31-8.2c-5.67-.45-12-1.3-13.17-8.32-.84-5.21,2.23-10.29,9.85-12.41l-.87-5.46,4.91-.79.86,5.36a22.53,22.53,0,0,1,10.45,1.4L107,266a20.4,20.4,0,0,0-7.93-1.36l1.34,8.36c5.66.4,12,1.26,13,8.19C114.28,286.3,111.26,291.32,103.69,293.48ZM95.3,272.56l-1.12-7c-2.5,1-3.31,2.6-3.05,4.22S93,272.21,95.3,272.56ZM105.65,283c-.28-1.72-1.85-2.42-4.08-2.82l1.08,6.78C105,286.07,105.9,284.62,105.65,283Z"/></g><path class="cls-8" d="M65.72,279.8a1.68,1.68,0,0,1,.08.25c0,.2.1.44.17.74s.16.74.27,1.21a11.24,11.24,0,0,0,.42,1.63,32,32,0,0,0,4.61,9.6,33.36,33.36,0,0,0,4.88,5.5L77.72,300c.27.21.53.44.81.64l.88.58c.59.38,1.17.81,1.8,1.17l2,1A32.37,32.37,0,0,0,92,306.32a34.39,34.39,0,0,0,10,.12,34.78,34.78,0,0,0,9.53-3,32.74,32.74,0,0,0,7.64-5.33l1.56-1.56c.5-.52.92-1.1,1.38-1.64l.67-.81c.22-.27.4-.57.59-.85.39-.56.77-1.12,1.14-1.67a33.22,33.22,0,0,0,3.08-6.69,31.84,31.84,0,0,0,1.63-10.52,11,11,0,0,0-.07-1.68q0-.7-.09-1.23c0-.31,0-.56-.05-.76v-.26a1,1,0,0,1,.06.25c0,.21.05.45.09.76s.09.75.15,1.23a11.86,11.86,0,0,1,.12,1.69A31.36,31.36,0,0,1,127.94,285a32.92,32.92,0,0,1-3.06,6.79l-1.14,1.71c-.2.28-.38.59-.6.86l-.67.83c-.46.55-.89,1.14-1.4,1.67l-1.57,1.59a32.74,32.74,0,0,1-7.75,5.43,34.24,34.24,0,0,1-9.68,3.06,34.79,34.79,0,0,1-10.15-.12,32.91,32.91,0,0,1-9-3l-2-1.07c-.64-.36-1.22-.8-1.82-1.19l-.88-.6c-.29-.2-.55-.44-.82-.65l-1.59-1.31a32.74,32.74,0,0,1-4.9-5.61,31.22,31.22,0,0,1-4.5-9.76,11.87,11.87,0,0,1-.38-1.65l-.21-1.22-.13-.75A1,1,0,0,1,65.72,279.8Z"/></g><g id="Floor"><path class="cls-8" d="M666.94,401.31c0,.15-149.31.26-333.45.26S0,401.46,0,401.31s149.28-.26,333.49-.26S666.94,401.17,666.94,401.31Z"/></g><g id="Character"><path class="cls-11" d="M511.48,213.45s-.08-6.66-.36-6.71l-13.68,3c-.14.87-1.87,11.79-1.57,12.85l15.38,4.27S511.48,213.84,511.48,213.45Z"/><path class="cls-11" d="M511.49,225.89s.05-.13.07-.31c.15-1.49.06-8-.74-8.27s-3.11.2-3.26,1.06.37,8.17.37,8.17.15,1.16,2.09,1.44C511.22,228.15,511.49,225.89,511.49,225.89Z"/><path class="cls-11" d="M507.59,228.22a.7.7,0,0,0,.07-.3c.15-1.49.06-8-.74-8.27s-3.11.2-3.26,1.06.37,8.17.37,8.17.15,1.16,2.09,1.44C507.32,230.49,507.59,228.22,507.59,228.22Z"/><path class="cls-11" d="M503.77,229.39s.05-.12.07-.3c.16-1.49.06-8-.73-8.27s-3.11.2-3.27,1.05.37,8.18.37,8.18.16,1.15,2.1,1.43C503.5,231.66,503.77,229.39,503.77,229.39Z"/><path class="cls-11" d="M500,230.49a.79.79,0,0,0,.06-.3c.16-1.49.07-8-.73-8.27s-3.11.19-3.26,1.05.37,8.18.37,8.18.15,1.15,2.09,1.43C499.71,232.75,500,230.49,500,230.49Z"/><path class="cls-12" d="M507.53,220.27a12.71,12.71,0,0,1,.3,3.16,11.61,11.61,0,0,1-.1,3.14,13.34,13.34,0,0,1-.3-3.17A12,12,0,0,1,507.53,220.27Z"/><path class="cls-12" d="M503.7,220.25a25.73,25.73,0,0,1,.36,4.5,25.36,25.36,0,0,1,0,4.51,24.06,24.06,0,0,1-.37-4.5A23.72,23.72,0,0,1,503.7,220.25Z"/><g class="cls-13"><path class="cls-12" d="M499.8,220.57a24.75,24.75,0,0,1,.36,4.5,25.56,25.56,0,0,1,0,4.52,24.75,24.75,0,0,1-.36-4.5A25.51,25.51,0,0,1,499.8,220.57Z"/></g><path class="cls-11" d="M497.35,210.14s-5.41,12.3-4.62,13.06a17.75,17.75,0,0,0,3.33,1.94Z"/><path class="cls-11" d="M467.42,45.19l-4,46-23-1.84c-.14-2.69.05-13.1.05-13.1s-9.59-1.49-9.7-11.07c-.06-4.66.6-14.27,1.3-22.94A17.75,17.75,0,0,1,450.79,26h0A17.73,17.73,0,0,1,467.42,45.19Z"/><path class="cls-12" d="M440.45,76.11A22.23,22.23,0,0,0,453,72.56s-3,6.9-12.52,6Z"/><path class="cls-8" d="M434.63,49A1.36,1.36,0,0,0,436,50.34a1.31,1.31,0,0,0,1.41-1.24A1.38,1.38,0,0,0,436,47.72,1.3,1.3,0,0,0,434.63,49Z"/><path class="cls-8" d="M434.12,47.07c.17.18,1.21-.59,2.68-.58s2.55.74,2.71.56-.09-.41-.56-.75a3.83,3.83,0,0,0-2.17-.67,3.72,3.72,0,0,0-2.14.69C434.19,46.67,434,47,434.12,47.07Z"/><path class="cls-8" d="M449.13,49a1.36,1.36,0,0,0,1.32,1.38,1.31,1.31,0,0,0,1.41-1.24,1.38,1.38,0,0,0-1.32-1.38A1.3,1.3,0,0,0,449.13,49Z"/><path class="cls-8" d="M448.6,47.35c.17.17,1.2-.59,2.68-.59s2.55.74,2.71.56-.09-.4-.57-.74a3.7,3.7,0,0,0-2.17-.67,3.52,3.52,0,0,0-2.13.69C448.67,46.94,448.51,47.27,448.6,47.35Z"/><path class="cls-8" d="M443.25,58.27a9.43,9.43,0,0,0-2.39-.43c-.38,0-.73-.12-.79-.37a1.85,1.85,0,0,1,.25-1.12l1.11-2.86c1.54-4.08,2.66-7.43,2.5-7.49s-1.55,3.19-3.1,7.27c-.37,1-.73,2-1.06,2.88a2.15,2.15,0,0,0-.2,1.48.92.92,0,0,0,.62.54,2.23,2.23,0,0,0,.64.09A10,10,0,0,0,443.25,58.27Z"/><path class="cls-8" d="M447.59,59.29c-.24,0-.25,1.58-1.61,2.71s-3.07,1-3.09,1.19.38.31,1.1.33a4,4,0,0,0,2.57-.9,3.43,3.43,0,0,0,1.25-2.28C447.87,59.67,447.7,59.28,447.59,59.29Z"/><path class="cls-8" d="M448.22,41.57c.14.4,1.61.22,3.34.42s3.13.68,3.35.32c.11-.17-.14-.54-.7-.93a5.51,5.51,0,0,0-2.49-.87,5.59,5.59,0,0,0-2.61.3C448.47,41.07,448.15,41.38,448.22,41.57Z"/><path class="cls-8" d="M434.66,42.81c.26.33,1.28,0,2.5,0s2.25.22,2.49-.13c.1-.17-.06-.5-.51-.82a3.48,3.48,0,0,0-2-.54,3.36,3.36,0,0,0-2,.67C434.69,42.3,434.55,42.65,434.66,42.81Z"/><path class="cls-8" d="M469.48,39.26c-.55,4.66-1.82,10.55-2.19,15.31a2.24,2.24,0,0,1-.34,1.25c-.68.91-2.3,2.87-3.13,2.09-2-1.88-2.81-7.14-3.21-9.87s-.34-5.51-.71-8.25l0-.19a7.58,7.58,0,0,0-2.78-4.86,5.57,5.57,0,0,0-1.13-.6c-2.82-1-7.51.85-10.31,1.87-1.45.53-2.85,1.18-4.26,1.81A9.92,9.92,0,0,1,431.5,37c-1.71-1.23-1.86-5.14-1.11-7.61,2-6.68,10.42-9,21.18-6.42S470.57,29.69,469.48,39.26Z"/><path class="cls-11" d="M464.19,49.53c.16-.07,6.58-2,6.38,4.6s-6.75,5-6.75,4.8S464.19,49.53,464.19,49.53Z"/><path class="cls-12" d="M465.9,56.51s.11.09.3.18a1.18,1.18,0,0,0,.85.05,2.82,2.82,0,0,0,1.39-2.49,3.82,3.82,0,0,0-.27-1.65,1.3,1.3,0,0,0-.83-.9.58.58,0,0,0-.68.29c-.1.18-.06.31-.09.32s-.14-.11-.08-.38a.7.7,0,0,1,.27-.4.86.86,0,0,1,.64-.15,1.62,1.62,0,0,1,1.16,1,3.93,3.93,0,0,1,.34,1.84,3,3,0,0,1-1.76,2.78,1.26,1.26,0,0,1-1-.21C465.9,56.67,465.87,56.53,465.9,56.51Z"/><path class="cls-14" d="M469.37,39.71a10.08,10.08,0,0,1-9.41.17,29.57,29.57,0,0,0,4.72.56A28.67,28.67,0,0,0,469.37,39.71Z"/><path class="cls-14" d="M469.15,41.58a9.31,9.31,0,0,1-9,.17,25.82,25.82,0,0,0,4.52.56A26.86,26.86,0,0,0,469.15,41.58Z"/><path class="cls-8" d="M423.56,368l4.25,19.6s-18.49,10.91-18.06,14.61l38.3-6.88-5.37-30.82Z"/><path class="cls-14" d="M448.05,395.29l-.66-3.09L410.91,400s-1.57,1.05-1.16,2.21Z"/><path class="cls-8" d="M467.12,370.12l.63,20.05s-20.16,7.37-20.41,11.09l38.92.17.3-31.28Z"/><g class="cls-15"><path class="cls-14" d="M486.26,401.43l-.09-3.15-37.28,1s-1.74.75-1.55,2Z"/></g><path class="cls-8" d="M421.46,384.78s-19.95-97.87-20-99.83l35.64-18.84L450.93,381Z"/><path class="cls-8" d="M466.33,388.05,438.78,218.43V181.85l37.65,3.49c.47,1.43,12.8,202.94,12.8,202.94l-3.89-.23h-19"/><polygon class="cls-8" points="417.12 179.26 401.49 284.95 436.42 276.48 450.65 182.7 417.12 179.26"/><path class="cls-14" d="M449.42,188.22s0,.18,0,.52.09.86.16,1.52c.16,1.35.38,3.31.67,5.82.59,5.06,1.49,12.37,2.67,21.4,2.33,18.05,5.87,43,9.67,70.47,1.89,13.76,3.63,26.88,5.11,38.82.39,3,.69,5.9,1.11,8.73s.86,5.55,1.26,8.2c.8,5.29,1.55,10.22,2.23,14.72,1.35,9,2.42,16.29,3.12,21.33.35,2.52.61,4.48.77,5.81.07.66.12,1.17.15,1.51a2.48,2.48,0,0,1,0,.39c0,.11-.06,0-.06,0l0,0s.07,0,.06,0a1.47,1.47,0,0,0,0-.39c0-.34,0-.85-.1-1.52-.12-1.34-.35-3.3-.67-5.83-.65-5.05-1.66-12.34-3-21.35-.67-4.51-1.39-9.44-2.18-14.73-.39-2.65-.81-5.38-1.23-8.2s-.71-5.74-1.09-8.72c-1.46-12-3.19-25.08-5.08-38.84-3.8-27.52-7.39-52.41-9.81-70.45-1.19-9-2.15-16.31-2.82-21.37-.32-2.51-.58-4.47-.75-5.82l-.21-1.51C449.46,188.39,449.42,188.22,449.42,188.22Z"/><path class="cls-14" d="M428.42,383.87s0-.17-.07-.5-.13-.84-.24-1.47c-.22-1.31-.54-3.2-1-5.63-.86-4.9-2.1-12-3.62-20.69-3.12-17.48-7.41-41.59-12.15-68.23a15.82,15.82,0,0,1-.29-4.94c.21-1.63.48-3.29.72-4.91q.75-4.89,1.49-9.62c1-6.3,2-12.38,2.94-18.16,1.92-11.57,3.77-22,5.43-30.67s3.12-15.73,4.23-20.57c.52-2.42,1-4.29,1.29-5.56.15-.62.26-1.1.34-1.44s.1-.5.1-.5-.06.16-.15.48-.22.82-.38,1.44c-.32,1.26-.83,3.12-1.38,5.54-1.17,4.82-2.67,11.84-4.38,20.55s-3.59,19.09-5.54,30.66c-1,5.78-2,11.85-3,18.16-.49,3.15-1,6.36-1.49,9.61-.24,1.64-.51,3.26-.73,4.94a16.44,16.44,0,0,0,.3,5.09c4.8,26.62,9.14,50.72,12.28,68.19,1.59,8.71,2.88,15.77,3.78,20.66.45,2.43.8,4.31,1,5.62.12.62.22,1.11.28,1.45S428.42,383.87,428.42,383.87Z"/><path class="cls-14" d="M438.78,217.24c-.13,0,1.49,11,3.63,24.47s4,24.42,4.11,24.4-1.49-11-3.63-24.48S438.91,217.22,438.78,217.24Z"/><path class="cls-14" d="M466,387.75a3.52,3.52,0,0,0,.91.16c.58.07,1.43.15,2.47.23,2.1.16,5,.32,8.2.37s6.11,0,8.21-.1c1-.05,1.9-.1,2.48-.15a3,3,0,0,0,.91-.13,25.91,25.91,0,0,0-3.4-.06c-2.1,0-5,0-8.19,0s-6.09-.15-8.19-.23A25.51,25.51,0,0,0,466,387.75Z"/><path class="cls-14" d="M421.46,384.78a5.73,5.73,0,0,0,1.17-.06l3.17-.34c2.67-.3,6.35-.76,10.42-1.29s7.75-1,10.41-1.42l3.15-.48a6.26,6.26,0,0,0,1.15-.23,4.52,4.52,0,0,0-1.17.05c-.75.07-1.83.18-3.17.33-2.67.3-6.36.75-10.43,1.28s-7.75,1-10.41,1.42l-3.15.49A4.81,4.81,0,0,0,421.46,384.78Z"/><path class="cls-14" d="M369,116.79l22.47,17.08S412.39,98.22,414.23,96s6.55-4.59,6.55-4.59l-2.6,45.72S406.87,166,391.35,164.42c-11.88-1.2-32.42-32.55-32.42-32.55Z"/><g class="cls-7"><path d="M391.06,133.34a19.72,19.72,0,0,0-2.27,16.43,2.42,2.42,0,0,0,.91,1.45,1.77,1.77,0,0,0,2.25-.75,5.18,5.18,0,0,0,.58-2.53,5.79,5.79,0,0,0,1.66,2.18,2,2,0,0,0,2.53-.09c.74-.82.33-2.12-.11-3.14l-5.75-13"/></g><path class="cls-8" d="M374.66,121.91c.14.09-2.16,4-5.14,8.62s-5.52,8.38-5.66,8.29,2.16-3.95,5.14-8.62S374.52,121.82,374.66,121.91Z"/><path class="cls-8" d="M368.94,121.28c-.06,0,.23-.35.74-.16a.94.94,0,0,1,.06,1.74.94.94,0,0,1-1.4-1c.13-.53.54-.6.55-.52s-.14.25-.12.57.28.66.69.44a.45.45,0,0,0,0-.81C369.23,121.3,369,121.36,368.94,121.28Z"/><path class="cls-8" d="M391.51,144.71c-.15,0-1-2.32-1-5.39s.71-5.47.86-5.42-.3,2.43-.25,5.41S391.68,144.66,391.51,144.71Z"/><path class="cls-8" d="M395.86,144.55c-.14.09-1.61-2.09-2.88-5.05a18.31,18.31,0,0,1-1.7-5.56c.17-.05,1,2.4,2.26,5.32S396,144.46,395.86,144.55Z"/><path class="cls-14" d="M467.79,87.07l-3.4-6.72H439.82L436,88l-15.18,3.43-6.54,97.9a6.87,6.87,0,0,0,.86,3.55h0l59.69,2.29,2.43,1c2.15-1.32.81-6.77.84-9.33l.76-48.49,11.81-38.73Z"/><g class="cls-7"><path d="M442.32,90.46l4.34-4.34q2.44,5.88,4.88,11.77a123.78,123.78,0,0,0,16-11.19L451,92q-2.1-5.57-4.19-11.12a42.29,42.29,0,0,1-4.16,9.62"/></g><path class="cls-14" d="M511.58,209.82l-16.09.83,0-46.17-16.64-26.16,11.81-38.73c2.43,1,20.76,47,25.43,59.48a14.08,14.08,0,0,1,.87,5.64Z"/><path class="cls-8" d="M420.78,111.62c.16,0-.63,9.48-1.79,21.14s-2.22,21.1-2.38,21.09.63-9.48,1.78-21.15S420.61,111.6,420.78,111.62Z"/><path class="cls-8" d="M446.79,80.92a60.31,60.31,0,0,1-2.93,7.87l-.33.79a1.86,1.86,0,0,1-.53.81,1,1,0,0,1-1.07.07,5.76,5.76,0,0,1-.68-.43L439,88.54a9.81,9.81,0,0,1-2-1.51,10,10,0,0,1,2.18,1.15l2.28,1.38c.44.27.88.6,1.08.36a5,5,0,0,0,.67-1.37C445.07,84.27,446.63,80.85,446.79,80.92Z"/><path class="cls-8" d="M466.33,86.91a26.55,26.55,0,0,1-3.75,1.51c-2.35.86-5.6,2-9.2,3.25l-2,.67-.26.09-.11-.26c-1.27-3.07-2.36-5.79-3.12-7.74a20.81,20.81,0,0,1-1.12-3.19,20.3,20.3,0,0,1,1.49,3c.85,1.92,2,4.61,3.3,7.66l-.37-.16,2-.68c3.6-1.23,6.87-2.32,9.25-3.07A26.39,26.39,0,0,1,466.33,86.91Z"/><path class="cls-8" d="M488.1,101c0,.18-3.41,1.11-7.42,2.91s-7,3.72-7.13,3.56a7.78,7.78,0,0,1,1.87-1.42,37.48,37.48,0,0,1,10.37-4.61A7.61,7.61,0,0,1,488.1,101Z"/><path class="cls-8" d="M446.79,80.92a1.11,1.11,0,0,1,0,.29c0,.23,0,.51,0,.86,0,.75.07,1.87.08,3.31,0,2.87,0,7-.18,12.16-.37,10.27-1.65,24.42-3.7,40-1,7.77-2.1,15.16-2.84,21.9a143,143,0,0,0-1,18,90.63,90.63,0,0,0,1,12.09c.17,1.42.4,2.51.51,3.26,0,.35.09.63.13.85a1.34,1.34,0,0,1,0,.3,1.08,1.08,0,0,1-.08-.28c-.05-.23-.12-.5-.19-.84-.15-.75-.42-1.83-.63-3.25a84,84,0,0,1-1.15-12.12,134.8,134.8,0,0,1,.85-18c.71-6.76,1.79-14.15,2.78-21.92,2.05-15.52,3.4-29.64,3.88-39.89.25-5.12.33-9.28.38-12.14,0-1.4,0-2.5,0-3.31,0-.35,0-.63,0-.86A1.11,1.11,0,0,1,446.79,80.92Z"/><path class="cls-8" d="M512.45,202.75c0,.17-3.82.12-8.52-.11s-8.51-.55-8.5-.72,3.82-.12,8.53.11S512.46,202.58,512.45,202.75Z"/><path class="cls-8" d="M498.18,204.55c.05.07,0,.23.05.44s.26.33.47.17.14-.36-.06-.5-.36-.08-.42-.14.11-.34.55-.27a.78.78,0,0,1,.59.46.84.84,0,0,1-1.23,1,.79.79,0,0,1-.33-.68C497.83,204.58,498.15,204.48,498.18,204.55Z"/><g class="cls-7"><path d="M479.06,138.2l-5.25-9.47a130.21,130.21,0,0,0,3.46,49.94l1.62-40.26"/></g><path class="cls-8" d="M452.43,120.8a5.32,5.32,0,0,1,.95-.06l2.8-.07c2.42,0,5.93-.11,10.15-.13h.28l0,.29c-.27,3.69-.58,8-.92,12.54v.17l-.15.07-.62.33-6.8,3.58-.17.09-.15-.13c-2.29-1.87-4.41-3.61-6.31-5.15l-.1-.09v-.12c.3-3.39.54-6.22.73-8.31.09-.91.16-1.65.22-2.25a3.73,3.73,0,0,1,.11-.75,4.91,4.91,0,0,1,0,.86c0,.61-.06,1.37-.11,2.31-.11,2-.27,4.83-.45,8.17l-.1-.21,6.37,5.09-.32,0,6.78-3.59.63-.33-.17.24c.37-4.56.71-8.84,1-12.53l.27.29c-4.11,0-7.55-.09-10-.14l-2.86-.07A8,8,0,0,1,452.43,120.8Z"/><path class="cls-8" d="M422.92,193.34c0,.17-1.26-.06-2.07-1.27s-.55-2.44-.4-2.39.22,1,.91,2S423,193.18,422.92,193.34Z"/><path class="cls-8" d="M424.47,192.7a4.28,4.28,0,0,1-1.68-2.77c-.47-1.81,0-3.29.17-3.24s0,1.44.42,3.09S424.62,192.59,424.47,192.7Z"/><path class="cls-8" d="M469.53,186c.15,0,.29,2.35-.93,4.93s-3.13,4-3.21,3.86,1.52-1.67,2.65-4.12S469.34,186,469.53,186Z"/><path class="cls-11" d="M367.76,118.66S349.58,104.89,347,104c-4.23-1.53-5.24-1.13-5.24-1.13l10,10.75s-10.54,3.55-11.3,4-1.14,2.74,1.42,2.74c2.11,0,12.22.23,12.22.23l8.34,6.09Z"/></g><g id="Speech_Bubble" data-name="Speech Bubble"><path class="cls-8" d="M528.61,0h.6L531,.05c.39,0,.82,0,1.3.06l1.56.22,1.81.26,2,.5a32.93,32.93,0,0,1,9.82,4.29,34.65,34.65,0,0,1,15.93,26.06,35.7,35.7,0,0,1,.1,4.75c-.06.81,0,1.63-.16,2.44s-.24,1.62-.37,2.44a34.83,34.83,0,0,1-3.3,9.67,36.82,36.82,0,0,1-6.32,8.69A36.27,36.27,0,0,1,544.28,66a32.9,32.9,0,0,1-11.1,3.4,20.74,20.74,0,0,1-3,.26,27,27,0,0,1-3,.05,35.06,35.06,0,0,1-17.91-5.77l.36,0-12.15,4.88-.72.29.21-.75q1.85-6.69,3.57-13l.06.32a34.83,34.83,0,0,1-6.48-14.83,31.71,31.71,0,0,1-.47-7.61A24.4,24.4,0,0,1,494,29.6c.1-.59.19-1.19.28-1.78s.28-1.15.42-1.72A34.71,34.71,0,0,1,508.3,6.35a33.11,33.11,0,0,1,8.06-4.26l1.82-.65L519.9,1l1.58-.4c.51-.09,1-.15,1.45-.22.92-.11,1.73-.27,2.43-.31L527.15,0l1.09,0h.37a1.61,1.61,0,0,1-.37,0l-1.09.09-1.77.12c-.7,0-1.5.23-2.41.37a34.53,34.53,0,0,0-27.62,25.62c-.13.56-.3,1.11-.41,1.69s-.17,1.16-.26,1.74a23.6,23.6,0,0,0-.32,3.59,30.9,30.9,0,0,0,.49,7.45,34.34,34.34,0,0,0,6.39,14.52l.11.14,0,.18-3.55,13-.51-.46,12.14-4.88.19-.08.17.11a34.24,34.24,0,0,0,17.51,5.64,26,26,0,0,0,2.93,0,21.39,21.39,0,0,0,2.89-.24,32.4,32.4,0,0,0,10.85-3.32,35.6,35.6,0,0,0,8.91-6.38,36.55,36.55,0,0,0,6.21-8.49A34.39,34.39,0,0,0,562.31,41c.13-.81.25-1.61.37-2.4s.11-1.6.17-2.38a36.24,36.24,0,0,0-.08-4.67A34.37,34.37,0,0,0,547.26,5.75a33,33,0,0,0-9.67-4.36l-2-.53-1.8-.3L532.25.31c-.47-.06-.91-.07-1.29-.1L529.21.08A2.53,2.53,0,0,1,528.61,0Z"/><path class="cls-8" d="M540,43.1l-.41,0-1.18,0-4.37.07-14.68.13h-.11l0-.12c-.12-.78-.24-1.6-.36-2.43-1-7.11-1.92-13.46-2.51-17.61l.09.08-3.91,0h-1a1.65,1.65,0,0,1-.36,0l.36,0,1,0,3.91-.07h.07v.08c.62,4.14,1.56,10.49,2.62,17.59.12.83.24,1.65.35,2.43l-.14-.12,14.68,0,4.37,0h1.18Z"/><path class="cls-8" d="M519.69,43.51l0,0h-.49l-.08-.49,0,0h0l0-.12-.29-2L516.28,23.4l-4.76,0c-.42,0-.48,0-.48-.15v0l0,0s0-.05.44-.07l1,0,3.67-.06v-.09l.1.09h.34l0,.18a1,1,0,0,0,0,.16l.1.09h-.09c.62,4.14,1.55,10.38,2.58,17.34l.32,2.21,14.45,0,5.55,0c.47,0,.53,0,.53.15s0,.13-.53.15l-1.18,0-4.37.07-14.37.13Zm0-.3v0l3.9,0Zm-1.3-7.09,1,6.84h0L519,40.79C518.81,39.19,518.57,37.63,518.35,36.12Z"/><path class="cls-8" d="M518.76,39s0,0,.11,0l.3,0,1.18,0,4.42-.06L540,38.69l-.13.11c.44-2.56.91-5.34,1.4-8.21.25-1.48.5-2.93.73-4.31l.14.16-18,.06h-5.31l-1.43,0h-.37l.37,0,1.43,0,5.31-.07,18-.15h.16l0,.17c-.23,1.38-.48,2.83-.73,4.31-.49,2.87-1,5.64-1.41,8.21l0,.11H540l-15.22,0-4.42,0h-1.59Z"/><path class="cls-8" d="M524.77,39.12l-5.91,0c-.11,0-.22,0-.22-.14s.11-.13.22-.14l1.49,0,4.41-.06,15-.14,1.36-8c.24-1.37.47-2.71.69-4l-17.64.05-7.12,0c-.13,0-.24,0-.24-.14s.11-.13.24-.14l1.81,0,5.31-.07L541.91,26V26l0,.05h.48l-.08.48,0,0h0l-2.05,12h0l-.05,0-.08.48h-.49l0,0v0Zm15-.3-2.22,0Zm2.34-12.26c-.22,1.31-.45,2.67-.69,4.05l-1.35,8h0l2.06-12Zm-.2-.27-4.4,0h4.39Z"/><path class="cls-8" d="M524.58,48.79a4.29,4.29,0,0,1-.12-.49,2.12,2.12,0,0,0-.77-1.07,2,2,0,0,0-1.85-.24,1.94,1.94,0,0,0,0,3.63,2,2,0,0,0,1.85-.26,2.13,2.13,0,0,0,.75-1.08,4.29,4.29,0,0,1,.12-.49,1.1,1.1,0,0,1,0,.52,2.08,2.08,0,0,1-.74,1.2,2.14,2.14,0,0,1-2.05.35,2.18,2.18,0,0,1,0-4.11,2.13,2.13,0,0,1,2.06.33,2,2,0,0,1,.75,1.19A1.23,1.23,0,0,1,524.58,48.79Z"/><path class="cls-8" d="M522.48,51.11a2.22,2.22,0,0,1-.74-.13,2.3,2.3,0,1,1,2.15-4,2.15,2.15,0,0,1,.79,1.27,1.47,1.47,0,0,1,0,.54,2,2,0,0,1,0,.54,2.17,2.17,0,0,1-.78,1.28A2.29,2.29,0,0,1,522.48,51.11Zm-.43-4.32a1.21,1.21,0,0,0-.25.08,2.05,2.05,0,0,0,0,3.87l.25.08-.25-.08a2.06,2.06,0,0,1,0-3.87Zm.48.19a1.9,1.9,0,0,0-.64.12,1.82,1.82,0,0,0,0,3.41,1.86,1.86,0,0,0,1.73-.25,2,2,0,0,0,.71-1,2.16,2.16,0,0,0,.08-.38s0,0,0-.08,0-.06,0-.09,0-.2-.08-.36a2,2,0,0,0-.72-1A1.91,1.91,0,0,0,522.53,47Z"/><path class="cls-8" d="M537.85,48.71s0-.18-.12-.49a2,2,0,0,0-.76-1.07,1.95,1.95,0,1,0-1.83,3.4,2,2,0,0,0,1.85-.27,2.13,2.13,0,0,0,.75-1.08c.09-.3.09-.49.11-.49a.9.9,0,0,1,0,.52,2.08,2.08,0,0,1-.74,1.2,2.17,2.17,0,0,1-2.05.36,2.21,2.21,0,0,1-1.47-2A2.18,2.18,0,0,1,535,46.67a2.13,2.13,0,0,1,2.06.33,2,2,0,0,1,.75,1.19C537.9,48.53,537.87,48.71,537.85,48.71Z"/><path class="cls-8" d="M535.76,51a2.18,2.18,0,0,1-.74-.13,2.3,2.3,0,0,1-1.56-2.16A2.33,2.33,0,0,1,535,46.55a2.3,2.3,0,0,1,2.18.35,2.15,2.15,0,0,1,.79,1.27,1.47,1.47,0,0,1,0,.54,1.94,1.94,0,0,1,0,.54,2.17,2.17,0,0,1-.78,1.28A2.31,2.31,0,0,1,535.76,51Zm-.44-4.31a1.09,1.09,0,0,0-.24.07,2.08,2.08,0,0,0-1.37,1.94,2.1,2.1,0,0,0,1.38,1.94l.29.08a1.52,1.52,0,0,1-.28-.09,2.06,2.06,0,0,1,0-3.87Zm.49.19a1.68,1.68,0,0,0-.64.12,1.82,1.82,0,0,0-1.18,1.7,1.83,1.83,0,0,0,2.92,1.45,2,2,0,0,0,.71-1,2.09,2.09,0,0,0,.08-.37s0-.06,0-.09,0-.06,0-.08a3.22,3.22,0,0,0-.08-.37,2,2,0,0,0-.72-1A1.84,1.84,0,0,0,535.81,46.91Z"/></g></g></svg>