<svg id="Layer_1" data-name="Layer 1" xmlns="http://www.w3.org/2000/svg" viewBox="0 0 96.39 96.39"><defs><style>.cls-1{fill:none;}.cls-2{fill:#004c76;fill-rule:evenodd;}</style></defs><g id="Layer_2" data-name="Layer 2"><g id="Capa_1" data-name="Capa 1"><rect class="cls-1" width="96.39" height="96.39"/><path class="cls-2" d="M66.93,38.9,59.61,52.83A.43.43,0,0,1,59,53a.39.39,0,0,1-.18-.18L51.53,38.9a.43.43,0,0,0-.38-.22H47.61a.32.32,0,0,0-.32.3.29.29,0,0,0,0,.16L58.86,60.71a.42.42,0,0,0,.57.17.46.46,0,0,0,.17-.17L71.13,39.14a.31.31,0,0,0-.12-.42.29.29,0,0,0-.16,0H67.3a.4.4,0,0,0-.37.22"/><path class="cls-2" d="M71.08,57.48l7.31-13.92a.44.44,0,0,1,.6-.17.46.46,0,0,1,.17.17l7.32,13.92a.44.44,0,0,0,.38.23h3.53a.32.32,0,0,0,.32-.32.42.42,0,0,0,0-.15L79.15,35.67a.43.43,0,0,0-.59-.16.41.41,0,0,0-.16.16L66.88,57.24a.32.32,0,0,0,.13.43.28.28,0,0,0,.15,0H70.7a.43.43,0,0,0,.38-.23"/><path class="cls-2" d="M21.1,49a4.78,4.78,0,0,0,2.48-4.45c0-3.47-2.7-5.82-6.52-5.82H6.1a.42.42,0,0,0-.43.41h0V60.51a.43.43,0,0,0,.43.43H16.58c5.25,0,8-2.26,8-6.68A5.26,5.26,0,0,0,21.1,49M9.78,41.9h6.5c2.4,0,3.62,1,3.62,2.91s-1.22,2.91-3.62,2.91H9.78a.42.42,0,0,1-.42-.42v-5a.42.42,0,0,1,.42-.42m6.59,15.81H9.78a.42.42,0,0,1-.43-.41h0v-5.9A.42.42,0,0,1,9.78,51h6.59c3.14,0,4.55.89,4.55,3.38s-1.38,3.38-4.55,3.38"/><path class="cls-2" d="M43.59,49a4.78,4.78,0,0,0,2.48-4.45c0-3.47-2.7-5.82-6.52-5.82h-11a.42.42,0,0,0-.43.41h0V60.51a.43.43,0,0,0,.43.43H39.07c5.25,0,8-2.26,8-6.68A5.26,5.26,0,0,0,43.59,49M32.27,41.9h6.5c2.4,0,3.62,1,3.62,2.91s-1.22,2.91-3.62,2.91h-6.5a.42.42,0,0,1-.42-.42v-5a.42.42,0,0,1,.42-.42m6.59,15.81H32.27a.42.42,0,0,1-.43-.41h0v-5.9a.42.42,0,0,1,.42-.42h6.6c3.14,0,4.55.89,4.55,3.38S42,57.71,38.86,57.71"/></g></g></svg>