<svg id="Layer_1" data-name="Layer 1" xmlns="http://www.w3.org/2000/svg" viewBox="0 0 96.39 96.39"><defs><style>.cls-1{fill:#011f7c;}.cls-2{fill:none;}.cls-3{fill:#ffe200;}</style></defs><circle class="cls-1" cx="48.19" cy="48.19" r="28.41"/><rect class="cls-2" width="96.39" height="96.39"/><path class="cls-3" d="M48.19,12.86A35.34,35.34,0,1,0,83.53,48.19,35.33,35.33,0,0,0,48.19,12.86Zm7.18,17a4.34,4.34,0,0,1,0,8.68,4.34,4.34,0,0,1,0-8.68ZM41,29.88a4.34,4.34,0,1,1-4.35,4.28A4.36,4.36,0,0,1,41,29.88Zm4.34,36.53c.94-3.27,1.85-6.47,2.76-9.67h.16c.91,3.2,1.82,6.4,2.76,9.68Zm20.06-10H62.56l2.86,10.07h-3.7c-2,0-2,0-2.58-1.91-.71-2.46-1.42-4.91-2.1-7.37a.88.88,0,0,0-1-.76c-1.94,0-1.94,0-2.69,2-.07-.06-.16-.09-.17-.15-.66-2.38-1.34-4.74-1.94-7.13a1.32,1.32,0,0,1,.39-1C54,47.75,56.42,45.36,58.83,43c.21-.21.41-.43.77-.82-1.4,0-2.56,0-3.71,0a1.77,1.77,0,0,0-1,.5c-1.59,1.55-3.15,3.13-4.72,4.7a3.61,3.61,0,0,1-3.93,0c-1.58-1.56-3.13-3.15-4.74-4.68a2,2,0,0,0-1.18-.51c-1.09-.07-2.18,0-3.5,0,.33.36.52.6.74.82,2.41,2.4,4.83,4.8,7.23,7.23.22.22.48.64.41.89-.64,2.55-1.36,5.08-2.21,7.62-.63-2-1.25-4.11-2-6.44-.19.57-.31.9-.4,1.22C39.4,57.55,38.16,61.62,37,65.71a.92.92,0,0,1-1.07.8c-1.6-.05-3.2,0-4.92,0,1.92-7.22,3.8-14.28,5.71-21.48H25.19c1-1.93,1.84-3.72,2.79-5.48.12-.22.69-.3,1-.3H54.4c4.32,0,8.64,0,13,0a1.3,1.3,0,0,1,1.39.87c.75,1.62,1.58,3.2,2.45,5h-10C62.59,48.86,64,52.55,65.42,56.42Z"/><path class="cls-3" d="M48.18,39.62a3.58,3.58,0,0,0-3.55,3.54,3.57,3.57,0,0,0,7.13.07A3.6,3.6,0,0,0,48.18,39.62Z"/></svg>