<svg id="Layer_1" data-name="Layer 1" xmlns="http://www.w3.org/2000/svg" viewBox="0 0 96.39 96.39"><defs><style>.cls-1{fill:none;}.cls-2{fill:#18407d;}.cls-3{fill:#8d5c1e;}</style></defs><rect class="cls-1" width="96.39" height="96.39"/><path class="cls-2" d="M51.06,54.18c.5.25,1,.51,1.53.75a8.75,8.75,0,0,0,3,.74,14.78,14.78,0,0,0,5-.51c.08,0,.21-.14.2-.21,0-.93-.11-1.85-.18-2.8-.44.13-.83.26-1.23.37a7.73,7.73,0,0,1-4,.12,3.91,3.91,0,0,1-2.88-2.56,4.85,4.85,0,0,1,.52-4.49,4.15,4.15,0,0,1,3.36-1.81,7.61,7.61,0,0,1,3.86.85,1,1,0,0,0,.26.1c0-.34.07-.65.1-1,.07-.56.12-1.12.19-1.68,0-.3,0-.45-.35-.54a14.37,14.37,0,0,0-4.61-.61,9.69,9.69,0,0,0-4.33,1.19c-.19.11-.37.24-.58.38A20.57,20.57,0,0,1,72.27,27.92c11.48.85,18,10,18.88,17.07a5,5,0,0,0-5.78,1.14v-.41c0-1.74,0-3.48,0-5.22,0-.3-.08-.4-.39-.4-1,0-2,0-3,0-.3,0-.38.09-.38.39v14.6c0,.28.08.37.36.36q1.42,0,2.85,0c.23,0,.32-.07.31-.31,0-.47,0-.93,0-1.5a4,4,0,0,0,2.17,1.79,5,5,0,0,0,2.79.13,20.75,20.75,0,0,1-39-1.38Zm28.78,1.25c0-.12,0-.19,0-.26V45.11c0-.25-.08-.33-.33-.33-1,0-2,0-3,0-.3,0-.38.1-.38.39,0,1.32,0,2.65,0,4A9,9,0,0,1,76,50.7a2.05,2.05,0,0,1-2.39,1.89,1.31,1.31,0,0,1-1-.64,3.19,3.19,0,0,1-.42-1.81c0-1.67,0-3.35,0-5,0-.19,0-.34-.26-.33H68.62c-.21,0-.28.08-.28.29,0,.7,0,1.4,0,2.11,0,1.7,0,3.41.08,5.12a3.48,3.48,0,0,0,1.08,2.29,3.84,3.84,0,0,0,2.74,1.09,4.36,4.36,0,0,0,3.57-1.31,8.9,8.9,0,0,0,.66-.87v1.92ZM62.35,47.78c0,2.44,0,4.87,0,7.31,0,.27.07.37.36.36,1,0,2,0,3.07,0,.28,0,.37-.06.37-.35V40.46c0-.29-.1-.36-.37-.36-1,0-2,0-3,0-.32,0-.42.09-.42.41C62.36,42.94,62.35,45.36,62.35,47.78Z"/><path class="cls-2" d="M43.45,55.64H41.78l-.09-1.7c-.09,0-.14.05-.15.07a4.14,4.14,0,0,1-5.45,1.41A4.37,4.37,0,0,1,34,53.15a6.61,6.61,0,0,1,0-5.18,4.47,4.47,0,0,1,4.86-2.82,3.5,3.5,0,0,1,2.53,1.51c0-.22,0-.33,0-.45,0-1.78,0-3.56,0-5.35,0-.3.1-.39.38-.37s.71,0,1.06,0,.46,0,.46.44V54.07C43.39,54.58,43.43,55.09,43.45,55.64Zm-2-5.2h0c0-.43,0-.86,0-1.28A2.65,2.65,0,0,0,40,46.89a3,3,0,0,0-4.26,2,5.5,5.5,0,0,0,0,3.31,3,3,0,0,0,2.46,2.2,2.9,2.9,0,0,0,3.31-2.81C41.48,51.18,41.47,50.81,41.47,50.44Z"/><path class="cls-2" d="M15.88,43.16A7.31,7.31,0,0,0,12,42.64a5.22,5.22,0,0,0-3.3,1.57,5.53,5.53,0,0,0-1.42,3.15,7.65,7.65,0,0,0,.14,3A4.78,4.78,0,0,0,11,54.08a7.58,7.58,0,0,0,4.82-.27l.14,0c.11.43.23.85.32,1.27a.29.29,0,0,1-.12.24,11.13,11.13,0,0,1-1.47.42,10.72,10.72,0,0,1-3.44.12,6.7,6.7,0,0,1-4.59-2.55,7,7,0,0,1-1.31-3.39,8.78,8.78,0,0,1,.39-4.13A6.6,6.6,0,0,1,8.3,42.36a7.87,7.87,0,0,1,3.64-1.27,10,10,0,0,1,4.09.44c.27.08.32.21.23.46S16,42.76,15.88,43.16Z"/><path class="cls-2" d="M31.49,53.94c.1.35.2.69.29,1,0,.16,0,.26-.18.34a8.94,8.94,0,0,1-2.9.56,6.18,6.18,0,0,1-2.48-.36,4.4,4.4,0,0,1-2.78-3,6.46,6.46,0,0,1,.36-4.73,4.36,4.36,0,0,1,3.05-2.54,4.39,4.39,0,0,1,4,.77,4.22,4.22,0,0,1,1.23,1.92,6.38,6.38,0,0,1,.31,2.42c0,.47,0,.47-.5.47H25.48c-.49,0-.49,0-.45.5a3.2,3.2,0,0,0,1.49,2.58,3.57,3.57,0,0,0,1.85.52,7.37,7.37,0,0,0,2.87-.4C31.31,54,31.4,54,31.49,53.94Zm-3.67-4.43h2.47c.27,0,.37-.12.32-.37a7.41,7.41,0,0,0-.24-1.06,2.53,2.53,0,0,0-3.61-1.4,3.29,3.29,0,0,0-1.69,2.49c-.05.27,0,.34.29.34Z"/><path class="cls-2" d="M17.89,45.36c.53,0,1,0,1.46,0,.07,0,.18.16.19.25,0,.46.06.93.08,1.4,0,.09,0,.18,0,.37.19-.33.31-.58.46-.81a2.9,2.9,0,0,1,2.66-1.47c.26,0,.39.08.37.37s0,.74,0,1.12c0,.19,0,.28-.27.26a2.49,2.49,0,0,0-2.76,1.82A4.66,4.66,0,0,0,19.87,50c0,1.74,0,3.49,0,5.24v.39c-.59,0-1.15,0-1.71,0-.06,0-.17-.17-.17-.26,0-1.16,0-2.32,0-3.49,0-1.91,0-3.82,0-5.72C18,45.91,17.91,45.66,17.89,45.36Z"/><path class="cls-2" d="M85.34,50a2.92,2.92,0,0,1,1-2.16,2.18,2.18,0,0,1,2.9.22,3.39,3.39,0,0,1-.2,4.29A2.16,2.16,0,0,1,85.93,52,3.36,3.36,0,0,1,85.34,50Z"/><path class="cls-2" d="M47.27,45.36v.39q0,4.76,0,9.51c0,.33-.09.42-.41.4a9,9,0,0,0-1.16,0c-.29,0-.32-.13-.32-.37,0-2.22,0-4.44,0-6.66,0-1,0-2,0-2.94,0-.24.06-.35.32-.34C46.21,45.37,46.71,45.36,47.27,45.36Z"/><path class="cls-3" d="M45.13,42.19A1.18,1.18,0,0,1,46.32,41a1.17,1.17,0,1,1,0,2.34A1.14,1.14,0,0,1,45.13,42.19Z"/></svg>