<svg id="Layer_1" data-name="Layer 1" xmlns="http://www.w3.org/2000/svg" viewBox="0 0 96.39 96.39"><defs><style>.cls-1,.cls-3{fill:none;}.cls-2{fill:#011f7c;}.cls-3{stroke:#011f7c;stroke-miterlimit:10;}.cls-4{fill:#fff;}</style></defs><rect class="cls-1" width="96.39" height="96.39"/><rect class="cls-2" x="12.75" y="12.75" width="70.89" height="70.89" rx="8.31"/><rect class="cls-3" x="9.21" y="9.21" width="77.98" height="77.98" rx="8.31"/><circle class="cls-2" cx="48.19" cy="48.19" r="23.79"/><path class="cls-4" d="M48.19,18.6a29.6,29.6,0,1,0,29.6,29.59A29.59,29.59,0,0,0,48.19,18.6Zm6,14.25a3.64,3.64,0,1,1-3.63,3.67A3.68,3.68,0,0,1,54.2,32.85Zm-12,0a3.64,3.64,0,1,1-3.63,3.59A3.66,3.66,0,0,1,42.18,32.85Zm3.64,30.61c.78-2.75,1.55-5.43,2.31-8.11h.14C49,58,49.79,60.7,50.58,63.46Zm16.8-8.37H60.23l2.39,8.43h-3.1c-1.69,0-1.7,0-2.16-1.6-.59-2.06-1.19-4.12-1.76-6.18a.74.74,0,0,0-.85-.63c-1.63,0-1.63,0-2.25,1.67-.06-.05-.14-.08-.15-.13-.55-2-1.12-4-1.62-6a1.06,1.06,0,0,1,.33-.82c2-2,4-4,6-6.06l.64-.69c-1.18,0-2.14,0-3.11,0a1.44,1.44,0,0,0-.83.42c-1.34,1.3-2.64,2.62-4,3.93a3,3,0,0,1-3.29,0c-1.33-1.31-2.63-2.64-4-3.92a1.68,1.68,0,0,0-1-.43c-.91-.06-1.83,0-2.94,0,.28.31.45.51.63.69,2,2,4.05,4,6.05,6.06a1,1,0,0,1,.35.74c-.54,2.14-1.14,4.26-1.85,6.39-.53-1.72-1.05-3.44-1.65-5.4l-.34,1c-1,3.41-2.06,6.82-3.06,10.24a.78.78,0,0,1-.91.68c-1.33,0-2.68,0-4.11,0l4.78-18H28.93c.81-1.62,1.54-3.12,2.33-4.59.11-.19.58-.25.88-.25,7.08,0,14.17,0,21.25,0,3.62,0,7.24,0,10.86,0a1.09,1.09,0,0,1,1.17.73c.62,1.35,1.31,2.68,2,4.15h-8.4Z"/><path class="cls-4" d="M48.19,41a3,3,0,1,0,3,3A3,3,0,0,0,48.19,41Z"/></svg>