<svg id="Layer_1" data-name="Layer 1" xmlns="http://www.w3.org/2000/svg" xmlns:xlink="http://www.w3.org/1999/xlink" viewBox="0 0 96.39 96.39"><defs><style>.cls-1{fill:#011f7c;}.cls-2{fill:none;}.cls-3{fill:#fff;}.cls-4{fill:url(#linear-gradient);}.cls-5{fill:#ffef00;}.cls-6{fill:#fde100;}.cls-7{fill:url(#linear-gradient-2);}</style><linearGradient id="linear-gradient" x1="48.22" y1="14.55" x2="48.22" y2="51.56" gradientUnits="userSpaceOnUse"><stop offset="0" stop-color="#ffef00"/><stop offset="1" stop-color="#fff"/></linearGradient><linearGradient id="linear-gradient-2" x1="47.25" y1="14.55" x2="47.25" y2="51.56" xlink:href="#linear-gradient"/></defs><rect class="cls-1" x="7.23" y="7.23" width="81.93" height="81.93"/><rect class="cls-2" width="96.39" height="96.39"/><path class="cls-3" d="M10.8,74.54a8.44,8.44,0,0,1-2.75-6.66q0-19.71,0-39.42c0-6.06,0-12.13,0-18.2A2.87,2.87,0,0,1,8.35,9a1.72,1.72,0,0,1,1.72-.79H80.24a8,8,0,0,1,5.3,1.77,7.39,7.39,0,0,1,2.79,5.91q0,12.32,0,24.63V74.12c0,.14,0,.28,0,.41-.35,3.5,0,7-.15,10.5,0,.43,0,.86,0,1.29a1.73,1.73,0,0,1-1.92,1.89c-.1,0-.2,0-.3,0H10c-1.36,0-2-.62-2-2,0-1.9,0-3.81,0-5.71,0-1.3,0-2.59,0-3.89,0-1.45.61-2.07,2.07-2.1Zm76,.22V74.1q0-29,0-58a7.4,7.4,0,0,0-.18-1.63,6.18,6.18,0,0,0-6.33-4.68q-34.93.06-69.87,0c-.23,0-.46,0-.74,0,0,.28,0,.51,0,.74,0,6.22,0,12.45,0,18.67q0,19.44,0,38.88a8.73,8.73,0,0,0,.12,1.7A6.06,6.06,0,0,0,16,74.74l45.83,0h25Zm-.24,11.85V76.21H9.66v10.4Z"/><path class="cls-4" d="M48.76,14.44c7.13.31,13.28,3.39,17.18,10.14,5,8.55,2,18.83-5.82,24.3a20,20,0,0,1-12.43,3.69c-7.16-.28-12.94-3.28-16.81-9.4a18.25,18.25,0,0,1,4.64-24.43A21.48,21.48,0,0,1,48.76,14.44ZM54.6,29.88c-.23.25-.36.4-.49.53C52.55,32,51,33.51,49.45,35.08a.86.86,0,0,0-.26.63c.39,1.54.83,3.07,1.26,4.6,0,0,.07.06.11.1.48-1.3.48-1.28,1.74-1.29a.57.57,0,0,1,.65.49c.44,1.59.9,3.18,1.36,4.76.35,1.24.35,1.24,1.66,1.24h2.39l-1.85-6.5h1.85l-2.75-7.36h6.48c-.56-1.13-1.1-2.15-1.58-3.2a.82.82,0,0,0-.9-.55c-2.78,0-5.57,0-8.36,0-5.46,0-10.92,0-16.38,0-.23,0-.59,0-.67.2-.62,1.13-1.18,2.29-1.8,3.54h7.41c-1.23,4.64-2.44,9.2-3.68,13.86,1.11,0,2.14,0,3.17,0A.59.59,0,0,0,40,45.1c.78-2.64,1.58-5.27,2.37-7.9.06-.21.14-.42.26-.79l1.27,4.16c.55-1.64,1-3.27,1.42-4.92a.79.79,0,0,0-.26-.57c-1.55-1.57-3.11-3.11-4.67-4.67-.14-.14-.27-.29-.48-.53.85,0,1.56,0,2.26,0a1.22,1.22,0,0,1,.76.32c1,1,2,2,3.06,3a2.34,2.34,0,0,0,2.54,0c1-1,2-2,3-3a1.09,1.09,0,0,1,.64-.32C53,29.86,53.7,29.88,54.6,29.88ZM45.41,24.8a2.8,2.8,0,1,0-2.83,2.78A2.82,2.82,0,0,0,45.41,24.8Zm9.25,0A2.78,2.78,0,0,0,51.87,22a2.8,2.8,0,0,0,0,5.6A2.77,2.77,0,0,0,54.66,24.79ZM47.3,39.31h-.1l-1.79,6.25h3.67Zm17.83-9.67a6.87,6.87,0,0,0,2.49.17C67.42,29.39,66,29.28,65.13,29.64Zm2.87,5a2.69,2.69,0,0,0-2.51.06A9.53,9.53,0,0,0,68,34.64Zm-3.77-8.09c.17.37,1.8.5,2.47.19A3.42,3.42,0,0,0,64.23,26.55Zm1-2.73a3.34,3.34,0,0,0-2.51-.25C62.9,24,64.15,24.09,65.21,23.82Zm-.08,13.77c.7.27,2.25.17,2.43-.15A3.47,3.47,0,0,0,65.13,37.59Zm-1.82-13.1-.05.3a5.81,5.81,0,0,0,2.49,0C65,24.3,64.13,24.55,63.31,24.49Zm-2-2.84a3.62,3.62,0,0,0,2.45.18C63,21.3,62.1,21.59,61.27,21.65Zm2.4,23.73c-1.32-.28-2.17-.18-2.34.22A6.09,6.09,0,0,0,63.67,45.38ZM59.36,19.65c.76.55,1.61.25,2.44.22C61,19.32,60.19,19.63,59.36,19.65Zm-1.19-1c.75.61,1.61.28,2.43.26C59.85,18.31,59,18.64,58.17,18.64ZM57.25,17A3.07,3.07,0,0,0,55,16.68C55.68,17.22,56.48,16.94,57.25,17ZM68.12,32.52a8.2,8.2,0,0,0-2.66,0A3.19,3.19,0,0,0,68.12,32.52Zm-2.35,9.81c-1.33-.2-2.27-.1-2.46.25A3.33,3.33,0,0,0,65.77,42.33Zm-.46-11.84c.2.37,1.79.46,2.46.19C67.55,30.39,66.49,30.31,65.31,30.49Zm2,7.92c-.94-.22-2.24-.11-2.42.2C65.84,38.83,67.16,38.72,67.33,38.41Zm-2-1.78a3.71,3.71,0,0,0,2.43-.16C67,36.21,65.51,36.31,65.34,36.63Zm-.8-9.14c.25.41,1.64.52,2.51.2A5.84,5.84,0,0,0,64.54,27.49Zm2.83,1.33c-.19-.42-1.81-.53-2.48-.16A7.34,7.34,0,0,0,67.37,28.82Zm-1.78,4.62,0,.23H68v-.21A10,10,0,0,0,65.59,33.44ZM62,22.59c.21.38,1.31.5,2.46.28C64.28,22.48,63.13,22.35,62,22.59ZM63.81,41.5c1.37.28,2.23.19,2.43-.21A7,7,0,0,0,63.81,41.5Zm1.65-9.81H68A3,3,0,0,0,65.46,31.69Zm-1.22,8.82c1.11.3,2.24.19,2.43-.21A7.26,7.26,0,0,0,64.24,40.51ZM67,39.4c-.91-.24-2.28-.12-2.39.22C65.85,39.8,66.8,39.72,67,39.4Zm-.77-13.59c-.24-.36-1.45-.47-2.47-.25C64,25.91,65,26,66.26,25.81Zm-.8,9.64c.64.44,2.27.34,2.43,0Zm-1,8.86c-1.21-.19-2.16-.09-2.39.24C63.26,44.74,64.23,44.64,64.45,44.31Zm-1.71-.76c1,.21,2.15.11,2.38-.2C64.13,43.14,63,43.24,62.74,43.55Zm-2.44-23a2.81,2.81,0,0,0,2.62.24C62,20.35,61.21,20.62,60.3,20.52Zm.12,26a4.33,4.33,0,0,0,2.34-.17C62,46.32,61.16,46.05,60.42,46.5Zm-1,1c.77,0,1.58.32,2.29-.2C61,47.32,60.16,47,59.45,47.47Zm1,.81c-.77,0-1.59-.31-2.29.22C59,48.46,59.78,48.78,60.5,48.28ZM59.16,18a2.77,2.77,0,0,0-2.47-.28C57.49,18.22,58.29,17.91,59.16,18Zm0,31.24c-1.74-.14-2-.1-2.38.32C57.56,49.44,58.33,49.76,59.17,49.24Zm-4.07,1,0,.27c.66-.1,1.37.19,2-.41Zm-2.66,1.1,0,.23,1.81-.27,0-.21Z"/><path class="cls-5" d="M80.2,67c.19.89.16.94-.62.94Q48.2,68,16.8,68c-.27,0-.66.15-.69-.38s.08-.57.52-.57c1.41,0,2.83,0,4.24,0H80.2Z"/><path class="cls-5" d="M52.27,59.43V65H51.15V55.79c.69,0,1.37,0,2.05,0,.16,0,.32.2.44.34,1.54,1.79,3.07,3.58,4.61,5.36.12.15.26.29.49.55,0-.33,0-.53,0-.73,0-1.64,0-3.29,0-4.94,0-.44.1-.63.59-.63s.59.19.59.63q0,4,0,8.06c0,.47-.13.6-.62.66A3.2,3.2,0,0,1,56,63.6c-.94-1.34-2.1-2.53-3.17-3.79l-.39-.43Z"/><path class="cls-5" d="M25.68,65.09c-1.06,0-2.1,0-3.13,0-.14,0-.33-.19-.39-.34a8.43,8.43,0,0,1-.44-1.22.54.54,0,0,0-.6-.42c-.92,0-1.85,0-2.77,0a.89.89,0,0,0-.54.39,3.12,3.12,0,0,0-.29.7c-.38,1-.45,1-1.63.81,0-.17.09-.33.15-.49,1-2.72,2.08-5.43,3.09-8.15.16-.43.35-.63.84-.6.68,0,1.37,0,2.06,0a.68.68,0,0,1,.51.32c1.07,2.91,2.1,5.83,3.14,8.75A1.43,1.43,0,0,1,25.68,65.09Zm-7.37-2.94h2.91l-1.34-4-.14,0Z"/><path class="cls-5" d="M70.64,65c.73-1.91,1.43-3.76,2.13-5.61.4-1,.81-2.08,1.19-3.14a.64.64,0,0,1,.72-.51c.7,0,1.41,0,2.12,0a.74.74,0,0,1,.55.36c1.05,2.87,2.07,5.75,3.1,8.63a1.29,1.29,0,0,1,0,.29c-1.09,0-2.14,0-3.19,0-.11,0-.23-.12-.31-.21a.81.81,0,0,1-.11-.27c-.56-1.5-.56-1.5-2.19-1.5a12.16,12.16,0,0,1-1.35,0,.69.69,0,0,0-.84.6,3.43,3.43,0,0,1-.16.45C71.93,65.2,71.93,65.2,70.64,65ZM76,62.14,74.68,58.2l-.15,0-1.42,3.92Z"/><path class="cls-5" d="M50.12,65.09H47a.58.58,0,0,1-.31-.21,1.2,1.2,0,0,1-.13-.33c-.53-1.45-.53-1.45-2-1.45-.55,0-1.1,0-1.65,0a.52.52,0,0,0-.6.42,6.37,6.37,0,0,1-.23.61c-.41,1.08-.41,1.09-1.67.91a5,5,0,0,1,.17-.55c1-2.71,2.07-5.42,3.09-8.14.15-.41.33-.6.79-.57.71,0,1.42,0,2.12,0a.61.61,0,0,1,.48.29c1.06,2.91,2.1,5.83,3.14,8.75A1,1,0,0,1,50.12,65.09Zm-5.78-6.87-.16,0-1.43,3.89h2.92Z"/><path class="cls-5" d="M64.86,64.17h5.26V65H61a1.39,1.39,0,0,1,.29-1.33c1.64-2.13,3.26-4.28,4.89-6.42l.41-.59H61.84v-.87h8.69A1.07,1.07,0,0,1,70.31,57c-1.66,2.16-3.31,4.34-5,6.51Z"/><path class="cls-5" d="M35.07,65.06H26.76V55.84h3.45v.7c0,2.34,0,4.67,0,7,0,.54.17.67.67.66,1.2,0,2.39,0,3.59,0C35.21,64.19,35.23,64.22,35.07,65.06Z"/><path class="cls-5" d="M39.32,55.78v9.27h-3.4c0-.22,0-.41,0-.6,0-2.67,0-5.34,0-8,0-.5.1-.71.64-.68C37.43,55.81,38.35,55.78,39.32,55.78Z"/><path class="cls-3" d="M74.72,69.49c1.17-.24.88.87,1.34,1.25.46-.36.16-1.52,1.35-1.24,0,.6,0,1.21,0,1.81,0,.09-.15.18-.22.27-.09-.09-.23-.17-.24-.26a3.23,3.23,0,0,0-.14-.93c-.09.2-.16.4-.26.58s-.31.41-.46.61A6.71,6.71,0,0,1,75.6,71a1.91,1.91,0,0,0-.39-.58,7.48,7.48,0,0,1,0,.82c0,.12-.15.22-.22.34-.09-.1-.25-.2-.25-.31C74.71,70.69,74.72,70.1,74.72,69.49Z"/><path class="cls-3" d="M52.54,69.45c.49,0,.9,0,1.31,0a.53.53,0,0,1,.58.59c0,.42,0,.85,0,1.27a.41.41,0,0,1-.22.26c-.06,0-.25-.11-.25-.17,0-.66-.45-.48-.82-.47l-.07.18-.29.47a1.54,1.54,0,0,1-.21-.52C52.52,70.54,52.54,70,52.54,69.45Zm.71,1.16.67-.45a1.55,1.55,0,0,0-.56-.28C52.9,69.85,53.05,70.18,53.25,70.61Z"/><path class="cls-3" d="M40.94,71.64V69.45c.63.07,1.38-.31,1.8.29a1.7,1.7,0,0,1,0,1.48C42.41,71.93,41.62,71.44,40.94,71.64Zm.5-.41c.36-.11.77-.11.91-.3a.92.92,0,0,0,0-.87c-.15-.19-.56-.17-.9-.25Z"/><path class="cls-3" d="M50.25,70.51c0-.88.19-1.07,1.07-1.07s1,.24,1,1.08-.21,1.07-1.08,1.07S50.24,71.37,50.25,70.51Zm1.56,0c0-.35,0-.63-.5-.64s-.58.24-.57.66,0,.65.51.66S51.86,70.92,51.81,70.49Z"/><path class="cls-3" d="M27.75,70.93a1.11,1.11,0,0,1-.05.41c-.05.1-.17.16-.26.24-.07-.1-.2-.19-.2-.29,0-.59,0-1.17,0-1.83a11.24,11.24,0,0,1,1.43,0,.66.66,0,0,1,.43.46,6.83,6.83,0,0,0,0,1.43s-.13.19-.21.2-.24-.1-.25-.16C28.62,70.76,28.18,70.92,27.75,70.93Zm0-1.15.05.79c.32-.09.57-.15.8-.24,0,0,0-.3,0-.31C28.34,69.93,28.09,69.88,27.72,69.78Z"/><path class="cls-3" d="M57.79,69.44c.83,0,1.06.22,1.06,1s-.2,1.11-1,1.12-1.05-.21-1.05-1S56.94,69.45,57.79,69.44Zm-.53,1.09c0,.41.08.64.57.64s.51-.33.52-.7-.09-.62-.55-.62S57.23,70.12,57.26,70.53Z"/><path class="cls-3" d="M18.8,70.46c0-.84.22-1,1.13-1,.75,0,1,.29,1,1.13s-.25,1-1.14,1S18.78,71.34,18.8,70.46Zm.51,0c0,.38,0,.66.52.67s.57-.28.56-.67,0-.65-.51-.65S19.25,70.05,19.31,70.5Z"/><path class="cls-3" d="M77.67,70.47c0-.86.2-1,1.1-1s1,.24,1,1.11-.2,1-1,1S77.67,71.38,77.67,70.47Zm.51,0c0,.39,0,.7.53.69s.54-.25.53-.64,0-.69-.54-.68S78.13,70.09,78.18,70.48Z"/><path class="cls-3" d="M55.25,70.93a1.34,1.34,0,0,1,0,.38,1.18,1.18,0,0,1-.23.27c-.09-.1-.24-.2-.24-.31,0-.43,0-.86,0-1.29,0-.15,0-.3,0-.53a9.91,9.91,0,0,1,1.34,0,.67.67,0,0,1,.48.41,8.23,8.23,0,0,1,0,1.49c0,.07-.13.19-.21.2s-.25-.1-.25-.16C56.14,70.75,55.69,70.92,55.25,70.93Zm0-.34c.35-.12.61-.21.87-.32,0,0,0-.32-.1-.34a6.12,6.12,0,0,0-.77-.07Z"/><path class="cls-3" d="M21,70.5c0-.89.18-1.06,1.07-1.06s1,.22,1,1.09-.2,1.07-1.08,1.06S21,71.38,21,70.5Zm1.56,0c.05-.4-.07-.61-.53-.62s-.53.31-.53.69.05.63.53.63S22.59,70.86,22.56,70.47Z"/><path class="cls-3" d="M65,69.46a9.21,9.21,0,0,1,1.4,0,.65.65,0,0,1,.47.42,9.14,9.14,0,0,1,0,1.48c0,.07-.15.18-.24.19s-.23-.11-.23-.17c0-.68-.47-.45-.86-.5a1.54,1.54,0,0,1-.07.43c0,.1-.16.17-.25.25-.07-.09-.21-.18-.22-.27C65,70.71,65,70.11,65,69.46Zm.5.34,0,.77c.33-.09.58-.15.82-.24,0,0,0-.3,0-.31A8.17,8.17,0,0,0,65.46,69.8Z"/><path class="cls-3" d="M48.52,70.22h.9a2,2,0,0,1,.07-.52c0-.1.16-.17.24-.25.08.09.22.18.23.27q0,.8,0,1.59c0,.09-.15.18-.22.27-.09-.1-.22-.19-.26-.31a2.37,2.37,0,0,1,0-.56h-.92a2.64,2.64,0,0,1,0,.56c0,.12-.17.21-.25.31-.08-.11-.22-.22-.23-.33a12.16,12.16,0,0,1,0-1.35c0-.16.15-.3.23-.45a3.7,3.7,0,0,1,.25.43A1,1,0,0,1,48.52,70.22Z"/><path class="cls-3" d="M70.7,69.76c0,.31-.13.4-.4.28-.09,0-.16-.15-.24-.15a3.19,3.19,0,0,0-.61.08s0,.15,0,.15a2.25,2.25,0,0,0,.51.2,5.06,5.06,0,0,1,.52.08c.37.12.5.86.15,1a2.84,2.84,0,0,1-1.3.11c-.17,0-.31-.3-.47-.47l.11-.18.42.1c.16.06.31.19.46.18a1.7,1.7,0,0,0,.46-.21c-.14-.08-.26-.22-.4-.24-.46-.06-1,0-1-.7,0-.46.36-.63,1.16-.53a2,2,0,0,1,.65.32Z"/><path class="cls-3" d="M39.78,70.12l-.5-.13a2.15,2.15,0,0,0-.55-.11c-.09,0-.18.15-.27.23a1.1,1.1,0,0,0,.25.19,3.07,3.07,0,0,0,.53,0,.54.54,0,0,1,.57.6c0,.42-.22.59-.61.63-.86.1-1.15,0-1.26-.74.18,0,.33.08.46.13s.24.18.34.17a2.72,2.72,0,0,0,.55-.18,2.61,2.61,0,0,0-.48-.28c-.15-.05-.32,0-.47-.05a.63.63,0,0,1-.26-1A1.17,1.17,0,0,1,39.78,70.12Z"/><path class="cls-3" d="M18.64,70.25a1.9,1.9,0,0,0-.49-.23,6,6,0,0,0-.85,0l.05,1.08c.28,0,.56-.06.84-.11a3,3,0,0,0,.42-.15c0,.2,0,.55-.08.57a3.66,3.66,0,0,1-1.35.11c-.18,0-.39-.45-.42-.72-.13-1.14.18-1.43,1.29-1.33C18.48,69.48,18.68,69.68,18.64,70.25Z"/><path class="cls-3" d="M29.18,71.65c.27-.76.47-1.37.71-2a.49.49,0,0,1,.4-.23.6.6,0,0,1,.44.25c.25.59.45,1.19.72,1.92a4.08,4.08,0,0,0-1.16-.38A3.68,3.68,0,0,0,29.18,71.65Zm1.47-.84-.34-.93-.33.93Z"/><path class="cls-3" d="M67.13,71.59V69.44c.44,0,.86,0,1.28,0,.09,0,.18.14.27.22a1.09,1.09,0,0,1-.31.18c-.15,0-.32,0-.46,0s-.21.16-.31.24c.1.06.19.17.3.19a6.14,6.14,0,0,0,.75.08v.23a5.67,5.67,0,0,0-.72.09c-.12,0-.22.15-.33.22a1.78,1.78,0,0,0,.33.23c.24.12.65-.22.77.27a8.65,8.65,0,0,1-.86.16A5.37,5.37,0,0,1,67.13,71.59Z"/><path class="cls-3" d="M37.75,71.67a1.36,1.36,0,0,0-2,0l-.08-.17c.23-.63.44-1.27.7-1.89a.47.47,0,0,1,.8,0c.24.6.45,1.21.67,1.81Zm-1-1.79-.31.93h.65Z"/><path class="cls-3" d="M47.89,71.64a4.08,4.08,0,0,0-1.15-.39,4,4,0,0,0-1.13.4c.28-.76.48-1.38.74-2a.5.5,0,0,1,.4-.21.53.53,0,0,1,.41.21C47.41,70.26,47.61,70.87,47.89,71.64Zm-1.47-.8.68,0-.35-.94Z"/><path class="cls-3" d="M74.61,71.62a4.45,4.45,0,0,0-1.18-.37,3.81,3.81,0,0,0-1.09.39c.27-.75.47-1.36.71-2a.5.5,0,0,1,.4-.23.52.52,0,0,1,.42.2C74.13,70.26,74.34,70.88,74.61,71.62ZM73.54,70h-.13l-.26.77h.67Z"/><path class="cls-3" d="M63.39,70.93a1.3,1.3,0,0,1,0,.38c0,.11-.15.18-.23.27-.08-.1-.24-.2-.24-.31,0-.58,0-1.16,0-1.82.48,0,.9,0,1.32,0s.56.37.55.76-.16.65-.58.67Zm0-.39a6,6,0,0,0,.79-.2.55.55,0,0,0,0-.36,7,7,0,0,0-.81-.15Z"/><path class="cls-3" d="M25.92,70.26l1,.13v.23c-.24,0-.5,0-.73.08s-.2.16-.3.25c.09.07.18.18.29.2s.35,0,.52,0,.18.14.27.22c-.1.06-.19.18-.29.19-.41,0-.81,0-1.26,0V69.44c.44,0,.85,0,1.25,0,.1,0,.2.13.29.2a.94.94,0,0,1-.29.2c-.15,0-.32,0-.46,0a1.51,1.51,0,0,0-.37.25Z"/><path class="cls-3" d="M43.59,70.88c.11.09.21.23.34.27s.39,0,.58,0,.15.13.22.21-.16.18-.24.19c-.42,0-.85,0-1.31,0V69.44c.44,0,.85,0,1.25,0,.1,0,.19.13.29.2a1.26,1.26,0,0,1-.29.2c-.15,0-.33,0-.47,0a2.94,2.94,0,0,0-.5.35l1.23.18v.22l-1,.11Z"/><path class="cls-3" d="M23.88,70.9a1.25,1.25,0,0,1-.06.36,3.33,3.33,0,0,1-.24.32c-.08-.11-.23-.21-.24-.32,0-.58,0-1.17,0-1.82.46,0,.85,0,1.23,0s.63.31.62.75-.15.68-.6.7Zm-.05-.38a6.57,6.57,0,0,0,.79-.15c.05,0,.06-.35,0-.36a4.82,4.82,0,0,0-.77-.19Z"/><path class="cls-3" d="M34,69.43c.69.24.46,1.1.9,1.54.12-.31.23-.64.35-1s.12-.72.69-.5c-.22.62-.41,1.23-.66,1.82a.57.57,0,0,1-.45.23.48.48,0,0,1-.38-.24c-.23-.58-.42-1.18-.63-1.76Z"/><path class="cls-3" d="M31.8,69.93a1.06,1.06,0,0,1-.33-.08,2.25,2.25,0,0,1-.3-.24.88.88,0,0,1,.32-.16,10.27,10.27,0,0,1,1.11,0c.12,0,.23.13.34.2a3.87,3.87,0,0,1-.34.21,1.76,1.76,0,0,1-.29.07c0,.42,0,.85,0,1.27,0,.13-.15.25-.23.38-.09-.12-.24-.24-.25-.36C31.78,70.8,31.8,70.37,31.8,69.93Z"/><path class="cls-3" d="M59.9,69.46c.6-.18.54.56.9.75.32-.24.31-.93,1-.71a4.49,4.49,0,0,0-.34.57c-.17.4-.31.82-.47,1.22a.57.57,0,0,1-.22.28s-.22-.09-.25-.16C60.33,70.78,60.13,70.14,59.9,69.46Z"/><path class="cls-3" d="M70.71,69.78a2.66,2.66,0,0,1,.65-.33,3.24,3.24,0,0,1,.88,0,1,1,0,0,1,.38.18,3.78,3.78,0,0,1-.33.22,1.1,1.1,0,0,1-.33.07A10.39,10.39,0,0,1,72,71a1.75,1.75,0,0,1-.25.54,2.13,2.13,0,0,1-.23-.57,9.5,9.5,0,0,1,0-1.07l-.76-.17Z"/><path class="cls-3" d="M33.13,70.48a6.4,6.4,0,0,1,0-.76.43.43,0,0,1,.23-.25c.05,0,.23.11.23.18,0,.58,0,1.17,0,1.75,0,.06-.16.17-.24.16s-.2-.13-.21-.21C33.12,71.06,33.13,70.77,33.13,70.48Z"/><path class="cls-6" d="M70.06,80.34c.49,0,.88,0,1.27,0,.7,0,1,.52.75,1.15a.61.61,0,0,0,0,.66.61.61,0,0,1,0,.4,1.41,1.41,0,0,1-.23.33c-.09-.1-.25-.2-.25-.3,0-.41-.18-.55-.58-.55s-.56.06-.55.47c0,.12-.15.25-.24.37-.07-.11-.2-.23-.2-.34C70.05,81.83,70.06,81.13,70.06,80.34Zm1.12,1.38c.16-.18.43-.35.45-.56.06-.42-.3-.39-.6-.4s-.51,0-.51.44S70.75,81.63,71.18,81.72Z"/><path class="cls-6" d="M48.58,81.63c0,1.13-.68,1.62-1.74,1.19a.85.85,0,0,1-.46-.54,4.24,4.24,0,0,1,0-1.33c.13-.69.72-.6,1.22-.61s.9.14,1,.71A3.74,3.74,0,0,1,48.58,81.63Zm-.46.07c0-.81-.09-.91-.63-.94s-.69.32-.68.81c0,.79.08.88.65.91S48.15,82.1,48.12,81.7Z"/><path class="cls-6" d="M33.68,82a2.73,2.73,0,0,0,.44.23,3.62,3.62,0,0,0,.85.2c.07,0,.24-.21.24-.31a.43.43,0,0,0-.28-.29,3.39,3.39,0,0,0-.64-.07.61.61,0,0,1-.64-.68.63.63,0,0,1,.67-.72,3.9,3.9,0,0,1,1.08.14c.11,0,.13.35.18.54l-.43-.12a1.87,1.87,0,0,0-.59-.14c-.15,0-.27.21-.4.32a1.64,1.64,0,0,0,.36.29,1.19,1.19,0,0,0,.46.06c.5,0,.77.23.75.75s-.35.7-.83.69h-.58C33.87,82.86,33.64,82.63,33.68,82Z"/><path class="cls-6" d="M51.92,82.09l-.42.79a3.81,3.81,0,0,1-.25-.79c0-.42,0-.86,0-1.29s.13-.49.48-.47.43,0,.65,0c.71,0,.94.24.93.9s-.21.81-.93.82Zm.31-1.32c-.31,0-.49,0-.49.43s.17.46.5.45.56,0,.57-.41S52.59,80.73,52.23,80.77Z"/><path class="cls-6" d="M42.33,82.22l-.39.66a3.47,3.47,0,0,1-.22-.76c0-.45,0-.9,0-1.35s.13-.46.45-.44.43,0,.65,0c.75,0,1,.28,1,1a.68.68,0,0,1-.79.73h-.69Zm-.11-1c-.07.39.15.47.48.46s.59-.05.58-.47-.26-.42-.57-.42S42.15,80.79,42.22,81.19Z"/><path class="cls-6" d="M81.23,81.17a4.15,4.15,0,0,0-.5-.24A2.6,2.6,0,0,0,80,80.8c-.09,0-.26.19-.26.29s.15.25.27.29a1.52,1.52,0,0,0,.52.07c.51,0,.76.23.74.76s-.35.7-.82.67a2.85,2.85,0,0,1-1-.14c-.12,0-.14-.38-.2-.58a2.38,2.38,0,0,0,.45.15,5.25,5.25,0,0,0,.88.09c.06,0,.17-.18.16-.27a.41.41,0,0,0-.22-.29,2.67,2.67,0,0,0-.64-.07c-.43,0-.68-.21-.69-.69s.27-.69.72-.74C80.76,80.26,81.08,80.42,81.23,81.17Z"/><path class="cls-6" d="M58.12,81.47v.17c.05,1.3-.28,1.36-1.63,1.19-.19,0-.45-.38-.49-.61a7.81,7.81,0,0,1,0-1.53c0-.12.14-.23.22-.34.09.12.24.24.25.37,0,.43,0,.86,0,1.3s.23.45.54.45.6,0,.61-.44,0-.83,0-1.24a1.27,1.27,0,0,1,.25-.43,1.76,1.76,0,0,1,.22.46A3.52,3.52,0,0,1,58.12,81.47Z"/><path class="cls-6" d="M67.51,82.92a3.84,3.84,0,0,0-1.23-.47,3.84,3.84,0,0,0-1.23.47c.29-.86.53-1.61.8-2.33a.52.52,0,0,1,.4-.24c.14,0,.39.08.43.19C67,81.28,67.21,82,67.51,82.92ZM65.86,82h.86l-.36-1.07h-.15Z"/><path class="cls-6" d="M31.22,82.93A4.21,4.21,0,0,0,30,82.45a3.81,3.81,0,0,0-1.21.48c.29-.87.52-1.6.79-2.31a.55.55,0,0,1,.43-.26.56.56,0,0,1,.44.25C30.69,81.32,30.92,82.05,31.22,82.93ZM30.43,82l-.37-1.07h-.14L29.56,82Z"/><path class="cls-6" d="M15.14,81.58c0-1.08.65-1.56,1.67-1.18.17.06.3.27.41.44s0,.21-.06.32-.31,0-.35-.1a.63.63,0,0,0-.92-.23c-.17.1-.26.49-.26.75s.07.71.26.81.78.23,1-.31c0,0,.17-.1.25-.08a.3.3,0,0,1,.15.21c0,.15-.05.41-.11.42a4.9,4.9,0,0,1-1.51.17c-.19,0-.35-.47-.48-.75A1.22,1.22,0,0,1,15.14,81.58Z"/><path class="cls-6" d="M76.52,81.68l-1.11.13c-.18.52,0,.68.51.68a2.28,2.28,0,0,1,.68.23,2.8,2.8,0,0,1-.68.16c-1.2,0-1,.18-1-1.06v-.29c0-1.23.24-1.44,1.46-1.18.1,0,.17.15.26.23-.09.06-.17.16-.26.17a3.5,3.5,0,0,0-.65,0c-.13,0-.22.19-.33.29.11.1.2.26.32.3a5.3,5.3,0,0,0,.8.1A1.16,1.16,0,0,1,76.52,81.68Z"/><path class="cls-6" d="M22.17,82.93a4,4,0,0,0-1.26-.48,3.87,3.87,0,0,0-1.21.49c.29-.87.51-1.59.78-2.3a.5.5,0,0,1,.88,0C21.63,81.31,21.86,82,22.17,82.93Zm-.8-.92L21,80.9h-.12L20.51,82Z"/><path class="cls-6" d="M60.91,82.89c0-.81,0-1.54,0-2.28,0-.09.16-.17.24-.26.08.09.22.18.23.27a9.26,9.26,0,0,1,0,1.29c0,.43.12.62.56.57a.69.69,0,0,1,.35,0c.11,0,.18.15.27.23-.09,0-.17.15-.26.16Z"/><path class="cls-6" d="M26.23,81.53v.41c0,.85-.42,1.18-1.23.9-.19-.06-.3-.38-.42-.59s.08-.19.13-.28c.1.06.2.11.3.18l.47.3c.09-.17.25-.33.26-.5,0-.43,0-.86,0-1.29,0-.11.16-.2.25-.31.07.1.19.2.2.3a8.61,8.61,0,0,1,0,.88Z"/><path class="cls-7" d="M49.55,30.83a2.3,2.3,0,1,1-2.31-2.33A2.29,2.29,0,0,1,49.55,30.83Z"/></svg>