<svg xmlns="http://www.w3.org/2000/svg" xmlns:xlink="http://www.w3.org/1999/xlink" viewBox="0 0 753.45 305.07"><defs><style>.cls-1,.cls-3,.cls-4,.cls-5,.cls-6{stroke:#067f91;}.cls-1,.cls-2,.cls-3,.cls-4,.cls-5,.cls-6{stroke-linecap:round;stroke-miterlimit:10;stroke-width:2.47px;}.cls-1{fill:url(#linear-gradient);}.cls-2{stroke:#036e7c;fill:url(#linear-gradient-2);}.cls-3{fill:url(#linear-gradient-3);}.cls-4{fill:url(#linear-gradient-4);}.cls-5{fill:url(#linear-gradient-5);}.cls-6{fill:url(#linear-gradient-6);}.cls-7{fill:#8e959b;}</style><linearGradient id="linear-gradient" x1="228.08" y1="11.02" x2="73.14" y2="11.02" gradientUnits="userSpaceOnUse"><stop offset="0" stop-color="#a8c0d0"/><stop offset="0.55" stop-color="#70a0b1"/><stop offset="1" stop-color="#048097"/></linearGradient><linearGradient id="linear-gradient-2" x1="116.31" y1="293.99" x2="278.55" y2="293.99" gradientUnits="userSpaceOnUse"><stop offset="0" stop-color="#a4bac7"/><stop offset="0.55" stop-color="#6794a4"/><stop offset="1" stop-color="#027084"/></linearGradient><linearGradient id="linear-gradient-3" x1="19.59" y1="234.35" x2="114.09" y2="234.35" xlink:href="#linear-gradient"/><linearGradient id="linear-gradient-4" x1="1.4" y1="103.28" x2="94.01" y2="103.28" xlink:href="#linear-gradient"/><linearGradient id="linear-gradient-5" x1="241.78" y1="71.34" x2="336.47" y2="71.34" xlink:href="#linear-gradient"/><linearGradient id="linear-gradient-6" x1="262.32" y1="201.96" x2="354.77" y2="201.96" xlink:href="#linear-gradient"/></defs><g id="Layer_2" data-name="Layer 2"><g id="Capa_2" data-name="Capa 2"><polygon class="cls-1" points="240.09 20.8 77.84 20.8 89.8 1.24 227.37 1.24 240.09 20.8"/><polygon class="cls-2" points="278.55 284.2 116.31 284.2 128.27 303.77 265.84 303.77 278.55 284.2"/><polygon class="cls-3" points="114.09 303.77 30.15 164.92 19.59 185.28 90.77 303.01 114.09 303.77"/><polygon class="cls-4" points="11.83 173.23 94.01 33.33 71.09 33.74 1.41 152.36 11.83 173.23"/><polygon class="cls-5" points="325.28 140.89 241.78 1.78 264.71 1.78 336.47 121.28 325.28 140.89"/><polygon class="cls-6" points="262.32 271.95 343.68 131.97 354.77 152.63 284.9 271.95 262.32 271.95"/><path class="cls-7" d="M67.75,155.71C68.08,167.06,76,182.82,92,182.43c6-.15,13.25-1.69,21.48-7.89-1.38,3.64-3.41,9.94-5.91,16.75-6.46,3.44-14.55,4-22.16,4-20.17,0-36.51-19.75-36.51-44.12s17.53-40.2,37.7-40.2c8.06.13,13.62.7,17.36,1.58.07,7.06-.1,10.45-.07,14.48-7.54-4.75-13.82-5.27-18.75-4.91C71.21,123.09,67.06,139.86,67.75,155.71Z"/><path class="cls-7" d="M176.1,194.49s-15.66,5-39.69-42.19c-5.39-11.44-8.75-8-8.75-8s.23,31,.29,40.27c0,3.27,4.23,7.68,4.23,7.68H115.62s2-3.84,2-7.1c0-2.46.51-41.34,0-61.42a19.83,19.83,0,0,0-4.2-10.87h19.67l30.71,48.18s3.31,1.41,2.89-2.84c-.26-2.7,1-39.58-3.51-45.24H180s-3.62,2.47-3.6,8.13S176.1,194.49,176.1,194.49Z"/><path class="cls-7" d="M237.61,167.3c-.61-15.22-15.41-19.89-15.41-19.89s10.51-5.8,11.4-15.44-8.5-19.08-15.84-19.08H181.84s2.83,1.65,2.83,4.44v69.85c0,2.44-2.83,4.5-2.83,4.5h37.55C226.8,191.68,238.23,182.51,237.61,167.3Zm-34.34-34.91v-9s5.52-1,8.12,1c3.7,2.84,3.28,5.13,3.28,9,0,3.48-1.65,7.57-4.93,9.59a8.22,8.22,0,0,1-6.47,1Zm11,48.36c-4,2.49-11,1.19-11,1.19V154.28s5.89-1.25,9.45.6c4.41,2.29,7.21,8.14,7.21,12.86C219.93,172,218.3,178.27,214.27,180.75Z"/><path class="cls-7" d="M273.67,194.64s-15.84-3.8-18.71-12.36-23.25-69.39-23.25-69.39h21l15,56.33s2.62,6.64,5.94-3.67c2.32-7.22,9.65-31.66,10.84-44.77a8,8,0,0,0-4.19-7.89h17.31Z"/><path class="cls-7" d="M396.92,63.58c.73,11.1,9.93,17.52,19.32,17.3,3.53-.09,7.8-1.54,12.64-5,0,1.19-.54,4.12-3.21,8-3.79,1.92-8.82,1.75-13.3,1.75-11.86,0-23.44-11-23.44-24.61S401.21,38.6,413.07,38.6c4.74.08,10.89,1.58,13.09,2.07,0,3.93-.07,5.82-.05,8.07-2.15-2.51-4.44-4.08-13.9-5C404,44.27,396.33,50.9,396.92,63.58Z"/><path class="cls-7" d="M491.43,127.57c.73,11.11,9.93,17.52,19.32,17.3,3.53-.08,7.79-1.54,12.63-5,0,1.19-.54,4.12-3.2,8-3.8,1.91-8.83,1.74-13.31,1.74-11.86,0-23.44-11-23.44-24.61s12.28-22.41,24.14-22.41c4.74.07,10.89,1.57,13.09,2.06.05,3.93-.06,5.83,0,8.08-2.16-2.52-4.45-4.09-13.9-5C498.53,108.26,490.83,114.9,491.43,127.57Z"/><path class="cls-7" d="M507.53,196.15c.73,11.11,9.93,17.52,19.33,17.3,3.52-.08,7.79-1.54,12.63-5,0,1.19-.54,4.12-3.2,8-3.81,1.91-8.83,1.74-13.31,1.74-11.86,0-23.44-11-23.44-24.6s12.28-22.42,24.14-22.42c4.74.07,10.89,1.57,13.08,2.06,0,3.94-.06,5.83,0,8.08-2.16-2.52-4.45-4.09-13.91-5C514.63,176.84,506.94,183.48,507.53,196.15Z"/><path class="cls-7" d="M428.14,150.17s-5,1.3-26.62-29.68c-3.61-6.48-7.94-6.52-7.94-6.52.1,11,.11,18.85.19,30.61,0,1.85,2.84,4.34,2.84,4.34h-9a9.21,9.21,0,0,0,1.38-4c0-1.39.34-23.38,0-34.74a10.39,10.39,0,0,0-2.82-6.14h9.81l26.5,33.88s2.23.8,1.94-1.61c-.18-1.52.69-29-2.35-32.22h8.74a5.39,5.39,0,0,0-2.42,4.6C428.36,111.88,428.14,150.17,428.14,150.17Z"/><path class="cls-7" d="M638.72,150.17s-5,1.3-26.63-29.68c-3.61-6.48-7.94-6.52-7.94-6.52.1,11,.11,18.85.2,30.61,0,1.85,2.83,4.34,2.83,4.34h-9a9.21,9.21,0,0,0,1.38-4c0-1.39.34-23.38,0-34.74A10.39,10.39,0,0,0,596.7,104h9.82L633,137.9s2.22.8,1.94-1.61c-.18-1.52.68-29-2.35-32.22h8.73a5.37,5.37,0,0,0-2.41,4.6C638.94,111.88,638.72,150.17,638.72,150.17Z"/><path class="cls-7" d="M495.26,218.92s-5,1.3-26.63-29.68c-3.61-6.47-7.94-6.52-7.94-6.52.1,11,.11,18.85.19,30.61,0,1.85,2.84,4.35,2.84,4.35h-9a9.27,9.27,0,0,0,1.38-4c0-1.39.34-23.38,0-34.74a10.39,10.39,0,0,0-2.82-6.14h9.81l26.51,33.88s2.22.8,1.94-1.61c-.18-1.52.68-29-2.36-32.22h8.74a5.39,5.39,0,0,0-2.42,4.6C495.47,180.63,495.26,218.92,495.26,218.92Z"/><path class="cls-7" d="M715.55,86.07s-5,1.29-26.62-29.69c-3.61-6.47-7.94-6.51-7.94-6.51.1,11,.11,18.85.19,30.6,0,1.85,2.84,4.35,2.84,4.35h-9a9.21,9.21,0,0,0,1.38-4c0-1.39.34-23.38,0-34.74a10.42,10.42,0,0,0-2.82-6.14h9.82l26.5,33.88s2.22.79,1.94-1.61c-.18-1.52.68-29-2.36-32.22h8.74a5.39,5.39,0,0,0-2.42,4.6C715.77,47.77,715.55,86.07,715.55,86.07Z"/><path class="cls-7" d="M396.72,203.23c-.36-8.69-8.8-11.36-8.8-11.36s6-3.31,6.5-8.82-4.84-10.9-9-10.9H365.76a3.32,3.32,0,0,1,1.62,2.54v39.9c0,1.39-1.62,2.57-1.62,2.57h20.55C390.54,217.16,397.07,211.92,396.72,203.23Zm-21.65-19.94v-6.57s5.75-.47,7.54.09c5.53,1.73,5.55,4.85,5.55,7.05,0,2-.21,3.57-5.81,5.86-2,.83-7.28.61-7.28.61Zm12.62,28.24c-6.13,2.41-12.62.07-12.62.07v-17s7-1.16,11.37,1.15c3.29,1.74,5.6,5,5.6,7.69C392,205.92,391.62,210.16,387.69,211.53Z"/><path class="cls-7" d="M485.8,285.24s-6.85-2.18-8.49-7.07-15.52-39.69-15.52-39.69h8.82l11.08,34.18s3.63,3.94,5.53-2c1.33-4.13,8.25-20.22,8.93-27.71a4.59,4.59,0,0,0-2.41-4.51h9.91Z"/><path class="cls-7" d="M456.11,38.83c-14.33,0-25.94,10.44-25.94,23.31s11.61,23.32,25.94,23.32S482.05,75,482.05,62.14,470.43,38.83,456.11,38.83Zm-.1,42c-11.49,0-17.55-8.37-17.55-18.7s6.06-18.7,17.55-18.7,17.75,8.37,17.75,18.7S467.5,80.84,456,80.84Z"/><path class="cls-7" d="M642.91,38.83C628.59,38.83,617,49.27,617,62.14s11.61,23.32,25.93,23.32S668.85,75,668.85,62.14,657.24,38.83,642.91,38.83Zm-.09,42c-11.49,0-17.55-8.37-17.55-18.7s6.06-18.7,17.55-18.7,17.74,8.37,17.74,18.7S654.31,80.84,642.82,80.84Z"/><path class="cls-7" d="M567.28,103.33c-14.33,0-25.94,10.44-25.94,23.31S553,150,567.28,150s25.93-10.44,25.93-23.32S581.6,103.33,567.28,103.33Zm-.1,42c-11.49,0-17.55-8.37-17.55-18.7s6.06-18.7,17.55-18.7,17.74,8.37,17.74,18.7S578.67,145.34,567.18,145.34Z"/><path class="cls-7" d="M614.63,237.78c-14.32,0-25.93,10.44-25.93,23.31s11.61,23.32,25.93,23.32,25.94-10.44,25.94-23.32S629,237.78,614.63,237.78Zm-.09,42c-11.49,0-17.55-8.38-17.55-18.71s6.06-18.7,17.55-18.7,17.74,8.38,17.74,18.7S626,279.8,614.54,279.8Z"/><path class="cls-7" d="M383.56,239.35H363.94a3.32,3.32,0,0,1,1.62,2.54v39.9c0,1.4-1.62,2.57-1.62,2.57h20.55c20.86,0,20.86-25.29,20.86-25.29S404.35,239.35,383.56,239.35Zm7.56,36.29c-7.89,5.88-18.56,3.16-18.56,3.16V244s11.34-3.51,19.94,3.65c3.65,3.09,5.53,8.87,5.37,12.92C397.77,263,397.81,272.15,391.12,275.64Z"/><path class="cls-7" d="M440.6,276.61a11.54,11.54,0,0,1-3.09,1.62c-8,2.76-17.45.57-17.45.57V261.61A24.25,24.25,0,0,1,431.15,263c0-.1,0-5.94,0-5.94H420.06V244s7.79-2.3,15.19.62c0-.09,0-5.93,0-5.93H411.44a5.57,5.57,0,0,1,1.62,3.2v39.9c0,1.4-1.62,2.57-1.62,2.57h26.49C439.33,283.89,440.9,278.92,440.6,276.61Z"/><path class="cls-7" d="M711.83,276.61a11.57,11.57,0,0,1-3.1,1.62c-8,2.76-17.44.57-17.44.57V261.61A24.23,24.23,0,0,1,702.37,263c0-.1,0-5.94,0-5.94H691.29V244s7.79-2.3,15.17.62v-5.93H682.67a5.58,5.58,0,0,1,1.61,3.2v39.9c0,1.4-1.61,2.57-1.61,2.57h26.48C710.56,283.89,712.12,278.92,711.83,276.61Z"/><path class="cls-7" d="M551.86,284.48S549.49,283,546,276c-5.31-10-14.53-37.28-14.53-37.28h-8.75a10.26,10.26,0,0,1-.25,5.58c-3.63,10.76-13.07,34.14-14.35,35.94-2.91,4.06-4.67,4.27-4.67,4.27l12.19-.39a4.57,4.57,0,0,1-2.4-4.51c0-.31,2.29-6.19,4.89-13h18c2,5,3.77,9.53,4.28,11.07a9.29,9.29,0,0,1-.16,6.81Zm-28.75-22.9c-2.68,0-2.39-1.72-2.39-1.72s4.58-12.12,5.13-13.81c1.27-1.88,3.51,3.93,3.51,3.93s1.83,4.49,4,9.88c0,0,.28,1.72-2.4,1.72Z"/><path class="cls-7" d="M588.55,217.54s-2.37-1.46-5.89-8.5c-5.31-10-14.53-37.29-14.53-37.29h-8.76a10.21,10.21,0,0,1-.24,5.58c-3.64,10.77-13.07,34.14-14.35,35.95-2.91,4.05-4.67,4.26-4.67,4.26l12.19-.38a4.58,4.58,0,0,1-2.4-4.52c0-.3,2.29-6.18,4.89-13h18c2,5,3.77,9.52,4.28,11.07a9.26,9.26,0,0,1-.16,6.8Zm-28.75-22.9c-2.68,0-2.4-1.71-2.4-1.71s4.59-12.13,5.14-13.82c1.27-1.88,3.5,3.93,3.5,3.93s1.83,4.49,4,9.89c0,0,.28,1.71-2.4,1.71Z"/><path class="cls-7" d="M690.41,217.54s-2.37-1.46-5.89-8.5C679.21,199,670,171.75,670,171.75h-8.76a10.21,10.21,0,0,1-.24,5.58c-3.64,10.77-13.07,34.14-14.35,35.95-2.92,4.05-4.67,4.26-4.67,4.26l12.18-.38a4.59,4.59,0,0,1-2.4-4.52c0-.3,2.29-6.18,4.9-13h18c2,5,3.78,9.52,4.29,11.07a9.26,9.26,0,0,1-.16,6.8Zm-28.75-22.9c-2.68,0-2.4-1.71-2.4-1.71s4.59-12.13,5.13-13.82c1.27-1.88,3.51,3.93,3.51,3.93s1.83,4.49,4,9.89c0,0,.27,1.71-2.4,1.71Z"/><path class="cls-7" d="M690.41,149.54s-2.37-1.46-5.89-8.51C679.21,131,670,103.75,670,103.75h-8.76a10.21,10.21,0,0,1-.24,5.58c-3.64,10.76-13.07,34.14-14.35,36-2.92,4.05-4.67,4.26-4.67,4.26l12.18-.38a4.59,4.59,0,0,1-2.4-4.52c0-.3,2.29-6.19,4.9-13h18c2,5,3.78,9.52,4.29,11.06a9.29,9.29,0,0,1-.16,6.81Zm-28.75-22.9c-2.68,0-2.4-1.72-2.4-1.72s4.59-12.12,5.13-13.81c1.27-1.88,3.51,3.93,3.51,3.93s1.83,4.49,4,9.88c0,0,.27,1.72-2.4,1.72Z"/><path class="cls-7" d="M481.82,149.54s-2.37-1.46-5.9-8.51c-5.3-10-14.52-37.28-14.52-37.28h-8.76a10.21,10.21,0,0,1-.24,5.58c-3.64,10.76-13.07,34.14-14.35,36-2.92,4.05-4.67,4.26-4.67,4.26l12.19-.38a4.6,4.6,0,0,1-2.41-4.52c0-.3,2.29-6.19,4.9-13h18c2,5,3.78,9.52,4.29,11.06a9.36,9.36,0,0,1-.16,6.81Zm-28.75-22.9c-2.68,0-2.4-1.72-2.4-1.72s4.59-12.12,5.13-13.81c1.27-1.88,3.51,3.93,3.51,3.93s1.83,4.49,4,9.88c0,0,.28,1.72-2.39,1.72Z"/><path class="cls-7" d="M451.68,217.44s-2.37-1.46-5.89-8.5c-5.3-10-14.53-37.29-14.53-37.29h-8.75a10.26,10.26,0,0,1-.25,5.58c-3.63,10.76-13.06,34.14-14.35,36-2.91,4.06-4.66,4.26-4.66,4.26l12.18-.38a4.59,4.59,0,0,1-2.4-4.52c0-.3,2.29-6.18,4.89-13h18c2,5,3.77,9.53,4.28,11.07a9.27,9.27,0,0,1-.16,6.8Zm-28.75-22.89c-2.67,0-2.4-1.72-2.4-1.72s4.59-12.13,5.14-13.82c1.27-1.88,3.51,3.93,3.51,3.93s1.83,4.49,4,9.89c0,0,.28,1.72-2.39,1.72Z"/><path class="cls-7" d="M564.8,277.89c.17-10.42.5-30.49.5-32.21a64.23,64.23,0,0,1,.73-7h-8.75s.77,6.32.93,14c.24,11.65-.11,26.47-.11,27.62a6.69,6.69,0,0,1-1.66,3.76H583.1s2.18-4.94,3.34-7.73A26.89,26.89,0,0,1,564.8,277.89Z"/><path class="cls-7" d="M705.48,143.6c.17-10.43.5-30.5.5-32.22a65.09,65.09,0,0,1,.72-7H698s.78,6.32.93,14c.24,11.64-.1,26.46-.1,27.62a6.69,6.69,0,0,1-1.66,3.75h26.66s2.17-4.94,3.34-7.73A26.9,26.9,0,0,1,705.48,143.6Z"/><path class="cls-7" d="M636.86,197.68c0-8.3.18-20.92.18-21.7a6.69,6.69,0,0,1,1.66-3.76H627.91a6.69,6.69,0,0,1,1.66,3.76c0,.78.16,13.4.19,21.7,0,8.11-.19,15.19-.19,16a6.65,6.65,0,0,1-1.66,3.75H638.7a6.65,6.65,0,0,1-1.66-3.75C637,212.87,636.89,205.79,636.86,197.68Z"/><path class="cls-7" d="M610.86,64.78c0-8.3.19-20.93.19-21.71a6.69,6.69,0,0,1,1.66-3.75H601.92a6.69,6.69,0,0,1,1.66,3.75c0,.78.16,13.41.18,21.71,0,8.11-.18,15.19-.18,16a6.65,6.65,0,0,1-1.66,3.75h10.79a6.65,6.65,0,0,1-1.66-3.75C611.05,80,610.89,72.89,610.86,64.78Z"/><path class="cls-7" d="M535.92,130c0-8.3.18-20.92.18-21.7a6.63,6.63,0,0,1,1.67-3.75H527a6.63,6.63,0,0,1,1.67,3.75c0,.78.15,13.4.18,21.7,0,8.11-.18,15.19-.18,16a6.67,6.67,0,0,1-1.67,3.75h10.8a6.67,6.67,0,0,1-1.67-3.75C536.1,145.15,536,138.07,535.92,130Z"/><path class="cls-7" d="M558.11,64.78c0-8.3.18-20.93.18-21.71A6.69,6.69,0,0,1,560,39.32H549.16a6.69,6.69,0,0,1,1.66,3.75c0,.78.16,13.41.19,21.71,0,8.11-.19,15.19-.19,16a6.65,6.65,0,0,1-1.66,3.75H560a6.65,6.65,0,0,1-1.66-3.75C558.29,80,558.13,72.89,558.11,64.78Z"/><path class="cls-7" d="M735.06,201.29c0-.51,0-1,0-1.57,0-2.23.58-2.77.58-2.77l17.8-26.19H742.56s4.38,2.12,1.21,7.36c-.51,1.91-12.26,15.46-12.26,15.46S719.76,180,719.25,178.12c-3.17-5.24,1.21-7.36,1.21-7.36H709.57L727.37,197a5.22,5.22,0,0,1,.58,2.77c0,.54,0,1.06,0,1.57,0,8.11-.18,15.19-.18,16a6.67,6.67,0,0,1-1.67,3.75H736.9a6.69,6.69,0,0,1-1.66-3.75C735.24,216.48,735.08,209.4,735.06,201.29Z"/><path class="cls-7" d="M735.06,201.29c0-.51,0-1,0-1.57,0-2.23.58-2.77.58-2.77l17.8-26.19H742.56s4.38,2.12,1.21,7.36c-.51,1.91-12.26,15.46-12.26,15.46S719.76,180,719.25,178.12c-3.17-5.24,1.21-7.36,1.21-7.36H709.57L727.37,197a5.22,5.22,0,0,1,.58,2.77c0,.54,0,1.06,0,1.57,0,8.11-.18,15.19-.18,16a6.67,6.67,0,0,1-1.67,3.75H736.9a6.69,6.69,0,0,1-1.66-3.75C735.24,216.48,735.08,209.4,735.06,201.29Z"/><path class="cls-7" d="M587.44,60.72c-5-2.84-15.76-2.71-15.52-11.23,0-1.4.08-3.58,2.64-4.79,8.7-4.1,13.81,1.58,17.59,1.55-.71-.32-.58-4-.58-6-2.07-.84-5.6-1.43-11.32-1.43-6.47,0-15.92,5.74-15.92,12.2,0,8.4,7.62,10.62,14.55,12.9a17.87,17.87,0,0,1,7,3.93c1.9,2.2,3.4,4.73,3,7.42-.72,5.36-14,9-24.46,1.43a12.39,12.39,0,0,0,2.08,7.52c7,1.6,9.84,1.11,13.75,1.23,10.48.32,15.91-6.47,15.91-12.94C596.88,64.13,587.44,60.73,587.44,60.72Z"/><path class="cls-7" d="M737.78,259.67c-5-2.85-15.76-2.71-15.51-11.23,0-1.41.07-3.58,2.63-4.79,8.7-4.1,13.81,1.58,17.59,1.55-.71-.32-.58-4-.58-6-2.06-.83-5.6-1.43-11.32-1.43-6.47,0-15.92,5.74-15.92,12.21,0,8.4,7.62,10.61,14.55,12.9a18,18,0,0,1,7,3.92c1.9,2.2,3.41,4.74,3,7.42-.72,5.37-14,9-24.46,1.43a12.44,12.44,0,0,0,2.08,7.53c7,1.59,9.84,1.11,13.75,1.22,10.48.32,15.91-6.46,15.91-12.93C747.22,263.08,737.78,259.68,737.78,259.67Z"/><path class="cls-7" d="M544.78,84.34s-1.41-1.12-1.89-4.17c-.17-1-5.45-36.59-5.45-37.79,0-1.7,2.22-3.06,2.22-3.06s-10.76-.6-11.55,1.37-5,20-13.55,28.74C506,60.64,501.8,42.67,501,40.69s-11.55-1.37-11.55-1.37,2.22,1.36,2.22,3.06c0,1.2-5.29,36.75-5.45,37.79-.47,3-1.89,4.17-1.89,4.17h10.37a7.53,7.53,0,0,1-1.8-4.3c0-2.26,3.46-27.54,3.46-27.54s.39-2.94.48-4.16c.34-.65.92-.23,1.89.77C510,77.85,514.56,83.78,514.56,83.78s4.56-5.93,15.82-34.67c1-1,1.55-1.42,1.89-.77.08,1.22.47,4.16.47,4.16s3.47,25.28,3.47,27.54a7.53,7.53,0,0,1-1.8,4.3Z"/><path class="cls-7" d="M663.89,261.52c5.89-2.25,11.32-6,11.32-10.34,0-15.43-14-12.49-21.43-12.49h-8.59a5.57,5.57,0,0,1,1.62,3.2v39.9c0,1.4-1.62,2.57-1.62,2.57h10a3.25,3.25,0,0,1-1.77-2.51V263.68h.06v-3.84l-.06,0v-17c1.49-1,3.29-.93,5.24-.93a8.94,8.94,0,0,1,9.18,8.68c.28,6.34-6.73,9.74-11.8,9.76l1.79,3.24c3.16,5.18,17.46,27.3,26.11,19.31C684.08,282.8,673.7,279.48,663.89,261.52Z"/><path class="cls-7" d="M612,194.61c5.89-2.25,11.32-6,11.32-10.33,0-15.44-14-12.5-21.42-12.5h-8.59A5.61,5.61,0,0,1,595,175v39.91c0,1.39-1.62,2.57-1.62,2.57h10a3.25,3.25,0,0,1-1.76-2.52V196.78h0v-3.85l0,0v-17c1.48-1,3.28-.92,5.22-.92A8.94,8.94,0,0,1,616,183.7c.28,6.33-6.73,9.74-11.8,9.75L606,196.7c3.17,5.18,17.47,27.3,26.11,19.31C632.22,215.89,621.83,212.57,612,194.61Z"/></g></g></svg>