<svg xmlns="http://www.w3.org/2000/svg" viewBox="0 0 96.39 96.39"><defs><style>.cls-1{fill:#e96827;}.cls-2{fill:none;}</style></defs><g id="Layer_2" data-name="Layer 2"><g id="Capa_1" data-name="Capa 1"><path class="cls-1" d="M2.87,37.21H6.15c0,2,0,4,0,5.95a5.35,5.35,0,0,1,8,.47,7.82,7.82,0,0,1,1.25,5.69,6,6,0,0,1-3.53,4.89c-1.92.74-4.48.49-5.73-1.3,0,.46,0,.92,0,1.38H2.87ZM8,44.85c-2,.8-2.41,3.58-1.39,5.31a2.91,2.91,0,0,0,4.29.77,4.06,4.06,0,0,0,.77-4.7A2.91,2.91,0,0,0,8,44.85Z"/><path class="cls-1" d="M18.61,42.32a6.9,6.9,0,0,1,5.52-.45A4.17,4.17,0,0,1,27,45.39c.15,3-.14,6,.2,8.9-1,0-2.05,0-3.08,0-.05-.45-.07-.89-.09-1.34a4.7,4.7,0,0,1-6.77.43,3.66,3.66,0,0,1,.26-5.3c1.64-1.32,3.9-1,5.81-1.55.6-.25.52-1.07.22-1.52a2.47,2.47,0,0,0-2.8-.57,2.33,2.33,0,0,0-1.33,1.8c-1-.21-2-.41-3-.65A4.6,4.6,0,0,1,18.61,42.32Zm2.22,6.89a1.46,1.46,0,0,0-1.24,1.51,1.35,1.35,0,0,0,1.25,1.33,2.48,2.48,0,0,0,2.6-1.22,4,4,0,0,0,.3-2.09C22.77,48.9,21.8,49,20.83,49.21Z"/><path class="cls-1" d="M32.07,43.27a4.56,4.56,0,0,1,6.1-1,4.93,4.93,0,0,1,1.79,4q0,4,0,8H36.62c0-2.42,0-4.85,0-7.28A2.47,2.47,0,0,0,35.69,45a2.31,2.31,0,0,0-2.95.38,3.26,3.26,0,0,0-.61,2.1q0,3.43,0,6.85H28.8V41.69h3.28C32.08,42.22,32.08,42.75,32.07,43.27Z"/><path class="cls-1" d="M50.93,43.12A6.3,6.3,0,0,1,59.16,43c1.62,1.47,2,3.8,1.83,5.88-2.92.1-5.85,0-8.77,0a3,3,0,0,0,3.08,2.7,2.81,2.81,0,0,0,2.77-1.85l2.79.83a5.41,5.41,0,0,1-3,3.39,6.7,6.7,0,0,1-6.49-.73C48.3,50.91,48.14,45.75,50.93,43.12Zm2,2.05a3.29,3.29,0,0,0-.66,1.4c1.81,0,3.63,0,5.45,0A2.76,2.76,0,0,0,57,44.91,2.9,2.9,0,0,0,53,45.17Z"/><path class="cls-1" d="M85.55,41.69A6.69,6.69,0,0,1,91.32,43a6.8,6.8,0,0,1,.16,9.86,6.63,6.63,0,0,1-8.79-.07,6.76,6.76,0,0,1,.14-9.72A6.11,6.11,0,0,1,85.55,41.69Zm.9,3c-2.77.57-3.22,4.78-1,6.28a3,3,0,0,0,3.88-.45,4.09,4.09,0,0,0,.51-4.15A3,3,0,0,0,86.45,44.64Z"/><path class="cls-1" d="M41.28,41.69H44.5c0,.6,0,1.2,0,1.79a4.05,4.05,0,0,1,4.27-1.74c0,1.18,0,2.35,0,3.52a4.43,4.43,0,0,0-2.74.32,3.17,3.17,0,0,0-1.4,2.83c0,2,0,4,0,5.93H41.28Z"/><path class="cls-1" d="M64.21,42.61c1.93-1.3,5-1.4,6.58.5,0-.47,0-.94,0-1.41H74c0,3.78,0,7.55,0,11.32a6.21,6.21,0,0,1-2,4.76,7.31,7.31,0,0,1-6.47,1.11,5.46,5.46,0,0,1-3.91-4.13c1-.32,2-.56,3.05-.83a2.79,2.79,0,0,0,2,2.19,3.36,3.36,0,0,0,3.42-1,4.72,4.72,0,0,0,.64-3c-1.71,2-5,1.76-6.93.21A6.28,6.28,0,0,1,64.21,42.61Zm3.15,2c-2.14.32-2.91,3.11-1.81,4.79a2.92,2.92,0,0,0,3.84.87,3.26,3.26,0,0,0,.36-5.06A2.76,2.76,0,0,0,67.36,44.65Z"/><path class="cls-1" d="M75.84,41.7h3.33V54.34H75.84Z"/><rect class="cls-2" width="96.39" height="96.39"/></g></g></svg>