<svg id="Layer_1" data-name="Layer 1" xmlns="http://www.w3.org/2000/svg" viewBox="0 0 96.39 96.39"><defs><style>.cls-1{fill:none;}.cls-2{fill:#092858;}.cls-3{fill:#d41c24;}</style></defs><rect class="cls-1" width="96.39" height="96.39"/><path class="cls-2" d="M28.49,46.78a39.48,39.48,0,0,1,7.4-4.58c-.31-.32-.59-.6-.86-.89a11.27,11.27,0,0,1,5.76-18.43c3.73-.85,7.39-.54,10.56,1.88a11.16,11.16,0,0,1,4.55,11c-.14,1-.46,2.06-.72,3.15.92.16,1.91.35,2.91.51,1.82.31,3.65.59,5.48.9.14,0,.26.19.39.28-.14.07-.28.2-.42.19A47.67,47.67,0,0,0,45.86,44,52.91,52.91,0,0,0,35,49.57a.77.77,0,0,1-.62.09c-1.91-.89-3.81-1.81-5.71-2.73C28.62,46.91,28.59,46.86,28.49,46.78Zm26.9-12.67a17.53,17.53,0,0,0-.26-2.18,10.43,10.43,0,0,0-7.38-8.18A10.08,10.08,0,0,0,37.2,26.28,10.32,10.32,0,0,0,34.29,37a10,10,0,0,0,7.82,7.36,1.94,1.94,0,0,0,1.12-.07,55.31,55.31,0,0,1,8.69-2.79,2,2,0,0,0,1.25-.82A10.82,10.82,0,0,0,55.39,34.11Z"/><path class="cls-2" d="M13.49,56.44c1.95.76,2.64,2,2.25,3.78A3.75,3.75,0,0,1,13.56,63a6.48,6.48,0,0,1-2.35.69c-2.26.09-4.52,0-6.84,0,.23-1.08.45-2.17.68-3.25C5.77,57,6.51,53.62,7.22,50.21c.07-.34.18-.48.52-.47,1.81,0,3.61,0,5.41.06a4.35,4.35,0,0,1,1.13.22,2.82,2.82,0,0,1,2.23,2.86,3.26,3.26,0,0,1-1.78,3C14.35,56.09,13.94,56.24,13.49,56.44ZM8.85,57.8l-.77,3.63c.95,0,1.79-.06,2.62-.16a2.38,2.38,0,0,0,1-.42,1.83,1.83,0,0,0,.69-1.9,1.52,1.52,0,0,0-1.46-1.14C10.26,57.76,9.58,57.8,8.85,57.8Zm.51-2.5c.76,0,1.48.05,2.18,0a2.32,2.32,0,0,0,1-.48,1.55,1.55,0,0,0,.5-1.74,1.27,1.27,0,0,0-1.32-.89c-.54,0-1.09,0-1.7,0Z"/><path class="cls-2" d="M79.6,54c-.64,3.29-1.25,6.48-1.87,9.73h-3l.1-1.54-.47.53A3.26,3.26,0,0,1,71.19,64a2.88,2.88,0,0,1-2.36-2.52c-.59-2.69.66-6.78,4.56-7.73a11.74,11.74,0,0,1,4.65,0C78.57,53.79,79.08,53.91,79.6,54Zm-3.49,1.83a3,3,0,0,0-3.18.92,4.86,4.86,0,0,0-1,3.78,1.12,1.12,0,0,0,1.43,1,2.2,2.2,0,0,0,1.47-1.24A17.13,17.13,0,0,0,76.11,55.84Z"/><path class="cls-2" d="M34.1,53.77h3l-.16,1.62.08.09c.15-.17.28-.36.44-.51a4.46,4.46,0,0,1,3.15-1.45A2.17,2.17,0,0,1,43,55.82a17.93,17.93,0,0,1-.42,3c-.32,1.64-.68,3.27-1,4.92H38.44l.67-3.2c.22-1.12.46-2.23.66-3.35s-.5-1.56-1.43-1.13a3.87,3.87,0,0,0-2.12,2.86c-.35,1.6-.67,3.2-1,4.82H32Z"/><path class="cls-2" d="M47,60a1.56,1.56,0,0,0,1.65,1.78,6.67,6.67,0,0,0,2.89-.61l.65-.29c-.17.8-.31,1.53-.48,2.24,0,.1-.17.19-.28.24a7.53,7.53,0,0,1-4.36.61,3.6,3.6,0,0,1-3.15-3.28,6.17,6.17,0,0,1,4.64-7,5.64,5.64,0,0,1,3.1.16,2.52,2.52,0,0,1,1.8,2,2.75,2.75,0,0,1-1,2.77,6.25,6.25,0,0,1-3.33,1.18C48.42,59.86,47.71,59.89,47,60Zm.15-2a5.39,5.39,0,0,0,2.71-.5,1.14,1.14,0,0,0,.6-1.4,1.1,1.1,0,0,0-1.36-.42A3,3,0,0,0,47.11,58Z"/><path class="cls-2" d="M25.77,59.88a1.58,1.58,0,0,0,1.65,1.85,6.48,6.48,0,0,0,2.93-.63l.61-.27c-.17.79-.3,1.5-.47,2.2,0,.12-.21.24-.35.3a7.3,7.3,0,0,1-4.67.51,3.59,3.59,0,0,1-2.8-3.42,6.18,6.18,0,0,1,4.19-6.67,5.56,5.56,0,0,1,3.58,0A2.53,2.53,0,0,1,32.26,56,2.76,2.76,0,0,1,31,58.79a8.59,8.59,0,0,1-4.11,1.09C26.54,59.91,26.17,59.88,25.77,59.88ZM26,58a5.43,5.43,0,0,0,2.72-.55,1.1,1.1,0,0,0,.53-1.36,1.11,1.11,0,0,0-1.3-.44A2.82,2.82,0,0,0,26,58Z"/><path class="cls-2" d="M67.68,50.59,67,53.73h2.34c-.17.76-.31,1.43-.49,2.1,0,.11-.27.23-.42.24-.53,0-1.07,0-1.6,0a.54.54,0,0,0-.39.31c-.31,1.34-.61,2.68-.86,4-.16.91.15,1.19,1.07,1.06a9.22,9.22,0,0,0,1-.24c-.16.77-.3,1.46-.47,2.15a.4.4,0,0,1-.25.24,5.65,5.65,0,0,1-2.88.26c-1.36-.29-2-1.45-1.71-3s.63-3.13,1-4.79H61.86c.18-.77.32-1.45.52-2.11,0-.12.34-.22.53-.23,1,0,1.06,0,1.14-1A1.68,1.68,0,0,1,65.77,51,16.86,16.86,0,0,0,67.68,50.59Z"/><path class="cls-2" d="M53.06,63.53l.47-2.38a23.44,23.44,0,0,0,2.31.63,3.09,3.09,0,0,0,1.35-.07.79.79,0,0,0,.3-1.42,9.54,9.54,0,0,0-1-.61,7.48,7.48,0,0,1-1.62-1.2,2.94,2.94,0,0,1,.83-4.23,5.39,5.39,0,0,1,3.48-.73c.76,0,1.52.21,2.32.33L61,56.24a15,15,0,0,0-1.74-.47,3.16,3.16,0,0,0-1.3,0,.78.78,0,0,0-.27,1.39,10.66,10.66,0,0,0,1.42.85,2.94,2.94,0,0,1,1.6,1.86,3,3,0,0,1-1.65,3.5,7,7,0,0,1-4.1.52A19.74,19.74,0,0,1,53.06,63.53Z"/><path class="cls-2" d="M81.57,53.77h3l-.21,1.82c.9-1.47,1.88-2.49,3.72-1.94l-.59,2.85a7.57,7.57,0,0,0-1.69-.06A2.5,2.5,0,0,0,84,58.31c-.37,1.21-.62,2.45-.91,3.68-.14.57-.25,1.14-.37,1.74H79.54C80.22,60.4,80.89,57.09,81.57,53.77Z"/><path class="cls-2" d="M21.68,53.73c-.27,1.27-.51,2.43-.75,3.59s-.45,2.08-.63,3.12.19,1.19,1.08,1l.61-.13c-.16.74-.31,1.45-.47,2.16,0,.1-.15.24-.24.24a12.08,12.08,0,0,1-2.61.12A2,2,0,0,1,17,61.42c.18-1.43.48-2.85.75-4.27.18-1,.42-1.93.61-2.91.07-.36.19-.53.6-.51C19.85,53.76,20.71,53.73,21.68,53.73Z"/><path class="cls-3" d="M35.18,68.06H36v.48c1.12-.82,1.73-.8,2.3,0a5.41,5.41,0,0,1,.88-.53,1.07,1.07,0,0,1,1.52,1.22c-.12.85-.28,1.7-.44,2.55-.08.38-.15.39-1.06.27.14-.81.31-1.61.41-2.42a2.42,2.42,0,0,0-.23-.82c-.28.13-.71.2-.81.41A15,15,0,0,0,38,71.13a1.64,1.64,0,0,0,0,.22c-.14.87-.18.9-1.15.73l.39-2.1s0-.07,0-.1c0-.36.26-.84-.23-1s-.8.22-.93.59a20.93,20.93,0,0,0-.53,2.07c-.05.19-.09.39-.13.6h-1Z"/><path class="cls-3" d="M60.22,72.12H59.14c0-.36-.08-.74-.1-1.11s-.16-.45-.51-.48c-.82-.07-1.49,0-1.7,1-.17.75-.72.7-1.37.59.08-.17.14-.33.22-.48l2.15-4.28c.49-1,.49-1,1.68-.79ZM58.9,69.69l-.23-2.14-1,2.14Z"/><path class="cls-3" d="M61.81,72.13h-1c.13-.72.24-1.41.37-2.1.19-1,.39-2,.59-3.08.17-.84.18-.84,1.16-.69l-.39,2.14a7.53,7.53,0,0,1,.93-.41,1,1,0,0,1,1.36,1.06c-.09,1-.3,1.92-.48,2.87,0,.09-.2.2-.31.22a6,6,0,0,1-.74,0c.15-.88.32-1.7.42-2.53a1.92,1.92,0,0,0-.24-.76c-.28.12-.69.16-.82.37a5.37,5.37,0,0,0-.55,1.41C62,71.12,61.9,71.61,61.81,72.13Z"/><path class="cls-3" d="M14.3,70.05l-.42,2.07h-1c.24-1.28.48-2.53.72-3.79.08-.45.21-.89.25-1.34a.47.47,0,0,1,.49-.48,10.54,10.54,0,0,1,1.59,0,1.38,1.38,0,0,1,1.28,1,1.74,1.74,0,0,1-.65,1.92A5.1,5.1,0,0,1,15,70,2.51,2.51,0,0,1,14.3,70.05Zm.17-1c1,.31,1.79-.26,1.72-1.14,0-.54-.43-.61-.85-.67s-.59.14-.65.53S14.55,68.64,14.47,69.1Z"/><path class="cls-3" d="M33.47,72.12h-.8l-.05-.62A5.2,5.2,0,0,1,32,72a1.24,1.24,0,0,1-2-.86A2.82,2.82,0,0,1,33.17,68c1,.11,1,.11.82,1.11S33.64,71.08,33.47,72.12ZM33,68.82a1.36,1.36,0,0,0-1.47.57A1.72,1.72,0,0,0,31.2,71c.14.4.51.42.81.18a1.72,1.72,0,0,0,.56-.72A17,17,0,0,0,33,68.82Z"/><path class="cls-3" d="M45.33,69.74a2.45,2.45,0,0,1-2.15,2.47,1.6,1.6,0,0,1-1.85-1.4A2.5,2.5,0,0,1,43.4,68,1.64,1.64,0,0,1,45.33,69.74Zm-3.11.75c.24.32.39.7.66.83a.73.73,0,0,0,1-.42,4.32,4.32,0,0,0,.34-1.36.81.81,0,0,0-.4-.67,1,1,0,0,0-.87.2A7.22,7.22,0,0,0,42.22,70.49Z"/><path class="cls-3" d="M65.41,70.52a2.47,2.47,0,0,1,2-2.53,1.63,1.63,0,0,1,2.06,1.38,2.51,2.51,0,0,1-2,2.82A1.62,1.62,0,0,1,65.41,70.52Zm3.1-.81c-.23-.33-.36-.73-.62-.86a.75.75,0,0,0-1,.44,4.06,4.06,0,0,0-.34,1.36.86.86,0,0,0,.44.66,1,1,0,0,0,.83-.2A7.92,7.92,0,0,0,68.51,69.71Z"/><path class="cls-3" d="M77.26,72.17c-1.26,0-1.87-.82-1.64-2.19a2.32,2.32,0,0,1,2.81-2,1.46,1.46,0,0,1,1,.92C80,70.36,78.85,72.34,77.26,72.17Zm-.73-1.83c.09.49.15.89.64,1a.81.81,0,0,0,1-.55,3.62,3.62,0,0,0,.29-1.25.82.82,0,0,0-.4-.68,1,1,0,0,0-.87.2A6.66,6.66,0,0,0,76.53,70.34Z"/><path class="cls-3" d="M54.58,68.09c-.91,1.64-1.74,3.21-2.64,4.73a2.35,2.35,0,0,1-1.68,1.12L50,73.11c.19-.1.37-.18.54-.28a1.28,1.28,0,0,0,.74-1.67l-.66-3c.05,0,.06,0,.08,0,1-.13,1-.1,1.16.88a9.64,9.64,0,0,0,.36,1.69c.27-.6.54-1.21.8-1.81C53.44,68,53.44,68,54.58,68.09Z"/><path class="cls-2" d="M20.8,49a1.56,1.56,0,0,1,1.73,1.53,1.74,1.74,0,0,1-1.87,1.68,1.62,1.62,0,0,1-1.76-1.53A1.7,1.7,0,0,1,20.8,49Z"/><path class="cls-3" d="M21.14,70.54c.16.88.54,1,2,.63.19.73.12.86-.62,1a4.57,4.57,0,0,1-1,0A1.41,1.41,0,0,1,20.16,71a2.56,2.56,0,0,1,1.89-3,1.34,1.34,0,0,1,1.67.88c.15.71-.27,1.29-1.13,1.48A12.68,12.68,0,0,1,21.14,70.54Zm.12-.82a6.39,6.39,0,0,0,1.15-.2c.14,0,.21-.32.32-.48-.18-.1-.36-.29-.52-.28C21.71,68.81,21.41,69.12,21.26,69.72Z"/><path class="cls-3" d="M45.83,71.21a3.07,3.07,0,0,0,.83.19,2,2,0,0,0,.66-.28,3.48,3.48,0,0,0-.32-.64c-.1-.12-.28-.17-.41-.27a1.16,1.16,0,0,1,.18-2,2.12,2.12,0,0,1,1.9,0l-.22.69a3.57,3.57,0,0,0-.89-.1.64.64,0,0,0-.44.33c0,.1.11.32.23.43s.41.25.59.4a1.18,1.18,0,0,1,0,1.93A2.18,2.18,0,0,1,45.8,72C45.48,71.92,45.49,71.82,45.83,71.21Z"/><path class="cls-3" d="M27,68.18l-.24.69a3,3,0,0,0-.82-.11.71.71,0,0,0-.49.33c-.05.1.13.35.25.48a2.39,2.39,0,0,0,.46.29A1.19,1.19,0,0,1,26,72a2.27,2.27,0,0,1-2.16,0c.13-.75.13-.74.81-.59a.94.94,0,0,0,.49.05.46.46,0,0,0,.22-.85c-.16-.16-.4-.25-.58-.4a1.13,1.13,0,0,1,.07-1.87A2,2,0,0,1,27,68.18Z"/><path class="cls-3" d="M28,68.91l-.49-.12.15-.73.54-.06c-.06-.81.54-.85,1.16-1l-.11,1,.83,0-.12.71c-.07,0-.1.07-.13.06-.67-.12-.91.23-1,.83a4.79,4.79,0,0,1-.16.92c-.13.49-.06.81.56.77,0,.43.14.83-.5.86s-1.17-.24-1.15-.8a15.89,15.89,0,0,1,.25-1.8C27.86,69.4,27.9,69.18,28,68.91Z"/><path class="cls-3" d="M70.5,68.05h.81l0,.41,1.38-.68c-.07.67,0,1.14-.72,1.29-.58.11-.73.72-.87,1.24-.09.33-.13.68-.2,1-.18.91-.18.91-1.15.76Z"/><path class="cls-3" d="M73.36,68.05h.82l0,.4,1.38-.67c-.07.66,0,1.14-.71,1.28s-.75.72-.87,1.24-.24,1.19-.36,1.81h-1Z"/><path class="cls-3" d="M17.91,68.05h.81l.06.49a4.23,4.23,0,0,1,.62-.45,3.2,3.2,0,0,1,.73-.2c0,.56,0,1-.69,1.17s-.73.73-.87,1.25a8.75,8.75,0,0,0-.2,1c-.19.91-.19.91-1.16.76Z"/><path class="cls-2" d="M92,53.54a1.58,1.58,0,1,1-3.15,0,1.58,1.58,0,1,1,3.15,0Zm-1.55,1.25a1.27,1.27,0,0,0,1.26-1.26,1.29,1.29,0,1,0-1.26,1.26Z"/><path class="cls-3" d="M23.8,66.44c-.57.47-.76,1.38-1.75,1.16C22.42,66.44,22.75,66.2,23.8,66.44Z"/><path class="cls-2" d="M53.05,34.06a8.44,8.44,0,1,1-8.31-8.5A8.47,8.47,0,0,1,53.05,34.06Zm-.56.07a7.87,7.87,0,1,0-8.55,7.81A7.88,7.88,0,0,0,52.49,34.13Z"/><path class="cls-2" d="M91.13,54.46c-.61,0-.22-1-.95-.74l-.1.74-.14,0a1.33,1.33,0,0,1-.1-.34c0-.4,0-.81,0-1.21s.18-.51.54-.47.84.2.69.57S91.07,54,91.13,54.46Zm-1.08-1.25.28.23.42-.44-.33-.26Z"/><path class="cls-2" d="M42.08,39.09h-2c-.06-.85-.14-1.69-.17-2.53s0-1.81,0-2.71c0-1.07-.22-1.43-1.27-1.74L38.2,32v-.88l3.07.23a3.58,3.58,0,0,1-.61-1,2.13,2.13,0,0,1,.12-1.17,1.21,1.21,0,0,1,1.37-.69,1.41,1.41,0,0,1,1.06,1.32c0,.77-.32,1.28-1.27,1.62a4.17,4.17,0,0,1,2.73,1.06,1.83,1.83,0,0,0,1.72.23c.58-.12,1.15-.26,1.73-.35a1.5,1.5,0,0,1,1.94,1.46c.19,1.71.31,3.43.45,5.13a21.66,21.66,0,0,1-3.23,0A1.9,1.9,0,0,1,46,36.35c.2-.58.58-1.1.83-1.67a4.69,4.69,0,0,0,.19-.86l-.78-.12c-.78-.13-1.56-.2-2.32-.39-.43-.11-.7,0-.79.37-.29,1.21-.57,2.43-.81,3.65C42.18,37.9,42.15,38.49,42.08,39.09Z"/><path class="cls-2" d="M49.72,32.16H48.43a1.32,1.32,0,0,1-1.23-1.77,1.22,1.22,0,0,1,1.28-.9,1.28,1.28,0,0,1,1.1,1.13C49.63,31.1,49.67,31.6,49.72,32.16Z"/></svg>