<svg id="Layer_1" data-name="Layer 1" xmlns="http://www.w3.org/2000/svg" viewBox="0 0 96.39 96.39"><defs><style>.cls-1{fill:none;}.cls-2{fill:#009d29;fill-rule:evenodd;}</style></defs><rect class="cls-1" width="96.39" height="96.39"/><path class="cls-2" d="M31.33,44.5l.3.78c.44,1.12.89,2.23,1.34,3.32s.87,2.1,1.3,3.07.8,1.79,1.15,2.46l-.83,0H33.06c-.26,0-.51,0-.76,0l-.6-1.73c-.2-.59-.42-1.18-.65-1.77l-1.15,0-1.16,0-.94,0-.94,0c-.24.59-.46,1.18-.67,1.77s-.39,1.16-.56,1.73a3,3,0,0,0-.43,0h-.85l-.47,0,.58-1.25.79-1.8.93-2.15,1-2.35c.3-.7.59-1.4.87-2.08Zm6.65,0c0,.74,0,1.57,0,2.52v2.36c0,1,0,1.81,0,2.56s-.06,1.47-.11,2.19c.2,0,.43,0,.67,0h1.62c.24,0,.47,0,.67,0,0-.72-.08-1.44-.11-2.19s0-1.6,0-2.56v-.89c1.36,0,2.72,0,4.09.16a2.24,2.24,0,0,0-.07-.42l0-.29a3.25,3.25,0,0,1,0-.33l.07-.45-2,.08c-.63,0-1.33,0-2.11,0V45.4q0-.45,0-.9Zm9.84,0c0,.74,0,1.57,0,2.52v2.36c0,1,0,1.81,0,2.56s-.06,1.47-.11,2.19c.2,0,.43,0,.67,0H50c.24,0,.46,0,.67,0-.05-.72-.08-1.44-.11-2.19s0-1.6,0-2.56V47c0-1,0-1.78,0-2.51Zm6.66,0c0,.74,0,1.57,0,2.52v2.36c0,1,0,1.81,0,2.56s-.06,1.47-.1,2.19q.3,0,.66,0h1.63c.24,0,.46,0,.67,0-.05-.72-.09-1.44-.11-2.19s0-1.6,0-2.56v-.71h.16l3.24,5.46q.4,0,.81,0H63l.82,0-2-2.9c-.66-1-1.28-2-1.86-2.95a4.05,4.05,0,0,0,2.08-1.12,3,3,0,0,0,.72-2.07,3.48,3.48,0,0,0-.05-.58H60a4.45,4.45,0,0,1,.1,1A2.19,2.19,0,0,1,57.59,48h-.2l-.2,0c0-1.14,0-2.28,0-3.41Zm13.39,0c-.16,1.24-.34,2.47-.53,3.7q-.45,2.94-1,5.93l.42,0h.85a3.11,3.11,0,0,1,.43,0l.29-3.89c.1-1.29.24-2.6.43-3.93.72,1.33,3.32,6.53,4,7.82l.17,0h.34l.18,0c.65-1.33,1.31-2.65,2-4l2-4c.18,1.37.32,2.74.45,4.13s.25,2.68.31,3.87c.25,0,.51,0,.76,0h1.46c.25,0,.5,0,.74,0-.11-.58-.23-1.34-.36-2.29s-.26-2-.4-3.05l-.41-3.37-.11-.92h-2.9c-.31.65-.64,1.29-1,1.94-.72,1.42-1.43,2.77-2.15,4.06l-1-1.94-1.07-2.08-1-2Zm16.39,0c0,.74,0,1.57,0,2.52v2.36c0,1,0,1.81,0,2.56s-.06,1.47-.11,2.19l.34,0h5.44l1.21,0a1.26,1.26,0,0,1-.06-.26c0-.1,0-.25,0-.43s0-.33,0-.44l.06-.34c-.7.08-1.39.14-2.08.17s-1.37.05-2.06.05c0-.69,0-1.42,0-2.17V49.6c0-.37,0-.74,0-1.11,1.36,0,2.72,0,4.1.16a3.16,3.16,0,0,0-.08-.42v-.29c0-.12,0-.23,0-.33l.08-.45-2,.08c-.63,0-1.33,0-2.11,0V45.4q0-.45,0-.9ZM29,45.47c-.31.7-.61,1.38-.89,2.07s-.54,1.36-.81,2.06h3.31c-.27-.7-.53-1.39-.8-2.06s-.52-1.37-.81-2.07Z"/><path class="cls-2" d="M28,44.5a2.44,2.44,0,0,0,.1-.24c.33-.77.62-1.48.89-2.14l.34.07.34,0,.35,0,.34-.07.93,2.38Zm12.68,0q0-.49.06-1l.66,0,1.05,0,1.21.07,1.16.07-.06-.35c0-.1,0-.25,0-.43a2.89,2.89,0,0,1,.08-.73c-.24,0-.71,0-1.41.07l-2.37,0c-.54,0-1.07,0-1.6,0l-1.61,0c.05.75.08,1.5.11,2.26v0Zm9.84,0v0c0-.76.06-1.51.11-2.26l-.67.07-.81,0-.81,0-.67-.07c0,.75.08,1.5.11,2.26v0Zm6.66,0,0-1.3a9.15,9.15,0,0,1,1.26.07,1.91,1.91,0,0,1,.87.31,1.31,1.31,0,0,1,.5.68,1.37,1.37,0,0,1,.07.24h2.81a2.42,2.42,0,0,0-.28-.75,2.58,2.58,0,0,0-.85-1,2.62,2.62,0,0,0-.5-.26,2.68,2.68,0,0,0-.62-.19,6.76,6.76,0,0,0-.83-.11q-.48,0-1.17,0c-.61,0-1.13,0-1.55,0s-.78,0-1.1,0l-.82,0-.66-.07c0,.75.08,1.5.1,2.26v0Zm13.51,0-.08-.17-1-2.12-.37.07-.35,0-.38,0-.36-.07c-.09.77-.19,1.53-.3,2.29Zm9.09,0-.27-2.29a3.34,3.34,0,0,1-1.54,0c-.35.76-.71,1.52-1.09,2.29Zm7.18,0q0-.49.06-1l.67,0,1,0,1.21.07,1.16.07-.06-.35c0-.1,0-.25,0-.43a3,3,0,0,1,.07-.73c-.24,0-.71,0-1.41.07l-2.37,0c-.54,0-1.07,0-1.6,0l-1.61,0c0,.75.08,1.5.11,2.26v0Z"/><path class="cls-2" d="M15.35,44.94l-1.83-2.82L5.25,54.27H8.86l3.33-4.8a1.19,1.19,0,0,1-1.36-.17c-.68-.58-.06-1.61-.06-1.61l2.94-4.46,1.4,2,.24-.28ZM17.57,48l-2-2.72-6.08,9h3.67l1.71-2.43a1.26,1.26,0,0,1-1.44-.34,1.23,1.23,0,0,1,.07-1.62c.24-.34,2.34-3.47,2.34-3.47l1.4,1.93.28-.3Zm4.25,6.23-4-5.83-4,5.83h7l-.48-.65H17.67s-2.19-.18-1.09-1.88L18,49.64l3.27,4.63Z"/></svg>