<svg id="Layer_1" data-name="Layer 1" xmlns="http://www.w3.org/2000/svg" viewBox="0 0 96.39 96.39"><defs><style>.cls-1{fill:none;}.cls-2{fill:#b82a2e;}.cls-3{fill:#176640;}.cls-4{fill:#686c75;}</style></defs><rect class="cls-1" width="96.39" height="96.39"/><path class="cls-2" d="M48.19,38.88A6.08,6.08,0,1,0,54.27,45a6.08,6.08,0,0,0-6.08-6.08"/><path class="cls-3" d="M51.35,32.75l-.4-.12a44.43,44.43,0,0,1,5.12-1.21,46.4,46.4,0,0,0-7,.44l-.83.14-.82-.14a46.4,46.4,0,0,0-7-.44,44.43,44.43,0,0,1,5.12,1.21l-.41.12c-9.07,2.84-15.9,9-15.41,14.14.41,4.23,4.72,6.37,11.74,5.64-3.9-.71-5.5-2.69-5.79-5.68-.45-4.58,4.75-10,12.12-13.11l.51-.2.5.2c7.37,3.11,12.56,8.53,12.12,13.11-.28,3-1.89,5-5.79,5.68,7,.73,11.33-1.41,11.73-5.64.5-5.09-6.34-11.3-15.41-14.14"/><path class="cls-4" d="M11.82,60.13v0a2.42,2.42,0,0,0,2.39-2.31c0-1.73-1.64-2.09-2.58-2.09H7.58L5.67,64.81l4.16,0c2.09,0,3.75-.94,3.75-2.87a1.79,1.79,0,0,0-1.76-1.76m-2.72,3H8.45L8.89,61h.59c1.1,0,1.67.12,1.67.91s-.82,1.23-2.05,1.23m1.06-3.79H9.24l.39-1.88h.63c.92,0,1.52.12,1.52.85s-.6,1-1.62,1"/><path class="cls-4" d="M18.39,57.85a7.53,7.53,0,0,0-2.5.39L15.66,60a4.24,4.24,0,0,1,2.21-.54c.77,0,1.25.39,1.25.88a1.23,1.23,0,0,1,0,.27c-.33,0-.8-.07-1.27-.07-2.08,0-3.75.83-3.75,2.5,0,1.32.81,2,2.27,2a2.59,2.59,0,0,0,2.29-1.11v0l0,0-.1,1h1.92c.26-2.06.86-3.59.86-4.66,0-1.67-1.33-2.31-2.95-2.31M17.1,63.4a.75.75,0,0,1-.8-.68c0-.59.82-1,1.95-1a3.5,3.5,0,0,1,.62,0,1.77,1.77,0,0,1-1.77,1.6"/><path class="cls-4" d="M27.62,57.85A3.22,3.22,0,0,0,25,59.12h0L25.15,58H23a17.38,17.38,0,0,1-.29,1.78l-1.05,5H24l.67-3.14c.16-1,.75-1.87,1.75-1.87a.78.78,0,0,1,.91.78,5.12,5.12,0,0,1-.16,1l-.65,3.19h2.43l.63-3.18a6.47,6.47,0,0,0,.18-1.44,2.1,2.1,0,0,0-2.11-2.35"/><path class="cls-4" d="M34.84,59.57a3.73,3.73,0,0,1,1.52.37l.51-1.63a6.26,6.26,0,0,0-2.15-.46,4.09,4.09,0,0,0-4.39,4A3,3,0,0,0,33.55,65a6.26,6.26,0,0,0,2-.26L35.9,63a3.65,3.65,0,0,1-1.52.3,1.5,1.5,0,0,1-1.62-1.48,2,2,0,0,1,2.08-2.2"/><path class="cls-4" d="M40.93,57.85c-2.67,0-4.39,1.62-4.39,4,0,1.71,1,3.11,3.54,3.11s4.39-1.24,4.39-4.08c0-1.71-1.23-3-3.54-3m-.68,5.48c-.8,0-1.28-.61-1.28-1.52,0-1.09.7-2.31,1.84-2.31.92,0,1.23.66,1.23,1.37,0,1.54-.69,2.46-1.79,2.46"/><path class="cls-4" d="M52.09,55.69l-5.42,9.13h2.64l1.08-1.95h3.54l.25,1.95h2.46l-1.49-9.13Zm-.75,5.45,1.94-3.56h0l.4,3.56Z"/><polygon class="cls-4" points="57.99 59.73 60.91 59.73 57.2 63.04 56.86 64.82 62.78 64.82 63.13 63.09 60.02 63.09 63.76 59.79 64.12 58.01 58.35 58.01 57.99 59.73"/><path class="cls-4" d="M67.77,59.65h1.71L69.77,58H68.15l.47-2.13-2.49.67L65.81,58H64.46l-.29,1.64h1.26L65,61.56a7,7,0,0,0-.21,1.4A1.91,1.91,0,0,0,67,65a9.2,9.2,0,0,0,1.46-.13l.27-1.55a2.36,2.36,0,0,1-.76.19.72.72,0,0,1-.77-.76,6.76,6.76,0,0,1,.19-1.17Z"/><path class="cls-4" d="M73.61,57.85a3.92,3.92,0,0,0-4.08,4c0,1.71,1.23,3.11,3.5,3.11a8.63,8.63,0,0,0,2.38-.38l.3-1.66a5.2,5.2,0,0,1-2.13.47c-1.43,0-1.8-.57-1.83-1.3h4.83a7.8,7.8,0,0,0,.17-1.28c0-2.07-1.35-3-3.14-3M71.9,60.77a1.74,1.74,0,0,1,1.74-1.35c.86,0,1.15.61,1.15,1.35Z"/><path class="cls-4" d="M81.83,59.57a3.65,3.65,0,0,1,1.51.37l.51-1.63a6.16,6.16,0,0,0-2.14-.46,4.09,4.09,0,0,0-4.39,4A3,3,0,0,0,80.53,65a6.28,6.28,0,0,0,2-.26L82.89,63a3.65,3.65,0,0,1-1.52.3,1.5,1.5,0,0,1-1.62-1.48,2,2,0,0,1,2.08-2.2"/><path class="cls-4" d="M87.76,57.85a7.53,7.53,0,0,0-2.5.39L85,60a4.24,4.24,0,0,1,2.21-.54c.77,0,1.25.39,1.25.88a1.23,1.23,0,0,1,0,.27c-.33,0-.8-.07-1.27-.07-2.08,0-3.75.83-3.75,2.5,0,1.32.81,2,2.27,2A2.58,2.58,0,0,0,88,63.86v0l0,0-.1,1h1.92c.26-2.06.86-3.59.86-4.66,0-1.67-1.33-2.31-2.95-2.31M86.47,63.4a.75.75,0,0,1-.8-.68c0-.59.82-1,2-1a3.5,3.5,0,0,1,.62,0,1.77,1.77,0,0,1-1.77,1.6"/></svg>