<svg xmlns="http://www.w3.org/2000/svg" viewBox="0 0 96.39 96.39"><defs><style>.cls-1{fill:#dd1f26;}.cls-2{fill:none;}</style></defs><g id="Layer_2" data-name="Layer 2"><g id="Capa_1" data-name="Capa 1"><path class="cls-1" d="M80.85,47c-1.52-.39-4.91-1.11-8.13-1.76l.14-.11c2.44-2.27,7.21-11.25,7.21-11.25,1-2.15-1.21-5.76-1.21-5.76l-.13-.2A38.79,38.79,0,0,0,62.58,14.89s-3.56-.63-5.4,2.21c-.88,1.37-2.74,4.55-4.44,7.49a3.68,3.68,0,0,0-.19-.87c-1.37-3-8.35-10.43-8.35-10.43-1.71-1.64-5.85-.7-5.85-.7l-.22.06A38.85,38.85,0,0,0,20.58,23.77s-1.74,3.17.37,5.83c1,1.27,3.43,4,5.67,6.59a2.83,2.83,0,0,0-.67,0c-3.32.43-12.41,5-12.41,5-2.07,1.16-2.37,5.39-2.37,5.39v.24a38.85,38.85,0,0,0,5.54,20s2.53,2.58,5.69,1.33c1.51-.59,4.86-2.1,7.94-3.5-.57,3.77.22,12.7.22,12.7.33,2.35,4.16,4.17,4.16,4.17l.21.09A38.7,38.7,0,0,0,55.58,83.7s3.33-1.41,3.32-4.8c0-1.62-.17-5.29-.36-8.67a3.87,3.87,0,0,0,.65.55c2.93,1.6,13,3.28,13,3.28,2.36.28,5.09-3,5.09-3l.14-.18a38.76,38.76,0,0,0,7.29-19.45S84.13,47.88,80.85,47ZM33.94,29.69a23.3,23.3,0,0,1,14.28-4.86,37.12,37.12,0,0,1,4.16.39l-3.12,5.46a7.29,7.29,0,0,0-1.11,3c0-.6-.26-1.77-2.07-2.87-2.58-1.56-5.39,1.1-8.2,1.57s-4.73-.06-3.88-2.76ZM30.88,44.41c-2.24,2-.52,5.47-.89,8.3s-1.42,4.51-3.77,2.91l0,.07a23.31,23.31,0,0,1-.51-15.08,37.47,37.47,0,0,1,1.51-3.7c2.17,2.46,4,4.53,4,4.53a7.38,7.38,0,0,0,2,1.75A4.35,4.35,0,0,0,30.88,44.41ZM48.7,70.77h.07a23.34,23.34,0,0,1-14.22-5,27.12,27.12,0,0,1-2.22-2.06l4.39-2a6.93,6.93,0,0,0,3.14-2.46,3.9,3.9,0,0,0,.1,3.15c1,2.82,4.9,2.48,7.4,3.85S51,69.18,48.7,70.77ZM56.15,58.5a4.56,4.56,0,0,0-2.3-.89S43.66,56,40.4,58.52a1.55,1.55,0,0,0-.37.4,4.36,4.36,0,0,0,.33-3.31s-2-8.94-5.17-11.74a4.47,4.47,0,0,0,2.93-.7s9-5.07,10-9.05a1.13,1.13,0,0,0,0-.12,4.37,4.37,0,0,0,1.68,3.71s6.83,6.12,11,6.55A4.44,4.44,0,0,0,59,46.56S55.66,54.2,56.15,58.5ZM62,67.29a39.86,39.86,0,0,1-3.48,2.15c-.18-3.36-.36-6.24-.36-6.24A7.53,7.53,0,0,0,57.79,61a4.83,4.83,0,0,0,2.27.23c3-.31,3.63-4.12,5.59-6.19s3.81-2.8,4.76-.14l0-.06A23.35,23.35,0,0,1,62,67.29Zm3.49-23.48a7.58,7.58,0,0,0-2.57-.2A4.45,4.45,0,0,0,64,41.31c.65-2.94-2.76-4.75-4.1-7.27s-1.46-4.49,1.37-4.56l-.06,0a23.33,23.33,0,0,1,9.18,12A34.22,34.22,0,0,1,71.29,45C68.13,44.33,65.47,43.81,65.47,43.81Z"/><rect class="cls-2" width="96.39" height="96.39"/></g></g></svg>