<svg xmlns="http://www.w3.org/2000/svg" viewBox="0 0 96.39 96.39"><defs><style>.cls-1{fill:none;}.cls-2{fill:#ee3124;}</style></defs><g id="Layer_2" data-name="Layer 2"><g id="Capa_1" data-name="Capa 1"><rect class="cls-1" width="96.39" height="96.39"/><path class="cls-2" d="M63.61,45.54a15,15,0,0,0-2.09-6.91L50.6,19.52a16.59,16.59,0,0,1-1.77-4.66l-.48.8a15.24,15.24,0,0,0,0,15.26l8.84,15.27a15.22,15.22,0,0,1,0,15.25l-.48.81a16.79,16.79,0,0,0-1.77-4.66l-8-14-5.15-9A16.45,16.45,0,0,1,40,30l-.48.8a15.19,15.19,0,0,0,0,15.26h0l8.83,15.27a15.24,15.24,0,0,1,0,15.26l-.48.8a16.18,16.18,0,0,0-1.77-4.66L35,53.57a16.92,16.92,0,0,1-2.09-8.35C21.2,48.27,13,54.86,13,62.41,13,73,28.75,81.53,48.19,81.53S83.37,73,83.37,62.41C83.53,55.18,75.5,48.6,63.61,45.54Z"/></g></g></svg>