<svg id="Layer_1" data-name="Layer 1" xmlns="http://www.w3.org/2000/svg" viewBox="0 0 96.39 96.39"><defs><style>.cls-1{fill:none;}.cls-2{fill:#11284a;fill-rule:evenodd;}</style></defs><rect class="cls-1" width="96.39" height="96.39"/><path class="cls-2" d="M15.93,43.26A4.92,4.92,0,0,0,11,48.19a4.72,4.72,0,0,0,1.44,3.5,4.67,4.67,0,0,0,3.49,1.48,4.67,4.67,0,0,0,3.5-1.48,4.72,4.72,0,0,0,1.44-3.5,4.92,4.92,0,0,0-4.94-4.93Z"/><path class="cls-2" d="M15.93,42.39V36.75a11.55,11.55,0,0,0-5.63,1.49V46.8a5.49,5.49,0,0,1,2-3.1,5.56,5.56,0,0,1,3.62-1.31Z"/><path class="cls-2" d="M14.71,54a5.32,5.32,0,0,1-3.14-2.05,5.35,5.35,0,0,1-1.27-3.58H4.49A11.1,11.1,0,0,0,6,54Z"/><path class="cls-2" d="M21.61,49.68a5.5,5.5,0,0,1-2,3.14A5.72,5.72,0,0,1,16,54.09v5.55a11,11,0,0,0,5.63-1.49V49.68Z"/><path class="cls-2" d="M27.38,48.15a11.15,11.15,0,0,0-1.53-5.63H17.37a5.46,5.46,0,0,1,3.15,2,5.58,5.58,0,0,1,1.27,3.62Z"/><polygon class="cls-2" points="30 42.82 30 49.46 32.01 49.46 32.01 42.82 30 42.82 30 42.82"/><polygon class="cls-2" points="42.53 42.82 40.48 42.82 40.48 47.63 40.48 47.63 36.59 42.82 33.45 42.82 33.45 49.46 35.5 49.46 35.5 44.61 35.5 44.61 39.34 49.46 42.53 49.46 42.53 42.82 42.53 42.82"/><path class="cls-2" d="M45.89,45.44v-1h3.63c.39,0,.61.17.61.52s-.22.52-.61.52Zm0,1.36h3.67c.48,0,.74.22.74.56s-.26.49-.74.49H45.89V46.8Zm5.29-.7v-.05a1.12,1.12,0,0,0,.7-.39,1.59,1.59,0,0,0,.3-1.13,1.62,1.62,0,0,0-.61-1.36,3.41,3.41,0,0,0-1.83-.35h-5.9v6.64h6.55a2.58,2.58,0,0,0,1.44-.3,1.85,1.85,0,0,0,.57-1.45,1.92,1.92,0,0,0-.26-1.13,1.37,1.37,0,0,0-1-.48Z"/><path class="cls-2" d="M62,42.82H60v3.85a1.43,1.43,0,0,1-.27.87,1.14,1.14,0,0,1-.91.31h-2a1.17,1.17,0,0,1-.92-.31,1.26,1.26,0,0,1-.22-.87V42.82H53.58V47.1a2.36,2.36,0,0,0,.66,1.84,2.83,2.83,0,0,0,2,.61h3a2.86,2.86,0,0,0,2.05-.61A2.36,2.36,0,0,0,62,47.1V42.82Z"/><path class="cls-2" d="M65.33,46.05V44.44h3.23c.55,0,.92.09.92.7v.22c0,.48-.27.69-.75.69Zm0,1.71h3.23a.89.89,0,0,1,.65.17,1.06,1.06,0,0,1,.18.75v.78h2V48.33a1.57,1.57,0,0,0-.3-1.1,1.77,1.77,0,0,0-.79-.39,1.39,1.39,0,0,0,.92-.57,2.4,2.4,0,0,0,.22-1.09v-.39a2.12,2.12,0,0,0-.4-1.44,2,2,0,0,0-1.61-.53h-6.2v6.64h2v-1.7Z"/><path class="cls-2" d="M77.16,45.31l-2-.08a.35.35,0,0,1-.3-.18.46.46,0,0,1-.09-.31c0-.34.26-.52.78-.52h2.27a1.87,1.87,0,0,1,.88.13c.09.09.13.26.13.57h2V44.7a1.85,1.85,0,0,0-.43-1.44,3,3,0,0,0-2.14-.57H75.37a3.19,3.19,0,0,0-2.31.61,2.4,2.4,0,0,0-.39,1.53,3.16,3.16,0,0,0,.13,1.05,1,1,0,0,0,.43.61,6.61,6.61,0,0,0,2.89.39l2.44.09a.38.38,0,0,1,.35.18l.09.35a.52.52,0,0,1-.26.48l-.62.08H75.59l-.65-.13c-.13-.08-.22-.3-.22-.65h-2v.48a1.59,1.59,0,0,0,.61,1.44,4.17,4.17,0,0,0,2,.35h2.48a5.79,5.79,0,0,0,2.67-.39,1,1,0,0,0,.52-.62,3.6,3.6,0,0,0,.13-1.09,2.57,2.57,0,0,0-.17-1.13,1.07,1.07,0,0,0-.57-.66,8.32,8.32,0,0,0-3.19-.35Z"/><polygon class="cls-2" points="87.91 42.82 85.24 42.82 81.62 49.46 83.93 49.46 84.5 48.28 85.29 46.84 86.6 44.35 87.91 46.84 85.29 46.84 84.5 48.28 88.69 48.28 89.31 49.46 91.58 49.46 87.91 42.82 87.91 42.82"/><path class="cls-2" d="M46.74,54.7v-.52h1.88v1.65a3,3,0,0,1-.89.52,2.61,2.61,0,0,1-2.13-.1,1.86,1.86,0,0,1-.81-.81,2.61,2.61,0,0,1-.28-1.19A2.79,2.79,0,0,1,44.79,53a1.8,1.8,0,0,1,.78-.83,2.36,2.36,0,0,1,1.17-.28,2.21,2.21,0,0,1,.87.16,1.46,1.46,0,0,1,.61.43,2,2,0,0,1,.34.73l-.53.15a1.7,1.7,0,0,0-.25-.54,1,1,0,0,0-.43-.31,1.66,1.66,0,0,0-.61-.11,1.78,1.78,0,0,0-.69.12,1.3,1.3,0,0,0-.48.32,1.57,1.57,0,0,0-.28.44,2.39,2.39,0,0,0-.17.89,2.15,2.15,0,0,0,.21,1,1.25,1.25,0,0,0,.59.59,1.85,1.85,0,0,0,.83.2,2,2,0,0,0,.75-.15,2.11,2.11,0,0,0,.55-.31V54.7Z"/><path class="cls-2" d="M49.41,56.44V53.22h.49v.49a1.42,1.42,0,0,1,.35-.45.66.66,0,0,1,.35-.11,1,1,0,0,1,.56.18l-.19.5a.74.74,0,0,0-.39-.12.57.57,0,0,0-.33.11.59.59,0,0,0-.2.3,2.11,2.11,0,0,0-.09.64v1.68Z"/><path class="cls-2" d="M53.6,56.44V56A1.27,1.27,0,0,1,52,56.4a.86.86,0,0,1-.36-.27,1,1,0,0,1-.17-.4,2.89,2.89,0,0,1,0-.51v-2H52V55a3.49,3.49,0,0,0,0,.57.58.58,0,0,0,.22.34.69.69,0,0,0,.41.12.9.9,0,0,0,.46-.12.72.72,0,0,0,.31-.34,1.75,1.75,0,0,0,.09-.63V53.22h.54v3.22Z"/><path class="cls-2" d="M54.94,57.67V53.22h.5v.42a1,1,0,0,1,.93-.49,1.24,1.24,0,0,1,1.2.81,2.31,2.31,0,0,1,0,1.74,1.31,1.31,0,0,1-.51.6,1.33,1.33,0,0,1-.71.21,1.1,1.1,0,0,1-.49-.11,1.31,1.31,0,0,1-.36-.29v1.56Zm.49-2.82a1.46,1.46,0,0,0,.25.92.76.76,0,0,0,.61.29.79.79,0,0,0,.62-.3,1.45,1.45,0,0,0,.26-1,1.42,1.42,0,0,0-.25-.92.76.76,0,0,0-1.22,0,1.47,1.47,0,0,0-.27,1Z"/><path class="cls-2" d="M58.19,54.83a1.65,1.65,0,0,1,.49-1.32,1.51,1.51,0,0,1,1-.36,1.4,1.4,0,0,1,1.08.44,1.62,1.62,0,0,1,.42,1.2,2.15,2.15,0,0,1-.18,1,1.41,1.41,0,0,1-.55.56,1.54,1.54,0,0,1-.77.19,1.46,1.46,0,0,1-1.1-.43,1.73,1.73,0,0,1-.41-1.25Zm.56,0a1.39,1.39,0,0,0,.27.93.91.91,0,0,0,1.35,0,1.42,1.42,0,0,0,.27-.95,1.33,1.33,0,0,0-.27-.9.89.89,0,0,0-1.35,0,1.35,1.35,0,0,0-.27.92Z"/><polygon class="cls-2" points="63.66 56.44 63.66 52 66.66 52 66.66 52.52 64.25 52.52 64.25 53.9 66.34 53.9 66.34 54.42 64.25 54.42 64.25 56.44 63.66 56.44 63.66 56.44"/><path class="cls-2" d="M67.36,52.63V52h.54v.63Zm0,3.81V53.22h.54v3.22Z"/><path class="cls-2" d="M68.73,56.44V53.22h.5v.46a1.15,1.15,0,0,1,1-.53,1.32,1.32,0,0,1,.53.1.84.84,0,0,1,.37.28,1,1,0,0,1,.17.4,3.16,3.16,0,0,1,0,.53v2H70.8v-2a1.57,1.57,0,0,0-.06-.5.52.52,0,0,0-.23-.26.74.74,0,0,0-.38-.1.92.92,0,0,0-.6.22,1.1,1.1,0,0,0-.25.84v1.76Z"/><path class="cls-2" d="M74.29,56a2.18,2.18,0,0,1-.59.37,1.68,1.68,0,0,1-.6.1,1.13,1.13,0,0,1-.81-.26.85.85,0,0,1-.29-.66.89.89,0,0,1,.11-.43.84.84,0,0,1,.28-.31,1.38,1.38,0,0,1,.39-.18,2.91,2.91,0,0,1,.49-.08,5.87,5.87,0,0,0,1-.19v-.14a.6.6,0,0,0-.15-.47.89.89,0,0,0-.62-.19,1,1,0,0,0-.57.14.81.81,0,0,0-.27.47l-.53-.07a1.21,1.21,0,0,1,.23-.55,1.12,1.12,0,0,1,.49-.33,2.29,2.29,0,0,1,.73-.11,1.86,1.86,0,0,1,.67.1.89.89,0,0,1,.38.24.83.83,0,0,1,.16.37,2.75,2.75,0,0,1,0,.5v.73a6.14,6.14,0,0,0,0,1,1.28,1.28,0,0,0,.13.39h-.57a1.12,1.12,0,0,1-.1-.4Zm-.05-1.21a4.45,4.45,0,0,1-.89.2,2.15,2.15,0,0,0-.48.11.46.46,0,0,0-.21.18.47.47,0,0,0-.08.26.48.48,0,0,0,.17.36.69.69,0,0,0,.48.15,1.13,1.13,0,0,0,.56-.14.83.83,0,0,0,.36-.38,1.25,1.25,0,0,0,.09-.54v-.2Z"/><path class="cls-2" d="M75.64,56.44V53.22h.49v.46a1.16,1.16,0,0,1,1-.53,1.37,1.37,0,0,1,.54.1.87.87,0,0,1,.36.28,1,1,0,0,1,.17.4,3.16,3.16,0,0,1,0,.53v2h-.54v-2a1.29,1.29,0,0,0-.07-.5.5.5,0,0,0-.22-.26.8.8,0,0,0-.38-.1.93.93,0,0,0-.61.22,1.14,1.14,0,0,0-.25.84v1.76Z"/><path class="cls-2" d="M81.19,55.26l.53.07a1.32,1.32,0,0,1-.45.87,1.29,1.29,0,0,1-.89.31,1.37,1.37,0,0,1-1.06-.43,1.79,1.79,0,0,1-.4-1.24,2.34,2.34,0,0,1,.17-.91,1.16,1.16,0,0,1,.53-.58,1.45,1.45,0,0,1,.77-.2,1.29,1.29,0,0,1,.85.27,1.14,1.14,0,0,1,.43.75l-.53.08a.87.87,0,0,0-.27-.49.66.66,0,0,0-.46-.16.86.86,0,0,0-.67.29,1.86,1.86,0,0,0,0,1.88.87.87,0,0,0,1.19.1,1,1,0,0,0,.27-.61Z"/><path class="cls-2" d="M82.19,52.63V52h.55v.63Zm0,3.81V53.22h.55v3.22Z"/><path class="cls-2" d="M85.77,55.4l.57.07a1.39,1.39,0,0,1-.5.77,1.5,1.5,0,0,1-.92.27,1.48,1.48,0,0,1-1.12-.43,1.73,1.73,0,0,1-.41-1.22,1.78,1.78,0,0,1,.42-1.26,1.41,1.41,0,0,1,1.08-.45,1.37,1.37,0,0,1,1,.44,1.7,1.7,0,0,1,.41,1.24V55H84a1.24,1.24,0,0,0,.3.81.89.89,0,0,0,.67.28.91.91,0,0,0,.52-.15,1.08,1.08,0,0,0,.33-.51ZM84,54.52h1.8a1.1,1.1,0,0,0-.21-.61.82.82,0,0,0-.67-.31.85.85,0,0,0-.63.25,1,1,0,0,0-.29.67Z"/><path class="cls-2" d="M87,56.44V53.22h.49v.49a1.29,1.29,0,0,1,.34-.45.66.66,0,0,1,.35-.11,1,1,0,0,1,.56.18l-.18.5a.8.8,0,0,0-.4-.12.57.57,0,0,0-.33.11.59.59,0,0,0-.2.3,2.11,2.11,0,0,0-.09.64v1.68Z"/><path class="cls-2" d="M88.88,54.83a1.65,1.65,0,0,1,.5-1.32,1.49,1.49,0,0,1,1-.36,1.41,1.41,0,0,1,1.09.44,1.62,1.62,0,0,1,.42,1.2,2,2,0,0,1-.19,1,1.32,1.32,0,0,1-.54.56,1.61,1.61,0,0,1-.78.19,1.44,1.44,0,0,1-1.09-.43,1.73,1.73,0,0,1-.42-1.25Zm.56,0a1.39,1.39,0,0,0,.27.93.92.92,0,0,0,1.36,0,1.42,1.42,0,0,0,.27-.95,1.33,1.33,0,0,0-.27-.9.9.9,0,0,0-1.36,0,1.35,1.35,0,0,0-.27.92Z"/></svg>