<svg id="Layer_1" data-name="Layer 1" xmlns="http://www.w3.org/2000/svg" viewBox="0 0 96.39 96.39"><defs><style>.cls-1{fill:none;}.cls-2{fill:#be1005;}</style></defs><rect class="cls-1" width="96.39" height="96.39"/><path class="cls-2" d="M64.85,42.73c2.92,0,5.84,0,8.75,0a1.53,1.53,0,0,1,1.48.87c1,1.77,2,3.52,3,5.27.35.62.65.66,1.15.13q2.53-2.68,5.06-5.4a2.2,2.2,0,0,1,1.84-.8c1,.05,1.9,0,2.85,0a1.9,1.9,0,0,1,.58.23,1.87,1.87,0,0,1-.23.54L78.08,55.53c-.56.6-1.08.54-1.48-.17l-5.93-10.7a.44.44,0,0,0-.1-.16c-.08-.08-.21-.23-.26-.2a.49.49,0,0,0-.25.28,5.41,5.41,0,0,0-.12.58c-.14.61-.35.78-1,.78l-11.53-.06c-.32,0-.63,0-.94,0a3.18,3.18,0,0,0-3,2.67A2.06,2.06,0,0,0,55.62,51l5.71.05h3.75a1.4,1.4,0,0,0,.41,0,.86.86,0,0,0,.58-.9c0-.37-.28-.54-.77-.54l-7.51,0h-.42c-.61,0-.93-.2-1-.61A1.18,1.18,0,0,1,57,47.61a1.57,1.57,0,0,1,.64-.14l11,.07c.54,0,.72.23.62.76q-.47,2.67-.94,5.32c-.09.51-.28.68-.82.67-4.51,0-9,0-13.52-.08A4.62,4.62,0,0,1,49.39,49a7.18,7.18,0,0,1,7-6.37h8.42Z"/><path class="cls-2" d="M43.12,42.66h6.65a3,3,0,0,1,.41,0,.43.43,0,0,1,.4.58c-.11.62-.22,1.23-.34,1.85s-.29.75-.92.75l-5.44,0-6.76,0a3.19,3.19,0,0,0-3.31,2.84,2,2,0,0,0,1.81,2.26c1.23.09,2.48.06,3.72.07l8.79,0,.41,0c.39.06.53.21.47.61-.1.68-.23,1.36-.38,2a.67.67,0,0,1-.68.54H46.52l-11.79-.05a4.89,4.89,0,0,1-3.64-1.34,5,5,0,0,1-1-5.47,7.3,7.3,0,0,1,6.82-4.81c2.08,0,4.16,0,6.24,0Z"/><path class="cls-2" d="M17.4,58.77A10.58,10.58,0,1,1,28,48.27,10.58,10.58,0,0,1,17.4,58.77Zm0-.37A10.2,10.2,0,1,0,7.23,48.24,10.19,10.19,0,0,0,17.43,58.4Z"/><path class="cls-2" d="M70.05,57.09c.15-.08.25-.15.35-.19.32-.11.57.05.55.39a3.93,3.93,0,0,1-.16.83c0,.08-.17.12-.36.23.07-.36.14-.6.16-.84s-.09-.24-.14-.36c-.12.08-.28.13-.33.24s-.1.44-.19.64-.16.18-.25.27l-.11-.08c.05-.25.12-.5.15-.75s-.08-.21-.12-.32c-.11.06-.29.08-.33.17s-.13.48-.22.71-.17.17-.26.26l-.11-.09L69,57a.29.29,0,0,1,.07-.12s.09,0,.1,0C69.4,57.17,69.84,56.55,70.05,57.09Z"/><path class="cls-2" d="M57.55,58.77c.14-.64.27-1.21.4-1.77,0-.07.1-.12.16-.18.21.24.42-.08.6,0s.44.2.49.36a.75.75,0,0,1-.24.91.61.61,0,0,1-.84,0C57.86,58.22,58.15,58.75,57.55,58.77ZM59,57.43c-.2-.18-.3-.33-.43-.36s-.43.22-.43.53.1.43.31.35S58.82,57.66,59,57.43Z"/><path class="cls-2" d="M38.7,56.88c.24-.22,0-.74.56-.8-.14.67-.27,1.28-.41,1.89a.16.16,0,0,1-.13.11,2.64,2.64,0,0,1-.69,0,.62.62,0,0,1-.37-.2.94.94,0,0,1,.12-1A.66.66,0,0,1,38.7,56.88Zm-.05.3c-.08,0-.21-.21-.35-.21-.31,0-.4.29-.38.54a.47.47,0,0,0,.29.35C38.42,57.92,38.65,57.59,38.65,57.18Z"/><path class="cls-2" d="M81.12,54.65a1.27,1.27,0,0,1,1.27-1.25,1.29,1.29,0,0,1,1.25,1.29,1.26,1.26,0,0,1-1.28,1.24A1.24,1.24,0,0,1,81.12,54.65Zm2.34,0a1.07,1.07,0,0,0-1.1-1.08,1.1,1.1,0,0,0-1.09,1.11,1.12,1.12,0,0,0,1.12,1.08A1.08,1.08,0,0,0,83.46,54.66Z"/><path class="cls-2" d="M45.27,56l-.14.71c.27,0,.72.06.74.16a4.15,4.15,0,0,1,0,1.11s-.19.07-.35.12a3.66,3.66,0,0,0,.14-.69,1.15,1.15,0,0,0-.15-.44c-.14.08-.33.13-.4.25a4.75,4.75,0,0,0-.2.64c0,.1-.15.17-.24.25l-.11-.08c.13-.61.26-1.23.41-1.84C44.94,56.16,45.1,56.13,45.27,56Z"/><path class="cls-2" d="M30.69,57.92c-.08,0-.18.15-.3.17a.88.88,0,0,1-1-.55,1.09,1.09,0,0,1,.45-1.24,1.06,1.06,0,0,1,1.19.05.79.79,0,0,1-.3,0c-.44-.06-.83.08-.93.43a.91.91,0,0,0,.05.73C30,57.75,30.34,57.78,30.69,57.92Z"/><path class="cls-2" d="M47.35,58.18a.61.61,0,0,1-.64-.64.81.81,0,0,1,.85-.81.62.62,0,0,1,.63.68A.83.83,0,0,1,47.35,58.18Zm-.29-.52c.07.06.19.23.35.27s.42-.25.43-.56-.07-.39-.33-.39S47.06,57.24,47.06,57.66Z"/><path class="cls-2" d="M73.14,57.53a.8.8,0,0,1-.86.78.6.6,0,0,1-.61-.63.81.81,0,0,1,.87-.82A.6.6,0,0,1,73.14,57.53Zm-.35,0c0-.3-.13-.45-.35-.43a.55.55,0,0,0-.43.57c0,.22.11.41.36.38S72.77,57.78,72.79,57.54Z"/><path class="cls-2" d="M55,56.85c.37-.08.34.16.36.35s.06.37.08.56c.4-.21.27-.88.91-.85l-1,1.69a.47.47,0,0,1-.29.16c-.1,0-.22,0-.33-.07a1.05,1.05,0,0,1,.25-.18.38.38,0,0,0,.27-.49C55.18,57.64,55.11,57.26,55,56.85Z"/><path class="cls-2" d="M52.86,56.77a.57.57,0,0,1,.6.65.78.78,0,0,1-.83.78.58.58,0,0,1-.62-.64A.76.76,0,0,1,52.86,56.77Zm.27.48c-.08-.06-.22-.25-.36-.24a.48.48,0,0,0-.43.56.61.61,0,0,0,.35.39C52.9,58,53.15,57.67,53.13,57.25Z"/><path class="cls-2" d="M67,57a.61.61,0,0,1,.78-.13c.14.06.21.32.25.51a.74.74,0,0,1-.08.43c-.07.16,0,.6-.4.3,0,0-.15.08-.23.1-.26,0-.5,0-.59-.26a.4.4,0,0,1,.34-.53c.21-.05.43-.07.66-.11C67.62,56.91,67.28,57.13,67,57Zm.71.54c-.27,0-.54-.1-.64.22a.3.3,0,0,0,.15.24C67.48,58.09,67.59,57.89,67.69,57.58Z"/><path class="cls-2" d="M43.67,58.05c-.25,0-.47.06-.68.07s-.48,0-.47-.3a.67.67,0,0,1,.31-.47,2.34,2.34,0,0,1,.73-.11c-.14-.4-.42-.33-.78-.25a.56.56,0,0,1,.63-.28c.25,0,.45.16.42.44S43.72,57.78,43.67,58.05Zm-.21-.61c-.27,0-.53-.07-.61.26,0,0,.11.2.18.21C43.31,57.94,43.42,57.75,43.46,57.44Z"/><path class="cls-2" d="M40,57.5c.1.54.47.37.81.4-.06.09-.1.2-.13.19-.27,0-.62,0-.79-.15a.9.9,0,0,1-.11-.75.6.6,0,0,1,.63-.48c.14,0,.35,0,.41.09a1.32,1.32,0,0,1,.18.56.75.75,0,0,1-.36.13A4.4,4.4,0,0,1,40,57.5Zm.71-.22.07-.1c-.1-.09-.19-.24-.31-.26s-.36.1-.36.36Z"/><path class="cls-2" d="M35.7,57.19c-.05-.26-.05-.26-.7-.33a.64.64,0,0,1,.73-.14.57.57,0,0,1,.28.41,5.15,5.15,0,0,1-.14.86,2.38,2.38,0,0,1-.64.09.76.76,0,0,1-.51-.26c-.13-.21,0-.42.25-.5A5.55,5.55,0,0,1,35.7,57.19Zm-.05.24c-.25,0-.5-.09-.61.21,0,0,.1.22.17.22C35.49,57.9,35.62,57.73,35.65,57.43Z"/><path class="cls-2" d="M61.78,57.6c.12.53.46.43.78.38l0,.13a1.34,1.34,0,0,1-.36.14.58.58,0,0,1-.67-.3.82.82,0,0,1,.11-.85.64.64,0,0,1,.72-.26.87.87,0,0,1,.41.37c.11.24,0,.41-.29.39Zm.73-.21.08-.11c-.11-.09-.23-.26-.32-.25a1.27,1.27,0,0,0-.43.25l.06.11Z"/><path class="cls-2" d="M32.63,58l-.68.09c-.24,0-.44,0-.49-.3s.14-.45.39-.52a4.22,4.22,0,0,1,.64-.06c-.09-.44-.39-.32-.66-.35a.53.53,0,0,1,.57-.18c.23,0,.41.16.38.42S32.67,57.71,32.63,58Zm-.2-.57c-.28,0-.52-.08-.62.21,0,.06.09.21.17.23C32.27,57.9,32.36,57.69,32.43,57.41Z"/><path class="cls-2" d="M65.34,56.91l.62-.57,0,.47.35.15c-.26.15-.55.17-.53.52s-.19.5.25.59l0,.11c-.12,0-.26.08-.35,0a.51.51,0,0,1-.25-.31,2.59,2.59,0,0,1,0-.47A3,3,0,0,0,65.34,56.91Z"/><path class="cls-2" d="M64.54,57l-.6.16c.13.14.27.27.4.4a.36.36,0,0,1-.1.6.85.85,0,0,1-.83,0v-.11l.82-.11c-.16-.16-.22-.26-.32-.31s-.39-.27-.27-.5a.93.93,0,0,1,.5-.29,1.12,1.12,0,0,1,.45.1Z"/><path class="cls-2" d="M34.12,56.73c-.13.54-.23,1.06-.37,1.56s-.29.42-.67.25c.6-.36.44-1,.62-1.53C33.8,56.73,33.77,56.73,34.12,56.73Z"/><path class="cls-2" d="M48.84,58.09q.12-.59.24-1.14c0-.06.08-.15.13-.16H50c-.06.1-.11.24-.15.24-.52,0-.49.42-.58.73S49.22,58.2,48.84,58.09Z"/><path class="cls-2" d="M50.41,58.09c.08-.37.14-.72.22-1.06,0-.08.08-.22.14-.23a4.38,4.38,0,0,1,.63,0s.09.08.09.13-.06.13-.09.13c-.54,0-.5.43-.59.76S50.74,58.12,50.41,58.09Z"/><path class="cls-2" d="M61,56.85c0,.08-.08.22-.12.22-.48,0-.49.38-.58.7a1,1,0,0,1-.06.25,1.55,1.55,0,0,1-.23.21l-.12-.07c.09-.4.17-.81.26-1.22a.16.16,0,0,1,.1-.08Z"/><path class="cls-2" d="M27.24,48.19a9.81,9.81,0,1,1-9.78-9.81A9.84,9.84,0,0,1,27.24,48.19ZM16.06,43.66H12.59a2.83,2.83,0,0,0-1.42,5.26,2.49,2.49,0,0,0,1.42.4c0-.72,0-1.4,0-2.09,0-.06-.08-.14-.15-.17a.51.51,0,0,1-.34-.63A.55.55,0,0,1,12.7,46h3.36Zm3,9.18h2.8a6.31,6.31,0,0,0,1-.05,2.83,2.83,0,0,0-.08-5.59c-.29,0-.38,0-.37.33,0,.54,0,1.08,0,1.61a.44.44,0,0,0,.18.31c.23.15.38.33.3.61a.53.53,0,0,1-.57.39l-2.78,0H19Zm-.33-6.36c0-.18,0-.33,0-.49,0-.88,0-1.76,0-2.63a.5.5,0,0,1,.4-.52.47.47,0,0,1,.57.31c.05.08.15.2.22.2H22a3.09,3.09,0,0,0,0-.55,2.84,2.84,0,0,0-5.62.56c0,.91,0,1.83,0,2.74v.37ZM16.32,50v.49c0,.86,0,1.72,0,2.59a.52.52,0,0,1-.4.56.5.5,0,0,1-.61-.32c0-.07-.13-.17-.2-.17H13c0,.15,0,.25,0,.35a2.84,2.84,0,0,0,5.63,0c.07-1.08,0-2.17,0-3.26a.29.29,0,0,0-.21-.22C17.79,50,17.09,50,16.32,50ZM19,43.69c0,.76,0,1.5,0,2.23,0,.06.18.18.28.18,1.39,0,2.78,0,4.16,0a.6.6,0,0,0,.65-.63c0-.33,0-.67,0-1,0-.55-.22-.77-.77-.78H19Zm-3,9.1c0-.71,0-1.37,0-2,0-.28-.07-.39-.38-.39-1.31,0-2.62,0-3.93,0-.57,0-.78.22-.79.8,0,.11,0,.22,0,.33,0,1.25,0,1.29,1.29,1.29Zm6-6.29c-.7,0-1.37,0-2,0-.07,0-.2.15-.2.23,0,1,0,2,0,3.08,0,.08.14.24.22.24.6,0,1.2,0,1.8,0a.31.31,0,0,0,.22-.21C22,48.76,22,47.66,22,46.5Zm-6.24,2.75a.77.77,0,0,0,.19,0l3.12,0c.24,0,.26-.13.26-.31,0-.55,0-1.1,0-1.65,0-.25-.09-.32-.33-.32-1,0-1.93,0-2.89,0a2.46,2.46,0,0,0-.37,0ZM13,46.48c0,1.13,0,2.25,0,3.38,0,0,.11.14.17.15.68,0,1.36,0,2.07,0V46.48Zm6.67,6.6c0,.42,0,.79,0,1.16a.58.58,0,0,0,.11.31,1.27,1.27,0,0,0,1.37.44A1,1,0,0,0,22,53.91c0-.18,0-.37,0-.56s-.06-.27-.26-.27C21.05,53.09,20.41,53.08,19.7,53.08Zm-6.61-9.7.1,0,1.28,0c.85,0,.85,0,.86-.87a1,1,0,0,0-.83-1.07c-.61-.14-1.55.21-1.42,1.11A6.4,6.4,0,0,1,13.09,43.38Z"/><path class="cls-2" d="M82.06,55.31c-.28-.05-.33-.41-.21-1.39h.57c.22,0,.48,0,.51.25a1.58,1.58,0,0,1-.16.57l-.1,0,.38.57c-.53.15-.45-.66-1-.53Zm0-.72c.23-.08.4-.12.56-.19s0-.18,0-.19-.34-.07-.54-.11Z"/></svg>