<svg xmlns="http://www.w3.org/2000/svg" viewBox="0 0 247.52 25"><defs><style>.cls-1{isolation:isolate;}.cls-2{mix-blend-mode:multiply;}.cls-3,.cls-4{fill:#eb0029;}.cls-3{fill-rule:evenodd;}</style></defs><title>logo_banorte</title><g class="cls-1"><g id="Layer_2" data-name="Layer 2"><g id="Layer_1-2" data-name="Layer 1"><g class="cls-2"><path class="cls-3" d="M62.75,16H74.16s.9,0,.9.83V18.6a.86.86,0,0,1-.9.78H62.75Zm0-3.38H74.16a.86.86,0,0,0,.9-.78V10.13c0-.82-.9-.83-.9-.83H62.75Zm16.58,5c0,2.77-2.53,5-5.65,5H58V6H73.68c3.12,0,5.65,2.25,5.65,5A4.86,4.86,0,0,1,78,14.4,4.74,4.74,0,0,1,79.33,17.69Z"/><path class="cls-4" d="M93.28,6.08h5.78l11,17.23H105l-3.26-3.85h-12l-2.33,3.85H82.29Zm6.23,9.74L96.08,9.9,92,15.82Z"/><path class="cls-3" d="M161.65,19.46H147.44V9.52h14.21Zm-.36,3.82h-13a5.87,5.87,0,0,1-5.87-5.87V11.57a5.87,5.87,0,0,1,5.87-5.87h13a5.87,5.87,0,0,1,5.87,5.87v5.84A5.87,5.87,0,0,1,161.29,23.28Z"/><path class="cls-3" d="M192.24,12.78a1,1,0,0,1-1,.86l-11.07.09V9.26h12.1Zm-12,10.16V16.51H184l8.4,6.42h7l-9.81-6.42a26.74,26.74,0,0,0,3.92,0,3.67,3.67,0,0,0,3.66-3.27c.09-3.22,1.3-7.13-2.79-7.13h-.19l-18.8,0v16.9Z"/><polygon class="cls-4" points="113.25 22.93 117.85 22.93 117.85 11.8 133.44 22.93 137.12 22.93 137.12 5.78 132.52 5.78 132.52 17.3 116.94 5.78 113.25 5.78 113.25 22.93"/><polygon class="cls-4" points="199.71 9.32 209.13 9.32 209.13 23.31 214.19 23.31 214.19 9.32 223.5 9.32 223.5 5.69 199.71 5.69 199.71 9.32"/><polygon class="cls-4" points="226.83 5.62 247.52 5.62 247.52 9.14 230.94 9.14 230.94 12.6 241.32 12.6 241.32 16.11 230.94 16.11 230.94 19.57 247.52 19.57 247.52 23.09 226.83 23.09 226.83 5.62"/><path class="cls-4" d="M21,10.63l3.24-8,.47,8.75c.6,0,1.22,0,1.84,0,11.43,0,20.23-1.78,20.23-5.21S37.52,0,26.1,0,5.42,2.78,5.42,6.21c0,2.8,6.65,4.41,15.12,5.18Z"/><path class="cls-4" d="M20,12.2C9,12.34,0,15.74,0,19.07,0,21.85,6.55,24.21,14.93,25l4.84-12.13Z"/><path class="cls-4" d="M25.18,12.48V25c9.71-.51,17.1-2.86,17.1-5.93S34.89,13,25.18,12.48Z"/></g></g></g></g></svg>