<svg xmlns="http://www.w3.org/2000/svg" viewBox="0 0 671.16 453.93"><defs><style>.cls-1{fill:#f5f5f5;}.cls-2{fill:#ebebeb;}.cls-3{fill:#e0e0e0;}.cls-4{fill:#263238;}.cls-5{fill:#455a64;}.cls-6{fill:#fff;}.cls-7{fill:#e8505b;}.cls-8{opacity:0.6;}.cls-9{opacity:0.2;}.cls-10{fill:#ffbe9d;}.cls-11{fill:#eb996e;}.cls-12{fill:#fafafa;}</style></defs><g id="Layer_2" data-name="Layer 2"><g id="Background_Complete" data-name="Background Complete"><path class="cls-1" d="M566.28,64.34a24,24,0,1,1-27.19-20.23A24,24,0,0,1,566.28,64.34Z"/><path class="cls-2" d="M560.63,65.17a18.28,18.28,0,1,1-20.72-15.43A18.27,18.27,0,0,1,560.63,65.17Z"/><path class="cls-3" d="M560.54,64.6a11.45,11.45,0,0,1-.79-2.11,19.77,19.77,0,0,0-2.89-5.24A18.89,18.89,0,0,0,554,54.31a18.32,18.32,0,0,0-4-2.47,17.91,17.91,0,0,0-5-1.43,17.7,17.7,0,0,0-2.74-.16,19.22,19.22,0,0,0-2.81.27,17.92,17.92,0,0,0-5.24,1.8A18.06,18.06,0,0,0,532,53.73a18.15,18.15,0,0,0-4.84,5.34,19.05,19.05,0,0,0-1.68,3.75,19.29,19.29,0,0,0-.91,5.92,10.77,10.77,0,0,1,0,2.25,5.29,5.29,0,0,1-.53-2.22,17,17,0,0,1,.51-6.23,18.43,18.43,0,0,1,1.62-4,19,19,0,0,1,3-4,18,18,0,0,1,4.44-3.35,18.17,18.17,0,0,1,2.7-1.2,18.34,18.34,0,0,1,6-1.06,19.16,19.16,0,0,1,3,.19,17.84,17.84,0,0,1,2.78.63,18.35,18.35,0,0,1,2.54,1,18.83,18.83,0,0,1,4.2,2.75,18,18,0,0,1,2.92,3.24,17,17,0,0,1,2.62,5.67A5.06,5.06,0,0,1,560.54,64.6Z"/><path class="cls-3" d="M546.15,78.29l.51,3.14-2.81.45-.49-3.06A13.43,13.43,0,0,1,536,77.7L537,74a11.42,11.42,0,0,0,5.77,1.12L542,70.46c-3.24-.26-6.89-.74-7.53-4.76-.48-3,1.28-5.88,5.63-7.09l-.5-3.12,2.81-.45.49,3.06a12.9,12.9,0,0,1,6,.8L548,62.58a11.47,11.47,0,0,0-4.53-.77l.77,4.77c3.23.23,6.82.72,7.46,4.68C552.2,74.18,550.47,77.05,546.15,78.29Zm-4.79-12-.64-4c-1.44.58-1.89,1.49-1.75,2.41S540.06,66.13,541.36,66.33Zm5.91,6c-.16-1-1.06-1.38-2.33-1.61l.62,3.87C546.91,74.05,547.41,73.22,547.27,72.32Z"/><path class="cls-1" d="M491.51,68.59a41.65,41.65,0,1,1-47.19-35.13A41.59,41.59,0,0,1,491.51,68.59Z"/><path class="cls-2" d="M481.71,70a31.74,31.74,0,1,1-36-26.77A31.71,31.71,0,0,1,481.71,70Z"/><path class="cls-3" d="M481.56,69c-.19,0-.53-1.32-1.38-3.65a33.81,33.81,0,0,0-5-9.1,32.71,32.71,0,0,0-5-5.11,31.91,31.91,0,0,0-6.94-4.28,30.26,30.26,0,0,0-4.13-1.53,30.53,30.53,0,0,0-9.24-1.23,32.37,32.37,0,0,0-4.88.47,33.62,33.62,0,0,0-4.74,1.23,31,31,0,0,0-4.36,1.9A28.37,28.37,0,0,0,432,50.17,29.25,29.25,0,0,0,428.63,53a31.61,31.61,0,0,0-8,12.92,33.39,33.39,0,0,0-1.58,10.27c0,2.49.16,3.88,0,3.91s-.61-1.31-.91-3.86a29.59,29.59,0,0,1,.88-10.8,31.78,31.78,0,0,1,8-14,32.62,32.62,0,0,1,7.71-5.82,33.55,33.55,0,0,1,4.69-2.08,32.84,32.84,0,0,1,10.38-1.84,33.28,33.28,0,0,1,5.12.34,31.41,31.41,0,0,1,4.83,1.09,30.59,30.59,0,0,1,4.41,1.72,32.27,32.27,0,0,1,7.29,4.78,31.76,31.76,0,0,1,5.07,5.62,29.36,29.36,0,0,1,4.54,9.84C481.68,67.59,481.7,69,481.56,69Z"/><path class="cls-3" d="M456.57,92.8l.88,5.46-4.88.78-.85-5.31c-4.87.48-9.74-.29-12.76-2l1.73-6.37a20,20,0,0,0,10,1.94l-1.3-8.14c-5.62-.45-12-1.28-13.07-8.25-.83-5.17,2.21-10.21,9.77-12.32l-.86-5.41,4.87-.78.85,5.32a22.3,22.3,0,0,1,10.37,1.38l-1.47,6.39A20.11,20.11,0,0,0,452,64.19l1.33,8.29c5.61.4,11.85,1.25,12.95,8.12C467.08,85.67,464.08,90.65,456.57,92.8ZM448.25,72l-1.11-6.92c-2.49,1-3.28,2.57-3,4.18S446,71.7,448.25,72Zm10.27,10.4c-.28-1.71-1.84-2.4-4-2.8l1.07,6.73C457.9,85.44,458.77,84,458.52,82.44Z"/><path class="cls-1" d="M123.27,210.43a24,24,0,1,1-27.18-20.24A24,24,0,0,1,123.27,210.43Z"/><path class="cls-2" d="M117.62,211.25a18.29,18.29,0,1,1-20.71-15.42A18.25,18.25,0,0,1,117.62,211.25Z"/><path class="cls-3" d="M117.54,210.68a10.21,10.21,0,0,1-.8-2.1,18.76,18.76,0,0,0-5.76-8.19,19,19,0,0,0-4-2.47,17.68,17.68,0,0,0-2.38-.88,18,18,0,0,0-2.59-.55,19,19,0,0,0-2.74-.16,20.75,20.75,0,0,0-2.8.28,19,19,0,0,0-2.74.71,16.55,16.55,0,0,0-2.51,1.09A16,16,0,0,0,89,199.82a16.2,16.2,0,0,0-1.93,1.64,18.3,18.3,0,0,0-4.59,7.45,19.59,19.59,0,0,0-.91,5.91,10.72,10.72,0,0,1,0,2.25,5.34,5.34,0,0,1-.52-2.22,17,17,0,0,1,.5-6.22,18.4,18.4,0,0,1,4.62-8.08,18,18,0,0,1,2.05-1.8,18.36,18.36,0,0,1,5.1-2.75,21.48,21.48,0,0,1,2.94-.77,21,21,0,0,1,3-.29,19.15,19.15,0,0,1,5.73.82,17.32,17.32,0,0,1,2.55,1,18.26,18.26,0,0,1,7.12,6,16.73,16.73,0,0,1,2.61,5.67A5.34,5.34,0,0,1,117.54,210.68Z"/><path class="cls-3" d="M103.14,224.37l.51,3.15-2.81.45-.49-3.06A13.53,13.53,0,0,1,93,223.78l1-3.67a11.53,11.53,0,0,0,5.77,1.12L99,216.54c-3.24-.26-6.89-.74-7.53-4.76-.48-3,1.28-5.87,5.63-7.09l-.5-3.12,2.81-.45.49,3.07a12.83,12.83,0,0,1,6,.8l-.85,3.67a11.89,11.89,0,0,0-4.54-.77l.77,4.78c3.23.23,6.83.72,7.46,4.68C109.2,220.27,107.47,223.13,103.14,224.37Zm-4.79-12-.64-4c-1.43.57-1.89,1.48-1.74,2.41S97.05,212.22,98.35,212.41Zm5.91,6c-.15-1-1.05-1.39-2.33-1.62l.62,3.88C103.91,220.13,104.41,219.31,104.26,218.41Z"/><path class="cls-1" d="M82.16,157.6A15.61,15.61,0,1,1,87,136.09,15.59,15.59,0,0,1,82.16,157.6Z"/><path class="cls-2" d="M80.18,154.46a11.89,11.89,0,1,1,3.69-16.39A11.87,11.87,0,0,1,80.18,154.46Z"/><path class="cls-3" d="M80.49,154.26c0-.06.38-.38,1.05-1a12.2,12.2,0,0,0,3.34-5.59,12.12,12.12,0,0,0,.41-3,11.72,11.72,0,0,0-.11-1.65,10.26,10.26,0,0,0-.35-1.68,12.12,12.12,0,0,0-.63-1.67,14.14,14.14,0,0,0-.9-1.6,13.57,13.57,0,0,0-1.15-1.43,11.45,11.45,0,0,0-1.31-1.21,11.52,11.52,0,0,0-2.92-1.67,11.76,11.76,0,0,0-5.64-.76,12.49,12.49,0,0,0-3.76,1,6.76,6.76,0,0,1-1.34.58,3.54,3.54,0,0,1,1.18-.89,10.88,10.88,0,0,1,3.83-1.35,12,12,0,0,1,2.84-.1,12.43,12.43,0,0,1,3.19.71,13.63,13.63,0,0,1,1.61.74,11.83,11.83,0,0,1,1.55,1A11.57,11.57,0,0,1,82.81,136a12.57,12.57,0,0,1,1.24,1.55,13.28,13.28,0,0,1,1,1.72,11.25,11.25,0,0,1,.66,1.81,11.52,11.52,0,0,1,.37,1.82,13.26,13.26,0,0,1,.08,1.77,12.05,12.05,0,0,1-.53,3.22,12.21,12.21,0,0,1-1.15,2.6,11,11,0,0,1-2.68,3.05C81,154.08,80.52,154.31,80.49,154.26Z"/><path class="cls-3" d="M68.55,149.32l-1.74,1.13-1-1.55,1.69-1.1a8.75,8.75,0,0,1-1.28-4.67l2.45-.37a7.46,7.46,0,0,0,.86,3.72l2.59-1.69c-.71-2-1.38-4.28.83-5.73,1.65-1.07,3.84-.79,5.71,1.48l1.72-1.12,1,1.55-1.69,1.1a8.34,8.34,0,0,1,1.1,3.76l-2.41.47a7.46,7.46,0,0,0-.74-2.9L75,145.11c.71,2,1.37,4.25-.81,5.68C72.59,151.84,70.43,151.57,68.55,149.32Zm5.85-6,2.2-1.43c-.72-.7-1.39-.74-1.9-.4S74.17,142.49,74.4,143.31Zm-2,5.1c.55-.35.55-1,.35-1.81L70.6,148C71.27,148.66,71.9,148.73,72.39,148.41Z"/><path class="cls-1" d="M500.87,28.81A15.61,15.61,0,1,1,505.72,7.3,15.6,15.6,0,0,1,500.87,28.81Z"/><path class="cls-2" d="M498.89,25.66a11.89,11.89,0,1,1,3.7-16.39A11.87,11.87,0,0,1,498.89,25.66Z"/><path class="cls-3" d="M499.21,25.46c0-.06.37-.38,1-1a12.2,12.2,0,0,0,3.34-5.59,12,12,0,0,0,.41-3,11.51,11.51,0,0,0-.1-1.65,11.32,11.32,0,0,0-.36-1.69,12.12,12.12,0,0,0-.63-1.67,13.2,13.2,0,0,0-.9-1.59,11.71,11.71,0,0,0-1.15-1.44,12.44,12.44,0,0,0-1.31-1.21,11.52,11.52,0,0,0-2.92-1.67A11.76,11.76,0,0,0,491,4.14a12.89,12.89,0,0,0-3.76,1,7.31,7.31,0,0,1-1.34.59s.36-.41,1.18-.9a11.07,11.07,0,0,1,3.84-1.35,12.4,12.4,0,0,1,2.83-.1,12.39,12.39,0,0,1,4.8,1.45,12.64,12.64,0,0,1,1.56,1,12.26,12.26,0,0,1,1.42,1.29,13.37,13.37,0,0,1,1.24,1.55,12.2,12.2,0,0,1,1,1.72,12.35,12.35,0,0,1,.67,1.81,13.3,13.3,0,0,1,.36,1.82,11.77,11.77,0,0,1,.08,1.77,12.13,12.13,0,0,1-.53,3.23,12.35,12.35,0,0,1-1.15,2.59,11,11,0,0,1-2.68,3.05C499.72,25.29,499.23,25.51,499.21,25.46Z"/><path class="cls-3" d="M487.26,20.53l-1.73,1.13-1-1.55,1.69-1.1a8.79,8.79,0,0,1-1.28-4.67l2.45-.38a7.42,7.42,0,0,0,.86,3.72L490.83,16c-.7-2-1.38-4.29.84-5.74,1.64-1.07,3.83-.79,5.7,1.48l1.72-1.12,1,1.55-1.69,1.1a8.38,8.38,0,0,1,1.1,3.76l-2.41.47a7.34,7.34,0,0,0-.74-2.9l-2.63,1.72c.72,2,1.37,4.25-.81,5.67C491.3,23,489.14,22.77,487.26,20.53Zm5.85-6,2.2-1.43a1.46,1.46,0,0,0-1.9-.4C492.87,13,492.88,13.69,493.11,14.51Zm-2,5.1c.54-.35.54-1,.34-1.81l-2.14,1.39C490,19.86,490.61,19.94,491.11,19.61Z"/></g><g id="Floor"><line class="cls-4" x1="0.65" y1="440.02" x2="671.16" y2="440.02"/><path class="cls-4" d="M671.16,440c0,.15-150.11.26-335.24.26S.65,440.17.65,440s150.08-.26,335.27-.26S671.16,439.88,671.16,440Z"/></g><g id="Device"><path class="cls-4" d="M629.91,104.31H249.19a11.88,11.88,0,0,0-11.89,11.88V385.1A11.89,11.89,0,0,0,249.19,397H395.31s9.29,28.74-19.52,43.61H512.42S479.89,429.45,488.25,397H629.91a11.88,11.88,0,0,0,11.88-11.89V116.19A11.88,11.88,0,0,0,629.91,104.31Z"/><path class="cls-5" d="M444.63,368.71c5.18,7.4-2.93,15.5-10.33,10.33a3,3,0,0,1-.64-.64c-5.16-7.4,2.93-15.5,10.33-10.33A2.43,2.43,0,0,1,444.63,368.71Z"/><path class="cls-6" d="M253.56,109.24h372a9.7,9.7,0,0,1,9.7,9.7V347.79a0,0,0,0,1,0,0H243.86a0,0,0,0,1,0,0V118.93A9.7,9.7,0,0,1,253.56,109.24Z"/><rect class="cls-7" x="277.02" y="163.09" width="12.84" height="143.36"/><rect class="cls-7" x="301.8" y="211.78" width="12.84" height="94.67"/><rect class="cls-7" x="326.58" y="180.91" width="12.84" height="126.27"/><rect class="cls-7" x="351.36" y="168.63" width="12.84" height="137.82"/><rect class="cls-7" x="376.14" y="214.69" width="12.84" height="91.75"/><rect class="cls-7" x="400.93" y="232.69" width="12.84" height="73.76"/><rect class="cls-7" x="425.71" y="177.8" width="12.84" height="128.64"/><rect class="cls-7" x="450.49" y="201" width="12.84" height="105.45"/><rect class="cls-7" x="475.27" y="182.46" width="12.84" height="123.98"/><rect class="cls-7" x="500.05" y="221.98" width="12.84" height="84.47"/><rect class="cls-7" x="549.48" y="177.8" width="12.84" height="128.64"/><rect class="cls-7" x="602.11" y="260.57" width="12.84" height="44.02"/><rect class="cls-7" x="576.46" y="221.98" width="12.84" height="84.47"/><rect class="cls-7" x="524.83" y="205.91" width="12.84" height="100.54"/><path class="cls-4" d="M618.56,181.36a5.28,5.28,0,0,1-1.13-.18l-3.26-.67a52.13,52.13,0,0,0-5.35-.84,65.79,65.79,0,0,0-7.35-.62,84.57,84.57,0,0,0-20.09,1.73,88.72,88.72,0,0,0-24.93,9.43,102.15,102.15,0,0,0-25.24,20.1c-7.87,8.62-14.5,19.27-21.28,30.54s-13.81,23.37-23.9,33.79a62.47,62.47,0,0,1-17.62,13.18,37.23,37.23,0,0,1-10.85,3.32,35.14,35.14,0,0,1-11.52-.39c-7.61-1.68-14.37-5.68-20.05-10.51A94.14,94.14,0,0,1,411.14,264c-8.61-11.6-14.74-24.11-21.29-35.5s-13.12-22.11-21.27-30.45a57.42,57.42,0,0,0-13.15-10.34,54.53,54.53,0,0,0-7.1-3.45,56.21,56.21,0,0,0-7.25-2.15,52.56,52.56,0,0,0-26.36.74,59.56,59.56,0,0,0-18.09,8.69,66.43,66.43,0,0,0-9.5,8.52c-.93,1.06-1.66,1.88-2.21,2.49a5.77,5.77,0,0,1-.79.82,7.13,7.13,0,0,1,.68-.91l2.11-2.59a61.59,61.59,0,0,1,9.38-8.78,59.57,59.57,0,0,1,18.2-9,53.18,53.18,0,0,1,26.8-.95c9.87,2,19.92,7.63,28.14,16.1s15.05,19.19,21.56,30.63,12.74,23.86,21.27,35.31a92.64,92.64,0,0,0,14.64,15.95,45.57,45.57,0,0,0,19.43,10.2,33.75,33.75,0,0,0,11,.38,35.5,35.5,0,0,0,10.44-3.19A61.23,61.23,0,0,0,485,273.66c9.94-10.23,16.9-22.3,23.78-33.49s13.53-22,21.53-30.66A102.2,102.2,0,0,1,556,189.33,88.57,88.57,0,0,1,581.22,180a84.21,84.21,0,0,1,20.28-1.5,66.07,66.07,0,0,1,7.38.75,47.09,47.09,0,0,1,5.35,1l3.24.81A7.13,7.13,0,0,1,618.56,181.36Z"/><path class="cls-4" d="M262.89,316.43c-.29,0-.53-40.88-.53-91.29s.24-91.3.53-91.3.52,40.87.52,91.3S263.18,316.43,262.89,316.43Z"/><path class="cls-4" d="M615,316.43c0,.29-77,.53-172,.53s-172-.24-172-.53,77-.53,172-.53S615,316.14,615,316.43Z"/><path class="cls-4" d="M295.33,327.71c0,.3-4.27.53-9.53.53s-9.52-.23-9.52-.53,4.26-.52,9.52-.52S295.33,327.42,295.33,327.71Z"/><path class="cls-4" d="M326.93,328.29c0,.29-5.1.53-11.39.53s-11.38-.24-11.38-.53,5.09-.53,11.38-.53S326.93,328,326.93,328.29Z"/><path class="cls-4" d="M353.88,328.29c0,.29-5.1.53-11.39.53s-11.38-.24-11.38-.53,5.09-.53,11.38-.53S353.88,328,353.88,328.29Z"/><path class="cls-4" d="M380.83,328.29c0,.29-5.1.53-11.39.53s-11.38-.24-11.38-.53,5.1-.53,11.38-.53S380.83,328,380.83,328.29Z"/><path class="cls-4" d="M407.78,328.29c0,.29-5.1.53-11.38.53s-11.39-.24-11.39-.53,5.1-.53,11.39-.53S407.78,328,407.78,328.29Z"/><path class="cls-4" d="M434.73,328.29c0,.29-5.1.53-11.38.53s-11.39-.24-11.39-.53,5.1-.53,11.39-.53S434.73,328,434.73,328.29Z"/><path class="cls-4" d="M461.68,328.29c0,.29-5.1.53-11.38.53s-11.39-.24-11.39-.53,5.1-.53,11.39-.53S461.68,328,461.68,328.29Z"/><path class="cls-4" d="M488.63,328.29c0,.29-5.09.53-11.38.53s-11.39-.24-11.39-.53,5.1-.53,11.39-.53S488.63,328,488.63,328.29Z"/><path class="cls-4" d="M515.59,328.29c0,.29-5.1.53-11.39.53s-11.38-.24-11.38-.53,5.09-.53,11.38-.53S515.59,328,515.59,328.29Z"/><path class="cls-4" d="M542.54,328.29c0,.29-5.1.53-11.39.53s-11.38-.24-11.38-.53,5.09-.53,11.38-.53S542.54,328,542.54,328.29Z"/><path class="cls-4" d="M567.6,328.3c0,.29-5.09.53-11.38.53s-11.39-.24-11.39-.53,5.1-.53,11.39-.53S567.6,328,567.6,328.3Z"/><path class="cls-4" d="M592.67,328.31c0,.29-5.1.53-11.38.53s-11.39-.24-11.39-.53,5.1-.53,11.39-.53S592.67,328,592.67,328.31Z"/><path class="cls-4" d="M617.74,328.32c0,.29-5.1.52-11.39.52s-11.38-.23-11.38-.52,5.09-.53,11.38-.53S617.74,328,617.74,328.32Z"/><path class="cls-4" d="M393.91,229.83c0-.22,1.57.33,2.07,2.48a5.26,5.26,0,0,1-.39,3.7,3.2,3.2,0,0,1-1.87,1.58,3.39,3.39,0,0,1-2.61-.3,4.37,4.37,0,0,1-2.23-4.1,4.54,4.54,0,0,1,1.79-3.3,3,3,0,0,1,2.45-.61c.59.18.8.47.76.53s-1.31-.39-2.56.86a3.73,3.73,0,0,0-1.12,2.58,3.15,3.15,0,0,0,1.59,2.77,1.88,1.88,0,0,0,2.65-.67,4.62,4.62,0,0,0,.54-2.85C394.82,230.69,393.8,230,393.91,229.83Z"/><path class="cls-4" d="M562.85,182.71c0-.08.4-.22,1.11,0a4.24,4.24,0,0,1,2.29,2,5.68,5.68,0,0,1,.57,4.5,4.75,4.75,0,0,1-4.39,3.51,3.82,3.82,0,0,1-2.8-1.46,6,6,0,0,1-1.18-2.5,5.77,5.77,0,0,1,.72-4.46c1.58-2.24,3.54-2.12,3.47-2,.09.21-1.54.53-2.59,2.48a4.94,4.94,0,0,0-.31,3.63c.34,1.32,1.35,2.82,2.73,2.83a3.52,3.52,0,0,0,3.09-2.48,4.89,4.89,0,0,0-.21-3.62A5.13,5.13,0,0,0,562.85,182.71Z"/><rect class="cls-6" x="159.59" y="36.48" width="257.61" height="200.49"/><path class="cls-4" d="M417.2,237c0-2-.1-79.5-.24-200.49l.24.24-257.59.05h0l.29-.29c0,72.26,0,140.62,0,200.49l-.26-.26L417.2,237l-257.61.26h-.26V237c0-59.87,0-128.23,0-200.49v-.29h.31l257.59.05h.24v.24C417.29,157.47,417.2,235,417.2,237Z"/><rect class="cls-4" x="172.15" y="62.82" width="41.7" height="2.32"/><rect class="cls-4" x="172.15" y="68.25" width="20.61" height="2.32"/><rect class="cls-4" x="195.93" y="208.16" width="7.55" height="2.18"/><rect class="cls-4" x="213.02" y="219.8" width="9.66" height="2.18"/><rect class="cls-4" x="246.65" y="219.8" width="9.66" height="2.18"/><rect class="cls-4" x="280.28" y="219.8" width="9.66" height="2.18"/><rect class="cls-4" x="313.91" y="219.8" width="9.66" height="2.18"/><rect class="cls-4" x="347.54" y="219.8" width="9.66" height="2.18"/><rect class="cls-4" x="381.17" y="219.8" width="9.66" height="2.18"/><rect class="cls-4" x="195.93" y="179.09" width="7.55" height="2.18"/><rect class="cls-4" x="195.93" y="124.37" width="7.55" height="2.18"/><rect class="cls-4" x="195.93" y="96.87" width="7.55" height="2.18"/><rect class="cls-4" x="196.31" y="151.73" width="7.55" height="2.18"/><path class="cls-4" d="M390.56,210.34l-.81,0-2.38,0-9.14.05-33.62.08-110.9.08H207.17v-.25c0-37.1.06-69.74.09-93.12,0-11.68.05-21,.07-27.5,0-3.21,0-5.7,0-7.4,0-.83,0-1.47,0-1.92s0-.65,0-.65,0,.22,0,.65,0,1.09,0,1.92c0,1.7,0,4.19.05,7.4,0,6.46,0,15.82.07,27.5,0,23.38.06,56,.09,93.12l-.26-.26h26.29l110.9.07,33.62.09,9.14,0,2.38,0Z"/><path class="cls-4" d="M392.69,152.81c0,.15-39.84.27-89,.27s-89-.12-89-.27,39.83-.26,89-.26S392.69,152.67,392.69,152.81Z"/><path class="cls-4" d="M392.69,125.46c0,.14-39.84.26-89,.26s-89-.12-89-.26,39.83-.27,89-.27S392.69,125.31,392.69,125.46Z"/><path class="cls-4" d="M392.69,98c0,.14-39.84.26-89,.26s-89-.12-89-.26,39.83-.26,89-.26S392.69,97.81,392.69,98Z"/><path class="cls-4" d="M392.69,180.17c0,.15-39.84.26-89,.26s-89-.11-89-.26,39.83-.26,89-.26S392.69,180,392.69,180.17Z"/><path class="cls-5" d="M216.57,204.45V180.17l15.13-23.48L242,164.56,263,131.83l12.42,8.75,17.29-30.2,14.05,11.45,21.08-40.06,22.69,44.77,18.37-22.4L390.56,98V204.45Z"/><path class="cls-4" d="M392.69,89.34l-.39,0-1.12,0-4.39,0-16.58.06.11,0-17.79,23.21-.06.08h-.1l-44.5,0,.21-.12c-5.85,9.75-12.17,20.26-18.71,31.14L271,174.32l-.2.32-.22-.3c-8.79-12.09-16.93-23.26-24.11-33.14h.35l-22,34.28L218.75,185c-.7,1.08-1.24,1.9-1.61,2.48s-.57.83-.57.83.16-.3.51-.87.89-1.42,1.57-2.51l6-9.54L246.47,141l.17-.26.18.25L271,174l-.42,0,18.35-30.54c6.54-10.87,12.86-21.39,18.73-31.13l.07-.12h.14l44.5,0-.16.08c7-9,13-16.85,17.88-23.14l.05-.06h.07l16.58.07,4.39,0,1.12,0A2.87,2.87,0,0,1,392.69,89.34Z"/><path class="cls-4" d="M253.94,148.86a1.71,1.71,0,1,1-1.7-1.65A1.67,1.67,0,0,1,253.94,148.86Z"/><path class="cls-4" d="M305.27,119.69a1.71,1.71,0,1,1-1.71-1.65A1.68,1.68,0,0,1,305.27,119.69Z"/><ellipse class="cls-4" cx="343.46" cy="112.52" rx="1.71" ry="1.64"/><path class="cls-4" d="M170.35,44.73a2,2,0,1,1-2-2A2,2,0,0,1,170.35,44.73Z"/><path class="cls-4" d="M176.12,44.73a2,2,0,1,1-2-2A2,2,0,0,1,176.12,44.73Z"/><path class="cls-4" d="M181.89,44.73a2,2,0,1,1-2-2A2,2,0,0,1,181.89,44.73Z"/><line class="cls-4" x1="159.88" y1="52.53" x2="416.98" y2="52.53"/><path class="cls-4" d="M417,52.53c0,.15-57.56.26-128.54.26s-128.56-.11-128.56-.26,57.54-.26,128.56-.26S417,52.39,417,52.53Z"/></g><g id="Money_Box" data-name="Money Box"><path class="cls-7" d="M.83,356.23l5.4,19.39a22.35,22.35,0,0,0,25.06,16.06h0s10.25,14.58,14.58,16.95l3.94,31.12H73.18L75,427.14a122.92,122.92,0,0,0,53.15,9.46c29.58-1.58,36.67-10.24,36.67-10.24l3.55,13.39h26.4l4.33-34.28s32.31-28.76,24-62.25c0,0,23.24-15.86,15.36-38.46l-4.73-2.12s-7.48,13.4-15.36,16.16c0,0-21.21-68.16-101-62.65,0,0-26.63-1.18-51.84,10.64,0,0-28-14.58-48.85-3.94,0,0-.4,24,11.42,37.82,0,0-10.24,22.85-11,27.58l-3.06,1.22A22.35,22.35,0,0,0,.83,356.23Z"/><path class="cls-4" d="M57.27,327a6.53,6.53,0,1,1-6.53-6.53A6.53,6.53,0,0,1,57.27,327Z"/><g class="cls-8"><path d="M87.35,273.47l2.94,8.22s35.51-10.56,58.4,0l3.23-8.22S124,260.56,87.35,273.47Z"/></g><path class="cls-4" d="M154.8,285.47a5.05,5.05,0,0,1-.66-.38c-.41-.27-1-.65-1.85-1.12a44.11,44.11,0,0,0-7.23-3.28,56.49,56.49,0,0,0-11.46-2.64,93.06,93.06,0,0,0-14.42-.54,143,143,0,0,0-14.41,1.13,58.45,58.45,0,0,0-11.46,2.67,38.45,38.45,0,0,0-7.19,3.35c-1.6,1-2.43,1.62-2.46,1.57a3.69,3.69,0,0,1,.58-.48A21,21,0,0,1,86,284.49,35.09,35.09,0,0,1,93.18,281a57,57,0,0,1,11.52-2.8A135.74,135.74,0,0,1,119.16,277a89.1,89.1,0,0,1,14.5.59,53.81,53.81,0,0,1,11.52,2.77,39.92,39.92,0,0,1,7.21,3.45c.8.5,1.41.9,1.81,1.2A3.71,3.71,0,0,1,154.8,285.47Z"/><g class="cls-9"><path d="M15.76,347.59A7.25,7.25,0,0,0,14,344.9a2.79,2.79,0,0,0-3-.53h0a4.26,4.26,0,0,0-1.49,2.39,23.55,23.55,0,0,0,2.88,17.39,3,3,0,0,0,2,1.43c1.79.31,2.73-1.33,3.17-2.81C19.08,357.79,17.86,352.36,15.76,347.59Z"/></g><path class="cls-4" d="M30.1,363.63a9.51,9.51,0,0,1,0-1.5c0-.48.06-1.06.05-1.75s0-1.45,0-2.31-.09-1.79-.22-2.79-.29-2.07-.48-3.18a45,45,0,0,0-2-7.07,45.71,45.71,0,0,0-3.23-6.61c-.61-.95-1.17-1.87-1.78-2.68s-1.16-1.56-1.7-2.22-1.07-1.23-1.52-1.75-.86-.93-1.21-1.26a8.15,8.15,0,0,1-1-1.1,7.7,7.7,0,0,1,1.16.95,16.55,16.55,0,0,1,1.28,1.21c.47.5,1,1,1.59,1.71s1.18,1.38,1.77,2.21,1.21,1.72,1.84,2.68a42.74,42.74,0,0,1,3.31,6.67,42.09,42.09,0,0,1,2,7.17c.18,1.13.37,2.2.43,3.22s.15,2,.17,2.83,0,1.65,0,2.33-.08,1.28-.14,1.76A7.37,7.37,0,0,1,30.1,363.63Z"/><path class="cls-4" d="M37.28,349.68c-.1,0-.49-1.65-1.59-4.17a30.5,30.5,0,0,0-2.3-4.25,32.91,32.91,0,0,0-3.66-4.63,33.41,33.41,0,0,0-4.47-3.85,31,31,0,0,0-4.15-2.47c-2.48-1.2-4.14-1.66-4.11-1.76a6,6,0,0,1,1.18.28,10.82,10.82,0,0,1,1.34.44c.52.2,1.12.4,1.75.71a27.47,27.47,0,0,1,4.26,2.41,31.18,31.18,0,0,1,4.58,3.88A32.4,32.4,0,0,1,33.8,341,27.26,27.26,0,0,1,36,345.36a18.8,18.8,0,0,1,.64,1.77,10.37,10.37,0,0,1,.39,1.37A6,6,0,0,1,37.28,349.68Z"/><path class="cls-4" d="M10.07,346.7s-.19-.46.34-1a2,2,0,0,1,1.19-.56,2.16,2.16,0,0,1,1.66.51,9.6,9.6,0,0,1,2.26,3.77A26.88,26.88,0,0,1,17,354.52a26.65,26.65,0,0,1,.48,5.33,8.73,8.73,0,0,1-.79,4.32,2.61,2.61,0,0,1-2.61,1.3c-.73-.14-1-.55-.94-.55a2.57,2.57,0,0,0,1,.35A2.41,2.41,0,0,0,16.4,364a8.74,8.74,0,0,0,.63-4.13,29,29,0,0,0-.51-5.23,28.62,28.62,0,0,0-1.45-5.05,9.65,9.65,0,0,0-2-3.66,1.88,1.88,0,0,0-2.48-.09A1.56,1.56,0,0,0,10.07,346.7Z"/><path class="cls-4" d="M60.33,351.28s.16.19.33.59a6.43,6.43,0,0,1,.44,1.81A7.64,7.64,0,0,1,54,362.21a6.6,6.6,0,0,1-1.86-.12c-.42-.09-.65-.19-.64-.22a20.77,20.77,0,0,0,2.47,0,7.65,7.65,0,0,0,6.82-8.14A20,20,0,0,0,60.33,351.28Z"/><path class="cls-4" d="M56.63,311a25.61,25.61,0,0,0-6.44-1.67,25.69,25.69,0,0,0-6.64.57,5.33,5.33,0,0,1,1.87-.71,14.88,14.88,0,0,1,9.49.8A5.51,5.51,0,0,1,56.63,311Z"/><path class="cls-6" d="M166.74,267.87l-.26-.08-.73-.28L163,266.39l-2-.82c-.74-.28-1.57-.54-2.44-.85-1.75-.58-3.72-1.34-6-1.91l-3.51-1c-1.23-.34-2.53-.57-3.86-.88-2.66-.65-5.55-1.06-8.59-1.55a125.49,125.49,0,0,0-20-1,124.84,124.84,0,0,0-19.83,2.48c-3,.71-5.85,1.32-8.45,2.17-1.31.41-2.59.74-3.79,1.16l-3.43,1.24c-2.21.74-4.11,1.64-5.82,2.35-.85.37-1.65.69-2.37,1l-1.94,1-2.69,1.32-.71.33a1,1,0,0,1-.25.1,1,1,0,0,1,.23-.15l.68-.37,2.65-1.41,1.93-1c.71-.35,1.51-.68,2.35-1.06,1.7-.74,3.6-1.67,5.81-2.43l3.43-1.28c1.2-.44,2.48-.78,3.79-1.19,2.61-.87,5.48-1.5,8.48-2.23a122.15,122.15,0,0,1,19.91-2.53,123,123,0,0,1,20,1.06c3,.51,6,.93,8.61,1.61,1.34.32,2.64.56,3.87.91l3.52,1c2.26.6,4.22,1.39,6,2,.87.32,1.69.59,2.43.89l2,.86,2.75,1.21.71.33Z"/><path class="cls-6" d="M178.63,274.49a20.41,20.41,0,0,1-6.07-2.53,10.76,10.76,0,0,1,3.13,1A10.93,10.93,0,0,1,178.63,274.49Z"/><path class="cls-6" d="M12.41,334.58c0,.09-.92.47-2.29,1.34a18,18,0,0,0-7.56,9.86c-.49,1.55-.61,2.57-.7,2.56s0-.26,0-.73a11.6,11.6,0,0,1,.34-1.93,16.42,16.42,0,0,1,2.85-5.82,16.24,16.24,0,0,1,4.88-4.26,12.14,12.14,0,0,1,1.78-.83A2.17,2.17,0,0,1,12.41,334.58Z"/><path class="cls-4" d="M73.84,434s-.18-.25-.6-.57a3.1,3.1,0,0,0-2.17-.52,3.73,3.73,0,0,0-2.84,1.82,8.13,8.13,0,0,0-1,4.43l-.45,0a5.56,5.56,0,0,0-1.47-4.35,4.38,4.38,0,0,0-4.78-1,3.4,3.4,0,0,0-2,2.51,3.33,3.33,0,0,0,.72,3l-.41.26A12.57,12.57,0,0,0,56,434.34a4.44,4.44,0,0,0-4.16-1.3A3.32,3.32,0,0,0,49.67,435a4.26,4.26,0,0,0-.22,1.07,1.85,1.85,0,0,1,.06-1.13,3.47,3.47,0,0,1,2.24-2.15A4.75,4.75,0,0,1,56.28,434a12.81,12.81,0,0,1,3,5.28l.41,1.11-.82-.86a3.84,3.84,0,0,1-.87-3.39,3.93,3.93,0,0,1,2.34-2.89,4.86,4.86,0,0,1,5.34,1.12,6,6,0,0,1,1.56,4.75l-.45,0a8.45,8.45,0,0,1,1.12-4.65,4.19,4.19,0,0,1,1.48-1.4,4,4,0,0,1,1.66-.48,3.15,3.15,0,0,1,2.28.68A1.73,1.73,0,0,1,73.84,434Z"/></g><g id="Character"><path class="cls-5" d="M213.18,432l-1.73,7.24s-11.84,15.38-15.5,14.63c-2.39-.49.55-4.51,5.06-16.19l.94-4.83Z"/><path class="cls-4" d="M195.47,451.64a1.66,1.66,0,0,0,.63.6,2.21,2.21,0,0,0,2.27-.31,65.24,65.24,0,0,0,5.9-5.59c2.19-2.3,4-4.51,5.33-6.14.57-.75,1.08-1.4,1.51-1.95l.41-.54a1.1,1.1,0,0,1,.15-.17s0,.07-.12.2l-.37.55c-.34.48-.83,1.17-1.46,2a77.19,77.19,0,0,1-5.3,6.2,58.15,58.15,0,0,1-6,5.56,2.79,2.79,0,0,1-1.34.49,1.91,1.91,0,0,1-1.05-.22,1.34,1.34,0,0,1-.5-.47A.84.84,0,0,1,195.47,451.64Z"/><path class="cls-4" d="M197.15,446.69a2,2,0,0,1,1-.11,5.19,5.19,0,0,1,2.24.78,4.12,4.12,0,0,1,1.62,1.71,2.16,2.16,0,0,1,.25.95s-.11-.36-.39-.88a4.26,4.26,0,0,0-1.6-1.6,5.76,5.76,0,0,0-2.13-.81C197.52,446.65,197.16,446.73,197.15,446.69Z"/><path class="cls-4" d="M208.36,443.08a1.49,1.49,0,0,1-.14-.35,5.89,5.89,0,0,1-.23-1,5.35,5.35,0,0,1,.55-3.29,5.1,5.1,0,0,1,2.39-2.33,4,4,0,0,1,1-.3c.24,0,.37,0,.38,0a7.32,7.32,0,0,0-1.29.46,5.25,5.25,0,0,0-2.27,2.29,5.47,5.47,0,0,0-.59,3.17C208.23,442.56,208.4,443.07,208.36,443.08Z"/><path class="cls-4" d="M212.42,433.26c.05,0-.21,1-.44,2.31a7.86,7.86,0,0,1-.61,2.28c-.05,0,.19-1,.41-2.32A7.8,7.8,0,0,1,212.42,433.26Z"/><path class="cls-4" d="M200.8,438.74a2.72,2.72,0,0,1,1.52,0,2.69,2.69,0,0,1,1.37.65s-.63-.27-1.42-.45S200.8,438.8,200.8,438.74Z"/><path class="cls-4" d="M200.55,440a2.4,2.4,0,0,1,2.41.57c0,.05-.51-.26-1.17-.41S200.56,440,200.55,440Z"/><path class="cls-4" d="M199.61,441.54a1.54,1.54,0,0,1,1.32-.17,1.6,1.6,0,0,1,1.13.72,6,6,0,0,0-1.17-.52A5.5,5.5,0,0,0,199.61,441.54Z"/><path class="cls-4" d="M201.61,438.22s.55-.15,1.39-.48a9.06,9.06,0,0,0,1.43-.68,8.77,8.77,0,0,0,.79-.51c.24-.18.51-.44.5-.72s-.36-.43-.63-.36a1.63,1.63,0,0,0-.74.49c-.43.41-.8.8-1.11,1.14-.6.67-.94,1.13-1,1.11a1.47,1.47,0,0,1,.21-.35,10.78,10.78,0,0,1,.65-.86,13.65,13.65,0,0,1,1.09-1.19,1.91,1.91,0,0,1,.82-.55.7.7,0,0,1,.89.56,1.2,1.2,0,0,1-.59.9,9,9,0,0,1-.81.51,9.94,9.94,0,0,1-1.47.66,10.15,10.15,0,0,1-1.05.28A1.45,1.45,0,0,1,201.61,438.22Z"/><path class="cls-4" d="M202.23,438.07s-.08-.51-.21-1.32a5.46,5.46,0,0,0-.4-1.37,3.09,3.09,0,0,0-.45-.7c-.18-.2-.45-.38-.67-.25s-.26.45-.22.72a3.07,3.07,0,0,0,.23.8,4.53,4.53,0,0,0,.77,1.19c.55.61,1,.9.95.93a1.27,1.27,0,0,1-.31-.18,5.83,5.83,0,0,1-.75-.65,4.21,4.21,0,0,1-.84-1.22,3.06,3.06,0,0,1-.26-.84.91.91,0,0,1,.32-.94.79.79,0,0,1,.94.3,2.76,2.76,0,0,1,.46.76,5.2,5.2,0,0,1,.38,1.42c.05.42.07.75.08,1S202.25,438.07,202.23,438.07Z"/><path class="cls-5" d="M269.93,435.4l.05-9.66-18.09-.22-.23,14.13,1.12.08c5,.34,25.39,1.37,28.74.4C285.25,439,269.93,435.4,269.93,435.4Z"/><path class="cls-4" d="M251.41,439.23l.31,0,.89.06,3.29.19c2.77.13,6.61.27,10.85.33s8.08,0,10.86,0l3.29-.1.9,0,.31,0H280.9l-3.29,0c-2.78,0-6.62,0-10.85,0s-8.08-.17-10.85-.27l-3.29-.11-.9,0Z"/><path class="cls-4" d="M275.77,440a7.46,7.46,0,0,1,.64-1.56,7,7,0,0,1,1.14-1.25,2.93,2.93,0,0,0-1.78,2.81Z"/><path class="cls-4" d="M270.47,437.26s.31-.27.58-.69.45-.77.4-.8-.31.27-.58.68S270.42,437.23,270.47,437.26Z"/><path class="cls-4" d="M269,436.47s.32-.14.64-.42.54-.54.5-.58-.33.14-.65.42S269,436.42,269,436.47Z"/><path class="cls-4" d="M268.11,434.75a2.12,2.12,0,0,0,.94.13,2.14,2.14,0,0,0,.95-.09,2.12,2.12,0,0,0-.94-.13A2.17,2.17,0,0,0,268.11,434.75Z"/><path class="cls-4" d="M267.81,433.54a1.86,1.86,0,0,0,1.05.32,1.78,1.78,0,0,0,1.09-.13,6.79,6.79,0,0,0-1.07-.09A5.67,5.67,0,0,0,267.81,433.54Z"/><path class="cls-4" d="M271.11,435.69a3,3,0,0,0,1.16,0,6.9,6.9,0,0,0,1.24-.26,3.36,3.36,0,0,0,.71-.28.59.59,0,0,0,.29-.36.47.47,0,0,0-.17-.47,2.14,2.14,0,0,0-2.64.59,2.08,2.08,0,0,0-.39.78c-.05.19-.05.31,0,.31a3.1,3.1,0,0,1,.54-1,2.08,2.08,0,0,1,1-.63,1.79,1.79,0,0,1,1.38.11c.19.14.11.36-.1.48a3.71,3.71,0,0,1-.65.27,9.52,9.52,0,0,1-1.2.3C271.55,435.66,271.11,435.66,271.11,435.69Z"/><path class="cls-4" d="M271.41,435.75a1.15,1.15,0,0,0,.14-.8,2,2,0,0,0-.31-.86,1.15,1.15,0,0,0-1-.6.46.46,0,0,0-.36.53,1.28,1.28,0,0,0,.19.52,3.29,3.29,0,0,0,.54.71,1.66,1.66,0,0,0,.66.48s-.23-.21-.55-.58a4.71,4.71,0,0,1-.47-.7c-.16-.25-.26-.7,0-.74s.58.26.76.5a2,2,0,0,1,.32.76A4.79,4.79,0,0,1,271.41,435.75Z"/><path class="cls-4" d="M251.84,434.28c0,.05.52,0,1.34.07a5.85,5.85,0,0,1,2.9,1.24,5.79,5.79,0,0,1,1.79,2.6c.26.78.28,1.3.32,1.29s0-.13,0-.36a4.83,4.83,0,0,0-.19-1,5.51,5.51,0,0,0-1.79-2.72,5.63,5.63,0,0,0-3-1.23,5,5,0,0,0-1,0A1.45,1.45,0,0,0,251.84,434.28Z"/><path class="cls-4" d="M253.81,426.78a31.74,31.74,0,0,0-.2,3.71,33.07,33.07,0,0,0,0,3.72,30.18,30.18,0,0,0,.21-3.71A31.64,31.64,0,0,0,253.81,426.78Z"/><path class="cls-4" d="M260.52,437.85a10,10,0,0,0,2.64.3,10.35,10.35,0,0,0,2.65-.18c0-.06-1.19,0-2.65,0S260.53,437.79,260.52,437.85Z"/><path class="cls-4" d="M257,437.8s.1.25.21.53.18.51.25.51.09-.29,0-.6S257,437.76,257,437.8Z"/><path class="cls-4" d="M255.66,436.12s.07.23.25.42.37.32.42.28-.07-.23-.26-.43S255.7,436.08,255.66,436.12Z"/><path class="cls-4" d="M253.76,435.34c0,.06.25.06.51.16s.46.24.51.2-.1-.3-.43-.41S253.74,435.28,253.76,435.34Z"/><path class="cls-4" d="M252.4,435c0,.06.08.15.23.21s.29.06.31,0-.08-.15-.23-.21S252.42,434.91,252.4,435Z"/><polygon class="cls-4" points="282.13 250.43 275.19 431.74 247.02 432.33 251.7 275.23 220.01 433.53 193.23 433.53 227.73 250.8 282.13 250.43"/><path class="cls-5" d="M258.19,257a17.65,17.65,0,0,1-.32,3c-.27,1.84-.66,4.37-1.13,7.16a29.46,29.46,0,0,1-.81,3.94,5.54,5.54,0,0,1-1.84,2.76,4.38,4.38,0,0,1-2,.92,1.56,1.56,0,0,1-.82,0,5.29,5.29,0,0,0,2.64-1.17A5.42,5.42,0,0,0,255.5,271a35.71,35.71,0,0,0,.75-3.88c.47-2.79.92-5.31,1.27-7.13A17,17,0,0,1,258.19,257Z"/><path class="cls-5" d="M252.33,257.89c.06.05-.17.34,0,.82a1,1,0,0,0,.47.61.86.86,0,0,0,1.12-1,1,1,0,0,0-.54-.55c-.46-.19-.78,0-.82-.07s.26-.41.92-.26a1.22,1.22,0,0,1,.86.72,1.18,1.18,0,0,1-.37,1.34,1.21,1.21,0,0,1-1.38.2,1.23,1.23,0,0,1-.6-1C251.88,258.1,252.31,257.83,252.33,257.89Z"/><path class="cls-5" d="M237.2,260.48a3.86,3.86,0,0,1-.37-2.58,3.8,3.8,0,0,1,.91-2.45c.13.06-.28,1.13-.42,2.5S237.34,260.45,237.2,260.48Z"/><path class="cls-5" d="M240.59,260.26a4.34,4.34,0,0,1-.41-2.66A4.42,4.42,0,0,1,241,255a22.52,22.52,0,0,1-.27,2.62A24.68,24.68,0,0,1,240.59,260.26Z"/><path class="cls-5" d="M269.7,261a16.74,16.74,0,0,1,.16-2.72,16.71,16.71,0,0,1,.12-2.72,5.12,5.12,0,0,1,.38,2.75A5.07,5.07,0,0,1,269.7,261Z"/><path class="cls-5" d="M273.38,260.8c-.13-.06.31-1.24.4-2.76s-.15-2.76,0-2.8a5.85,5.85,0,0,1-.39,5.56Z"/><path class="cls-10" d="M242.88,175l17.39-1.39c.11-2,0-9.89,0-9.89s7.23-1.12,7.32-8.36-1.16-23.85-1.16-23.85h0a25.15,25.15,0,0,0-25.27,3.18l-1.07.82Z"/><path class="cls-11" d="M260.25,163.62a16.84,16.84,0,0,1-9.43-2.68s2.22,5.2,9.44,4.55Z"/><path class="cls-4" d="M263.58,142.85a1,1,0,0,1-1,1,1,1,0,0,1-1.06-.93,1,1,0,0,1,1-1A1,1,0,0,1,263.58,142.85Z"/><path class="cls-4" d="M265,141.69c-.13.14-.91-.44-2-.44s-1.92.56-2,.42.07-.3.42-.56a2.85,2.85,0,0,1,1.64-.51,2.74,2.74,0,0,1,1.61.52C265,141.39,265.09,141.63,265,141.69Z"/><path class="cls-4" d="M252.35,143.11a1,1,0,0,1-1,1,1,1,0,0,1-1.06-.94,1,1,0,0,1,1-1A1,1,0,0,1,252.35,143.11Z"/><path class="cls-4" d="M254.1,141.9c-.13.13-.91-.45-2-.44s-1.93.56-2.05.42.07-.3.42-.56a2.85,2.85,0,0,1,1.64-.51,2.74,2.74,0,0,1,1.61.52C254,141.59,254.16,141.84,254.1,141.9Z"/><path class="cls-4" d="M258.13,150.14a7.71,7.71,0,0,1,1.81-.32c.28,0,.55-.09.6-.28a1.39,1.39,0,0,0-.19-.84l-.84-2.16a35.37,35.37,0,0,1-1.88-5.66,37.1,37.1,0,0,1,2.33,5.49l.81,2.18a1.64,1.64,0,0,1,.14,1.11.67.67,0,0,1-.46.41,1.92,1.92,0,0,1-.49.07A6.85,6.85,0,0,1,258.13,150.14Z"/><path class="cls-4" d="M254.86,150.91c.18,0,.18,1.2,1.22,2.06s2.32.72,2.32.89-.28.23-.82.25a3,3,0,0,1-1.95-.68,2.61,2.61,0,0,1-.94-1.72C254.64,151.21,254.78,150.91,254.86,150.91Z"/><path class="cls-4" d="M254.39,137.54c-.11.3-1.22.16-2.53.32s-2.36.51-2.53.24.1-.42.53-.71a4.26,4.26,0,0,1,1.88-.66,4.18,4.18,0,0,1,2,.24C254.19,137.16,254.43,137.4,254.39,137.54Z"/><path class="cls-4" d="M264.62,138.47c-.2.26-1,0-1.88,0s-1.7.17-1.88-.09,0-.38.38-.62a2.7,2.7,0,0,1,3,.09C264.6,138.09,264.71,138.35,264.62,138.47Z"/><path class="cls-10" d="M241,143c-.12,0-5-1.47-4.81,3.47s5.09,3.77,5.09,3.63S241,143,241,143Z"/><path class="cls-11" d="M239.66,148.28s-.08.07-.23.14a.84.84,0,0,1-.64,0,2.12,2.12,0,0,1-1-1.88,2.92,2.92,0,0,1,.2-1.24,1,1,0,0,1,.63-.68.44.44,0,0,1,.52.22c.07.13,0,.23.07.24s.1-.09.05-.29a.5.5,0,0,0-.2-.3.64.64,0,0,0-.48-.11,1.22,1.22,0,0,0-.88.79,3,3,0,0,0-.25,1.39,2.24,2.24,0,0,0,1.32,2.1,1,1,0,0,0,.79-.16C239.66,148.4,239.68,148.29,239.66,148.28Z"/><path class="cls-4" d="M269.17,125.26A7.65,7.65,0,0,0,257.28,123a7.48,7.48,0,0,0-12.3-1.6c-1.39,1.57-2.11,3.71-3.73,5-1.41,1.14-3.32,1.52-4.73,2.66a5.46,5.46,0,0,0,1.95,9.52,5.87,5.87,0,0,0,2.88,8l.72-.3a10.29,10.29,0,0,0,1.5-11.36h.26a5.8,5.8,0,0,0,7.53-1.72,6.43,6.43,0,0,0,6.89.29,2.66,2.66,0,0,1,1-.48,2.56,2.56,0,0,1,1.3.39,6.12,6.12,0,0,0,3.5.71,3.39,3.39,0,0,0,2.63-1.88h.08a3.87,3.87,0,0,0,2.9-2.81A5.81,5.81,0,0,0,269.17,125.26Z"/><path class="cls-7" d="M280.15,212.11l.63-32.61c-5.78-5.69-8.87-7.39-16.93-8.34l-2.19-.24-.69-5.37-19.77-1.12,1,6.37h0c-2.87.12-5.24,1-7.68,1.47-7.68,1.47-13.2,7.07-14.74,12.23-1.26,4.25-9.37,35.76-9.37,35.76l-1.65,9.51,18.12-6.57V230l0,25.16h55C282.09,249.21,280.15,212.11,280.15,212.11Z"/><g class="cls-9"><path d="M280.15,212.11l.63-32.61c-5.78-5.69-8.87-7.39-16.93-8.34l-2.19-.24-.69-5.37-19.77-1.12,1,6.37h0c-2.87.12-5.24,1-7.68,1.47-7.68,1.47-13.2,7.07-14.74,12.23-1.26,4.25-9.37,35.76-9.37,35.76l-1.65,9.51,18.12-6.57V230l0,25.16h55C282.09,249.21,280.15,212.11,280.15,212.11Z"/></g><path class="cls-7" d="M217,220.72l27.13-3.86,5.16,9.24-25.23,11.37a10.76,10.76,0,0,1-4.47,1h0a10.86,10.86,0,0,1-10.07-6.75l-.82-2Z"/><g class="cls-9"><path d="M217,220.72l27.13-3.86,5.16,9.24-25.23,11.37a10.76,10.76,0,0,1-4.47,1h0a10.86,10.86,0,0,1-10.07-6.75l-.82-2Z"/></g><path class="cls-7" d="M272.47,173.15s7.66,2.61,10.88,10c2.11,4.81,5.19,28,5.19,28l3.9,7.51a12.71,12.71,0,0,1,1.42,5.83v1.14a12.63,12.63,0,0,1-2.84,8h0a12.68,12.68,0,0,1-8.7,4.63c-3.89.34-8.59.5-9.6-.65-1.77-2-4.43-7.47-4.43-7.47l11.34-6-4.88-9Z"/><g class="cls-9"><path d="M272.47,173.15s7.66,2.61,10.88,10c2.11,4.81,5.19,28,5.19,28l3.9,7.51a12.71,12.71,0,0,1,1.42,5.83v1.14a12.63,12.63,0,0,1-2.84,8h0a12.68,12.68,0,0,1-8.7,4.63c-3.89.34-8.59.5-9.6-.65-1.77-2-4.43-7.47-4.43-7.47l11.34-6-4.88-9Z"/></g><path class="cls-4" d="M226,236.62a2.1,2.1,0,0,1,.43-.25l1.3-.63,4.87-2.27,16.63-7.59-.11.34-3.19-5.69c-.67-1.22-1.34-2.41-2-3.55l.24.13-19.88,1.95-5.91.53-1.59.12a3.38,3.38,0,0,1-.56,0,2.15,2.15,0,0,1,.55-.1l1.58-.21,5.9-.68,19.86-2.11.16,0,.08.14c.63,1.14,1.3,2.33,2,3.55,1.08,2,2.15,3.85,3.17,5.69l.13.24-.24.1-16.7,7.44-4.93,2.14-1.33.55A2.36,2.36,0,0,1,226,236.62Z"/><path class="cls-4" d="M230.8,218c-.13,0-.25-4.85-.25-10.83s.12-10.84.25-10.84.25,4.85.25,10.84S230.94,218,230.8,218Z"/><path class="cls-4" d="M277.5,225.28a2.49,2.49,0,0,1,.83-.13,7.75,7.75,0,0,1,2.29.14,2.68,2.68,0,0,1,1.43.81,3.67,3.67,0,0,1,.75,1.73,4,4,0,0,1-.18,2.07,4,4,0,0,1-1.38,1.76,10.25,10.25,0,0,1-3.93,1.4,18,18,0,0,1-3.36.33,6,6,0,0,1-3.05-.54,15.25,15.25,0,0,0,3,.18,19.89,19.89,0,0,0,3.28-.42,10.28,10.28,0,0,0,3.73-1.36,3.53,3.53,0,0,0,.78-4.89,2.35,2.35,0,0,0-1.21-.73,9.33,9.33,0,0,0-2.19-.29A2.65,2.65,0,0,1,277.5,225.28Z"/><path class="cls-4" d="M282,238.4a5.84,5.84,0,0,1-1.95.23,12.31,12.31,0,0,1-4.68-.78,10,10,0,0,1-2.34-1.24,5.61,5.61,0,0,1-1.44-1.63,4.21,4.21,0,0,1-.69-1.84c.08,0,.33.68,1,1.65a5.8,5.8,0,0,0,1.41,1.45,11.54,11.54,0,0,0,2.25,1.15,14.75,14.75,0,0,0,4.51.89A10.68,10.68,0,0,1,282,238.4Z"/><path class="cls-4" d="M287.42,214.89a8.69,8.69,0,0,1-1.34,1.61c-.87,1-2.1,2.26-3.47,3.67s-2.65,2.67-3.58,3.57a8.86,8.86,0,0,1-1.59,1.37,9.49,9.49,0,0,1,1.34-1.62c.87-1,2.09-2.25,3.47-3.67A49.56,49.56,0,0,1,287.42,214.89Z"/><path class="cls-4" d="M275.07,209.84a38.43,38.43,0,0,1-.25-6.2,38.25,38.25,0,0,1,.25-6.19,40.5,40.5,0,0,1,.24,6.19A40.69,40.69,0,0,1,275.07,209.84Z"/><path class="cls-12" d="M279.11,177.35c0,.15-12.21.26-27.27.26s-27.27-.11-27.27-.26,12.21-.26,27.27-.26S279.11,177.21,279.11,177.35Z"/><path class="cls-4" d="M261.11,171.11a87.2,87.2,0,0,1-9.4.2,87.18,87.18,0,0,1-9.41-.31,85.64,85.64,0,0,1,9.41-.21A82.54,82.54,0,0,1,261.11,171.11Z"/><path class="cls-12" d="M285,188.37c0,.14-14.83.26-33.11.26s-33.12-.12-33.12-.26,14.82-.26,33.12-.26S285,188.23,285,188.37Z"/><path class="cls-12" d="M287.09,199.7c0,.14-16,.26-35.79.26s-35.8-.12-35.8-.26,16-.26,35.8-.26S287.09,199.55,287.09,199.7Z"/><path class="cls-12" d="M288.37,210.71c0,.14-16.91.26-37.77.26s-37.77-.12-37.77-.26,16.91-.26,37.77-.26S288.37,210.57,288.37,210.71Z"/><path class="cls-12" d="M293.48,228.65c0,.14-18.8.26-42,.26s-42-.12-42-.26,18.8-.26,42-.26S293.48,228.5,293.48,228.65Z"/><path class="cls-12" d="M281.42,241.23c0,.15-12.4.26-27.69.26s-27.69-.11-27.69-.26,12.4-.26,27.69-.26S281.42,241.09,281.42,241.23Z"/><path class="cls-10" d="M268.6,212.42,268,212a13.57,13.57,0,0,0-10.67-2.47h0a18.6,18.6,0,0,0-8.32,3.91l-4.65,3.82,4.95,8.86,3.36-4.71s3.14,4.26,3.7,3.81a7,7,0,0,0,1.23-1.79l-2.24-3.14,5.38,1.12,7.85-3.59-3.36-4.26,3.36,1.13Z"/><polygon class="cls-4" points="260.32 211.61 243.05 232.52 244.37 233.96 272.4 229.69 286.29 208.77 285 207.61 260.32 211.61"/><path class="cls-10" d="M278.63,217.13h0a2.67,2.67,0,0,0-2.49,1.7,5.79,5.79,0,0,1-1.69,2.72c-1.25.67-3.4,1.22-4.53.66s-5.66-4.63-6.46-4.17-1.47,1.47-.68,2.37,5,3.63,4.19,4.53-9.62-3.08-11-2.73-2.15,1.19-1.36,1.73,6.8,2.81,7.14,3.61c0,0-9.06-2.38-9.4-1.82s-.91,1.48,0,1.82,8.72,2.37,9.4,2.71a16.47,16.47,0,0,0,3.49,1,36.59,36.59,0,0,1,3.65,1.16,8,8,0,0,0,5.63-.15l.91-.38a3.59,3.59,0,0,0,2.24-3.54l-.19-3.09,1-2.55Z"/><path class="cls-5" d="M286.34,209a1.83,1.83,0,0,1-.51.13l-1.5.27-5.52.88-8.2,1.26-4.84.73a9.26,9.26,0,0,0-4.69,1.9,30.78,30.78,0,0,0-3.42,3.92l-3.06,3.82-5.22,6.46-3.54,4.32-1,1.16c-.23.27-.35.4-.37.39a2.45,2.45,0,0,1,.29-.45c.24-.32.55-.72.91-1.22.86-1.1,2-2.59,3.43-4.42l5.13-6.52,3-3.84a30.46,30.46,0,0,1,3.48-4,9.6,9.6,0,0,1,4.93-2l4.85-.71,8.22-1.14,5.54-.73,1.51-.18A3.52,3.52,0,0,1,286.34,209Z"/><path class="cls-12" d="M273.24,213.55a2.29,2.29,0,0,0-.78.63.81.81,0,0,0,0,.94.87.87,0,0,0,1.15,0,1.14,1.14,0,0,0,.45-.67.8.8,0,0,0-.24-.75.6.6,0,0,0-.76,0"/></g><g id="Speech_Bubble" data-name="Speech Bubble"><path class="cls-7" d="M191.43,166.52l-5.07-8.94a24,24,0,1,0-5.74,6.38h0Z"/><path class="cls-6" d="M157.64,142.13c0-2.16,1.3-3.54,3.14-3.54s3.13,1.36,3.13,3.54-1.28,3.53-3.13,3.53S157.64,144.29,157.64,142.13Zm4.47,0c0-1.38-.53-2-1.33-2s-1.31.68-1.31,2,.54,2,1.31,2S162.11,143.5,162.11,142.13Zm6.21-3.39h2.16l-8.65,12.83h-2.15Zm-2.07,9.44c0-2.17,1.3-3.54,3.12-3.54s3.15,1.37,3.15,3.54-1.3,3.53-3.15,3.53S166.25,150.34,166.25,148.18Zm4.44,0c0-1.36-.52-2-1.32-2s-1.32.66-1.32,2,.55,2,1.32,2S170.69,149.53,170.69,148.18Z"/></g></g></svg>